{"glyphs":{"0":{"ha":771,"x_min":0,"x_max":0,"o":"m 389 918 b 725 456 631 918 725 703 b 382 -15 725 176 613 -15 b 44 450 149 -15 46 194 b 389 918 44 711 156 918 m 386 758 b 257 450 308 758 256 660 b 388 144 256 243 306 144 b 514 453 469 144 514 247 b 386 758 514 653 471 758 "},"1":{"ha":771,"x_min":0,"x_max":0,"o":"m 328 715 l 325 715 l 153 633 l 118 792 l 357 903 l 532 903 l 532 0 l 328 0 "},"2":{"ha":771,"x_min":0,"x_max":0,"o":"m 58 0 l 58 128 l 175 233 b 471 617 372 410 468 511 b 322 749 471 690 426 749 b 129 674 244 749 176 710 l 69 825 b 365 918 138 876 243 918 b 682 635 569 918 682 799 b 442 246 682 483 572 363 l 358 176 l 358 174 l 699 174 l 699 0 "},"3":{"ha":771,"x_min":0,"x_max":0,"o":"m 96 207 b 306 151 133 188 219 151 b 471 272 415 151 471 204 b 289 401 471 361 382 401 l 203 401 l 203 553 l 285 553 b 446 657 356 554 446 581 b 313 751 446 711 401 751 b 124 697 239 751 161 719 l 81 850 b 360 918 135 885 243 918 b 660 693 553 918 660 817 b 494 483 660 597 606 522 l 494 481 b 690 261 603 461 690 379 b 321 -15 690 101 550 -15 b 53 49 204 -15 106 15 "},"4":{"ha":771,"x_min":0,"x_max":0,"o":"m 432 0 l 432 215 l 32 215 l 32 353 l 374 903 l 632 903 l 632 374 l 740 374 l 740 215 l 632 215 l 632 0 m 432 374 l 432 574 b 439 742 432 628 435 683 l 433 742 b 350 574 404 683 381 631 l 229 376 l 229 374 "},"5":{"ha":771,"x_min":0,"x_max":0,"o":"m 661 729 l 311 729 l 292 590 b 350 593 311 593 328 593 b 588 528 436 593 524 574 b 697 301 656 482 697 407 b 310 -15 697 133 553 -15 b 58 36 200 -15 108 10 l 96 194 b 300 150 136 175 218 150 b 481 288 388 150 481 192 b 226 438 481 381 407 438 b 104 429 176 438 142 435 l 164 903 l 661 903 "},"6":{"ha":771,"x_min":0,"x_max":0,"o":"m 635 753 b 553 750 611 754 586 753 b 258 533 365 735 282 639 l 263 533 b 454 606 307 579 369 606 b 733 311 606 606 733 499 b 400 -15 733 132 596 -15 b 42 379 160 -15 42 164 b 201 781 42 549 104 690 b 550 914 292 863 408 907 b 635 915 589 917 614 917 m 397 140 b 519 300 472 140 519 208 b 385 456 519 383 475 456 b 260 375 328 456 281 421 b 251 322 254 364 251 347 b 397 140 256 226 301 140 "},"7":{"ha":771,"x_min":0,"x_max":0,"o":"m 706 903 l 706 769 l 333 0 l 110 0 l 482 726 l 482 729 l 68 729 l 68 903 "},"8":{"ha":771,"x_min":0,"x_max":0,"o":"m 379 -15 b 44 236 150 -15 44 114 b 206 463 44 344 107 419 l 206 467 b 75 664 118 511 75 585 b 393 918 75 817 213 918 b 692 686 604 918 692 796 b 561 488 692 608 650 532 l 561 483 b 726 258 649 450 726 375 b 379 -15 726 94 589 -15 m 388 131 b 511 243 463 131 511 179 b 369 392 511 322 453 369 b 260 257 300 372 260 322 b 388 131 258 192 308 131 m 383 775 b 274 671 311 775 274 728 b 401 549 274 610 329 571 b 493 664 450 563 493 607 b 383 775 493 719 461 775 "},"9":{"ha":771,"x_min":0,"x_max":0,"o":"m 125 153 b 217 153 151 150 175 150 b 394 208 281 157 346 175 b 508 375 453 249 492 307 l 504 376 b 324 311 464 335 406 311 b 42 593 171 311 42 418 b 382 918 42 769 183 918 b 724 529 614 918 724 740 b 565 114 724 342 664 204 b 221 -12 479 36 361 -7 b 125 -12 185 -15 149 -14 m 376 764 b 253 606 304 764 251 700 b 381 461 253 528 294 461 b 497 521 438 461 478 489 b 508 574 504 533 508 547 b 376 764 508 669 472 764 "}," ":{"ha":281,"x_min":0,"x_max":0,"o":""},"!":{"ha":372,"x_min":0,"x_max":0,"o":"m 107 307 l 75 936 l 296 936 l 265 307 m 186 -15 b 61 111 111 -15 61 39 b 186 238 61 185 113 238 b 310 111 260 238 308 185 b 186 -15 310 39 261 -15 "},"\"":{"ha":551,"x_min":0,"x_max":0,"o":"m 236 951 l 204 575 l 81 575 l 49 951 m 503 951 l 471 575 l 347 575 l 315 951 "},"#":{"ha":764,"x_min":0,"x_max":0,"o":"m 436 376 l 458 532 l 332 532 l 310 376 m 128 0 l 164 249 l 51 249 l 51 376 l 186 376 l 208 532 l 90 532 l 90 661 l 228 661 l 263 903 l 386 903 l 351 661 l 478 661 l 514 903 l 638 903 l 601 661 l 713 661 l 713 532 l 582 532 l 560 376 l 675 376 l 675 249 l 539 249 l 504 0 l 379 0 l 414 249 l 288 249 l 253 0 "},"$":{"ha":771,"x_min":0,"x_max":0,"o":"m 313 -121 l 313 11 b 76 71 219 15 129 40 l 118 233 b 349 172 176 201 258 172 b 482 258 428 172 482 203 b 335 379 482 311 438 344 b 85 633 186 429 85 499 b 319 881 85 756 171 851 l 319 1013 l 456 1013 l 456 890 b 657 844 549 886 611 867 l 617 688 b 417 735 581 703 517 735 b 297 657 326 735 297 696 b 464 538 297 611 346 582 b 696 278 629 479 696 403 b 449 21 696 154 608 49 l 449 -121 "},"%":{"ha":1222,"x_min":0,"x_max":0,"o":"m 290 918 b 533 650 446 918 533 804 b 283 363 533 461 414 363 b 38 635 146 363 38 465 b 290 918 38 796 136 918 m 286 803 b 194 640 224 803 194 731 b 288 478 194 546 226 478 b 376 640 347 478 376 539 b 286 803 376 732 351 803 m 294 -15 l 813 918 l 926 918 l 407 -15 m 940 543 b 1183 275 1096 543 1183 429 b 933 -12 1183 86 1064 -12 b 688 260 797 -12 689 90 b 940 543 688 421 786 543 m 938 428 b 846 265 874 428 846 356 b 938 103 844 171 876 103 b 1026 265 997 103 1026 164 b 938 428 1026 357 1003 428 "},"&":{"ha":942,"x_min":0,"x_max":0,"o":"m 688 0 b 626 67 668 21 649 42 b 369 -15 565 19 481 -15 b 43 250 143 -15 43 119 b 221 518 43 374 114 463 l 221 524 b 150 704 181 568 150 638 b 431 951 150 822 243 951 b 685 732 575 951 685 867 b 500 492 685 638 629 557 l 499 486 b 656 311 553 426 610 358 b 735 539 693 369 722 456 l 924 539 b 768 183 899 397 851 276 b 933 0 821 124 875 63 m 399 138 b 528 185 454 138 500 158 b 317 414 469 243 393 328 b 243 285 278 386 243 346 b 399 138 243 206 303 138 m 424 819 b 339 724 369 819 339 772 b 403 589 339 676 361 635 b 506 726 471 636 506 672 b 424 819 506 771 479 819 "},"’":{"ha":361,"x_min":0,"x_max":0,"o":"m 331 951 b 164 575 288 815 226 679 l 36 564 b 132 939 78 682 114 817 "},"(":{"ha":436,"x_min":0,"x_max":0,"o":"m 389 960 b 249 397 310 832 249 646 b 389 -161 249 153 311 -32 l 242 -161 b 83 399 167 -54 83 131 b 242 960 85 668 167 851 "},")":{"ha":436,"x_min":0,"x_max":0,"o":"m 49 -161 b 189 400 125 -33 189 154 b 49 960 189 646 126 831 l 196 960 b 354 400 269 853 354 671 b 196 -161 353 129 269 -53 "},"*":{"ha":631,"x_min":0,"x_max":0,"o":"m 517 882 l 367 706 l 368 701 l 589 746 l 589 606 l 367 644 l 365 640 l 517 469 l 393 397 l 314 613 l 311 611 l 231 397 l 111 469 l 260 643 l 260 646 l 42 606 l 42 746 l 257 703 l 258 706 l 111 881 l 235 951 l 313 739 l 315 739 l 394 951 "},"+":{"ha":828,"x_min":0,"x_max":0,"o":"m 482 739 l 482 436 l 772 436 l 772 306 l 482 306 l 482 0 l 346 0 l 346 306 l 56 306 l 56 436 l 346 436 l 346 739 "},",":{"ha":361,"x_min":0,"x_max":0,"o":"m 3 -165 b 103 229 46 -42 83 103 l 318 243 b 143 -153 272 101 210 -44 "},"-":{"ha":447,"x_min":0,"x_max":0,"o":"m 406 435 l 406 294 l 42 294 l 42 435 "},".":{"ha":361,"x_min":0,"x_max":0,"o":"m 193 -15 b 69 113 121 -15 69 39 b 194 242 69 188 121 242 b 318 113 268 242 318 189 b 193 -15 318 39 268 -15 "},"/":{"ha":460,"x_min":0,"x_max":0,"o":"m 22 -56 l 319 951 l 460 951 l 163 -56 "},":":{"ha":361,"x_min":0,"x_max":0,"o":"m 193 433 b 69 560 121 433 69 488 b 194 688 69 635 121 688 b 318 560 268 688 317 636 b 193 433 318 488 268 433 m 193 -15 b 69 111 121 -15 69 39 b 194 239 69 185 121 239 b 318 111 268 239 317 186 b 193 -15 318 39 268 -15 "},";":{"ha":361,"x_min":0,"x_max":0,"o":"m 3 -165 b 104 229 46 -42 83 103 l 317 243 b 142 -153 271 101 208 -44 m 201 433 b 78 560 128 433 76 488 b 201 688 78 635 128 688 b 325 560 275 688 324 636 b 201 433 325 488 276 433 "},"<":{"ha":828,"x_min":0,"x_max":0,"o":"m 81 429 l 747 739 l 747 592 l 243 371 l 243 368 l 747 147 l 747 0 l 81 310 "},"=":{"ha":828,"x_min":0,"x_max":0,"o":"m 56 451 l 56 581 l 772 581 l 772 451 m 56 164 l 56 293 l 772 293 l 772 164 "},">":{"ha":828,"x_min":0,"x_max":0,"o":"m 747 306 l 81 0 l 81 147 l 596 368 l 596 371 l 81 592 l 81 739 l 747 433 "},"?":{"ha":618,"x_min":0,"x_max":0,"o":"m 192 303 l 190 339 b 272 557 186 410 210 482 b 353 701 317 610 353 654 b 251 785 353 750 321 782 b 114 743 206 785 150 768 l 67 894 b 299 951 117 924 200 951 b 565 735 482 951 565 850 b 447 501 565 629 500 560 b 376 328 396 444 375 390 l 376 303 m 279 -15 b 156 111 206 -15 156 39 b 279 238 156 185 207 238 b 404 111 354 238 403 185 b 279 -15 404 39 354 -15 "},"@":{"ha":1069,"x_min":0,"x_max":0,"o":"m 635 479 b 592 485 624 482 610 485 b 428 288 500 485 428 394 b 497 201 428 235 451 201 b 615 347 549 201 603 267 m 758 -94 b 504 -144 675 -132 603 -144 b 71 293 274 -144 71 21 b 590 822 71 576 276 822 b 1010 421 835 822 1010 654 b 746 90 1010 218 896 90 b 626 197 681 90 633 124 l 624 197 b 444 90 581 126 518 90 b 289 271 354 90 289 157 b 614 594 289 440 414 594 b 779 560 675 594 744 579 l 738 303 b 772 182 724 221 733 183 b 907 417 832 181 907 257 b 575 738 907 597 790 738 b 176 306 363 738 176 571 b 532 -58 176 74 325 -58 b 733 -14 603 -58 678 -43 "},"A":{"ha":911,"x_min":0,"x_max":0,"o":"m 310 240 l 243 0 l 24 0 l 310 936 l 588 936 l 878 0 l 650 0 l 578 240 m 547 399 l 489 597 b 442 778 472 653 456 722 l 439 778 b 396 597 425 722 411 651 l 340 399 "},"B":{"ha":839,"x_min":0,"x_max":0,"o":"m 92 924 b 365 943 147 935 260 943 b 642 890 494 943 574 931 b 754 707 707 856 754 792 b 600 507 754 624 706 546 l 600 504 b 786 274 707 475 786 394 b 689 75 786 189 747 122 b 321 -10 621 21 507 -10 b 92 4 217 -10 139 -3 m 301 565 l 371 565 b 542 681 482 565 542 611 b 392 789 542 751 488 789 b 301 783 346 789 319 786 m 301 150 b 383 147 322 147 347 147 b 564 282 479 147 564 183 b 374 414 564 376 479 414 l 301 414 "},"C":{"ha":826,"x_min":0,"x_max":0,"o":"m 779 26 b 539 -14 740 7 653 -14 b 49 454 215 -14 49 188 b 560 951 49 774 276 951 b 790 910 669 951 753 929 l 747 742 b 569 776 704 760 644 776 b 271 467 401 776 271 675 b 571 161 271 279 382 161 b 747 192 635 161 706 175 "},"D":{"ha":967,"x_min":0,"x_max":0,"o":"m 92 924 b 378 943 169 936 271 943 b 761 843 556 943 671 911 b 919 490 858 771 919 656 b 764 111 919 311 854 188 b 332 -10 665 29 515 -10 b 92 4 222 -10 144 -3 m 304 160 b 378 156 322 156 351 156 b 694 483 569 154 694 260 b 400 781 696 678 582 781 b 304 772 353 781 322 776 "},"E":{"ha":742,"x_min":0,"x_max":0,"o":"m 649 396 l 304 396 l 304 174 l 689 174 l 689 0 l 92 0 l 92 936 l 669 936 l 669 763 l 304 763 l 304 568 l 649 568 "},"F":{"ha":732,"x_min":0,"x_max":0,"o":"m 92 936 l 664 936 l 664 763 l 304 763 l 304 549 l 640 549 l 640 376 l 304 376 l 304 0 l 92 0 "},"G":{"ha":947,"x_min":0,"x_max":0,"o":"m 874 43 b 561 -10 808 21 685 -10 b 181 117 390 -10 267 33 b 49 457 94 197 47 319 b 583 946 50 768 276 946 b 843 900 704 946 797 922 l 799 731 b 581 771 747 753 683 771 b 271 468 404 771 271 671 b 565 161 271 275 392 161 b 669 175 614 161 653 167 l 669 371 l 525 371 l 525 536 l 874 536 "},"H":{"ha":957,"x_min":0,"x_max":0,"o":"m 304 936 l 304 576 l 653 576 l 653 936 l 864 936 l 864 0 l 653 0 l 653 392 l 304 392 l 304 0 l 92 0 l 92 936 "},"I":{"ha":396,"x_min":0,"x_max":0,"o":"m 304 936 l 304 0 l 92 0 l 92 936 "},"J":{"ha":571,"x_min":0,"x_max":0,"o":"m 275 936 l 486 936 l 486 344 b 153 -15 486 78 358 -15 b -1 7 104 -15 40 -7 l 22 178 b 131 161 51 168 89 161 b 275 347 219 161 275 201 "},"K":{"ha":853,"x_min":0,"x_max":0,"o":"m 92 936 l 301 936 l 301 522 l 306 522 b 369 625 326 558 349 592 l 582 936 l 842 936 l 532 538 l 858 0 l 611 0 l 382 404 l 301 306 l 301 0 l 92 0 "},"L":{"ha":710,"x_min":0,"x_max":0,"o":"m 92 936 l 304 936 l 304 178 l 676 178 l 676 0 l 92 0 "},"M":{"ha":1175,"x_min":0,"x_max":0,"o":"m 883 358 b 875 743 879 471 875 607 l 871 743 b 767 381 842 624 803 490 l 653 15 l 488 15 l 388 378 b 303 743 357 488 325 621 l 300 743 b 283 356 294 617 290 472 l 267 0 l 71 0 l 131 936 l 413 936 l 504 624 b 583 289 533 515 563 399 l 588 289 b 676 625 614 397 646 521 l 776 936 l 1053 936 l 1104 0 l 897 0 "},"N":{"ha":958,"x_min":0,"x_max":0,"o":"m 92 0 l 92 936 l 339 936 l 533 593 b 686 272 589 494 644 378 l 690 272 b 672 663 676 396 672 522 l 672 936 l 867 936 l 867 0 l 644 0 l 444 361 b 282 692 389 461 328 582 l 278 690 b 286 282 283 567 286 435 l 286 0 "},"O":{"ha":996,"x_min":0,"x_max":0,"o":"m 504 951 b 949 478 792 951 949 736 b 489 -15 949 171 763 -15 b 49 461 211 -15 49 194 b 504 951 49 742 228 951 m 499 783 b 272 465 356 783 272 647 b 500 153 272 282 358 153 b 725 471 643 153 725 289 b 499 783 725 639 644 783 "},"P":{"ha":807,"x_min":0,"x_max":0,"o":"m 92 924 b 378 943 157 935 249 943 b 664 868 508 943 601 918 b 764 651 724 821 764 743 b 678 429 764 560 733 482 b 374 331 606 361 499 331 b 301 335 346 331 321 332 l 301 0 l 92 0 m 301 499 b 372 493 319 494 342 493 b 554 646 485 493 554 550 b 389 783 554 732 494 783 b 301 775 346 783 317 779 "},"Q":{"ha":996,"x_min":0,"x_max":0,"o":"m 892 -161 b 522 -29 758 -122 647 -82 b 457 -15 501 -21 479 -17 b 49 460 246 -1 49 154 b 506 951 49 740 226 951 b 949 479 792 951 949 735 b 726 61 949 267 850 117 l 726 56 b 953 3 799 35 879 18 m 499 153 b 725 471 642 153 725 288 b 500 783 725 642 644 783 b 272 467 356 783 272 642 b 499 153 271 289 357 153 "},"R":{"ha":824,"x_min":0,"x_max":0,"o":"m 92 924 b 374 943 160 935 261 943 b 676 869 513 943 610 922 b 763 674 732 825 763 760 b 597 443 763 554 678 472 l 597 439 b 722 264 663 413 699 350 b 799 0 751 158 781 36 l 582 0 b 517 218 567 26 544 103 b 365 368 492 335 451 367 l 301 368 l 301 0 l 92 0 m 301 521 l 385 521 b 553 656 490 521 553 574 b 397 786 553 742 494 785 b 301 779 346 786 317 782 "},"S":{"ha":750,"x_min":0,"x_max":0,"o":"m 99 218 b 333 160 156 189 243 160 b 482 261 431 160 482 200 b 325 393 482 319 438 353 b 68 669 169 447 68 533 b 422 951 68 829 201 951 b 661 904 528 951 606 929 l 614 733 b 418 778 576 751 510 778 b 282 688 326 778 282 736 b 456 556 282 628 335 601 b 699 276 621 494 699 408 b 321 -14 699 119 578 -14 b 56 43 214 -14 108 14 "},"T":{"ha":761,"x_min":0,"x_max":0,"o":"m 272 758 l 21 758 l 21 936 l 740 936 l 740 758 l 485 758 l 485 0 l 272 0 "},"U":{"ha":947,"x_min":0,"x_max":0,"o":"m 303 936 l 303 397 b 472 154 303 236 364 154 b 644 397 583 154 644 232 l 644 936 l 856 936 l 856 411 b 465 -15 856 122 710 -15 b 90 414 229 -15 90 115 l 90 936 "},"V":{"ha":883,"x_min":0,"x_max":0,"o":"m 313 0 l 13 936 l 244 936 l 358 540 b 442 206 390 429 419 322 l 446 206 b 531 536 469 318 499 429 l 650 936 l 875 936 l 560 0 "},"W":{"ha":1233,"x_min":0,"x_max":0,"o":"m 243 0 l 21 936 l 247 936 l 318 550 b 374 224 339 439 358 318 l 376 224 b 438 553 392 325 414 438 l 517 936 l 742 936 l 817 542 b 867 228 838 432 853 332 l 869 228 b 924 553 883 332 904 442 l 1000 936 l 1215 936 l 974 0 l 744 0 l 665 403 b 621 692 647 497 632 585 l 618 692 b 564 403 601 586 586 497 l 475 0 "},"X":{"ha":851,"x_min":0,"x_max":0,"o":"m 585 0 l 500 169 b 417 338 465 235 443 283 l 414 338 b 342 169 394 283 371 235 l 264 0 l 22 0 l 293 474 l 32 936 l 275 936 l 357 765 b 428 610 385 708 406 663 l 431 610 b 494 765 453 669 471 711 l 574 936 l 815 936 l 551 479 l 829 0 "},"Y":{"ha":838,"x_min":0,"x_max":0,"o":"m 308 0 l 308 383 l 13 936 l 254 936 l 350 711 b 422 532 379 643 399 593 l 425 532 b 496 711 446 590 468 644 l 590 936 l 828 936 l 519 390 l 519 0 "},"Z":{"ha":801,"x_min":0,"x_max":0,"o":"m 32 114 l 478 756 l 478 761 l 74 761 l 74 936 l 753 936 l 753 814 l 317 181 l 317 175 l 760 175 l 760 0 l 32 0 "},"[":{"ha":436,"x_min":0,"x_max":0,"o":"m 94 -157 l 94 950 l 379 950 l 379 833 l 247 833 l 247 -40 l 379 -40 l 379 -157 "},"\\":{"ha":458,"x_min":0,"x_max":0,"o":"m 297 -56 l 17 951 l 157 951 l 436 -56 "},"]":{"ha":436,"x_min":0,"x_max":0,"o":"m 342 953 l 342 -156 l 58 -156 l 58 -39 l 190 -39 l 190 836 l 58 836 l 58 953 "},"^":{"ha":828,"x_min":0,"x_max":0,"o":"m 618 246 l 415 740 l 411 740 l 207 246 l 58 246 l 350 903 l 478 903 l 769 246 "},"_":{"ha":694,"x_min":0,"x_max":0,"o":"m 694 -104 l 694 -174 l 0 -174 l 0 -104 "},"‘":{"ha":361,"x_min":0,"x_max":0,"o":"m 38 564 b 204 940 81 700 140 836 l 332 951 b 235 576 289 833 254 699 "},"a":{"ha":733,"x_min":0,"x_max":0,"o":"m 471 0 l 458 68 l 454 68 b 260 -15 410 14 340 -15 b 40 193 122 -15 40 85 b 439 453 40 369 199 454 l 439 463 b 315 550 439 499 419 550 b 128 499 246 550 172 526 l 89 635 b 353 694 136 661 229 694 b 651 401 579 694 651 561 l 651 165 b 661 0 651 100 654 38 m 446 321 b 249 214 335 322 249 296 b 332 133 249 160 285 133 b 442 211 385 133 428 168 b 446 247 444 222 446 235 "},"b":{"ha":831,"x_min":0,"x_max":0,"o":"m 79 0 b 85 203 82 44 85 126 l 85 986 l 296 986 l 296 599 l 299 599 b 504 694 339 657 410 694 b 785 351 667 694 786 560 b 474 -15 785 107 629 -15 b 269 94 394 -15 318 14 l 267 94 l 258 0 m 296 289 b 300 251 296 275 297 263 b 424 151 314 194 363 151 b 569 343 514 151 569 221 b 424 532 569 449 522 532 b 300 428 367 532 314 489 b 296 389 297 415 296 403 "},"c":{"ha":626,"x_min":0,"x_max":0,"o":"m 594 17 b 406 -14 557 0 486 -14 b 46 333 186 -14 46 119 b 435 694 46 532 182 694 b 596 668 490 694 551 685 l 563 511 b 444 532 538 522 500 532 b 263 342 333 532 261 453 b 449 151 263 217 346 151 b 569 172 499 151 538 160 "},"d":{"ha":828,"x_min":0,"x_max":0,"o":"m 743 986 l 743 203 b 749 0 743 126 746 46 l 561 0 l 551 100 l 549 100 b 336 -15 506 24 424 -15 b 46 333 175 -15 46 122 b 350 694 44 563 188 694 b 529 618 433 694 499 665 l 532 618 l 532 986 m 532 392 b 529 429 532 403 531 418 b 406 533 517 486 471 533 b 260 340 310 533 260 447 b 404 153 260 225 317 153 b 526 254 465 153 514 194 b 532 303 531 269 532 285 "},"e":{"ha":733,"x_min":0,"x_max":0,"o":"m 247 272 b 439 143 254 185 340 143 b 626 171 511 143 569 153 l 654 28 b 408 -14 585 0 500 -14 b 46 332 178 -14 46 119 b 389 694 46 504 153 694 b 692 356 608 694 692 524 b 685 272 692 319 688 288 m 496 417 b 376 554 496 468 474 554 b 246 417 288 554 251 474 "},"f":{"ha":474,"x_min":0,"x_max":0,"o":"m 108 0 l 108 524 l 19 524 l 19 679 l 108 679 l 108 706 b 194 933 108 788 133 878 b 382 1001 247 983 321 1001 b 494 988 429 1001 465 996 l 486 825 b 418 835 468 831 446 835 b 319 714 349 835 319 781 l 319 679 l 456 679 l 456 524 l 321 524 l 321 0 "},"g":{"ha":813,"x_min":0,"x_max":0,"o":"m 733 679 b 728 478 731 636 728 579 l 728 99 b 625 -207 728 -32 701 -139 b 349 -290 550 -271 449 -290 b 104 -237 260 -290 165 -272 l 146 -78 b 343 -129 189 -103 264 -129 b 519 50 443 -129 519 -75 l 519 94 l 517 94 b 333 6 476 38 411 6 b 46 338 165 6 46 142 b 354 694 46 556 188 694 b 540 599 447 694 506 654 l 543 599 l 550 679 m 517 403 b 513 442 517 417 515 431 b 399 535 497 497 457 535 b 260 342 322 535 260 465 b 399 161 260 240 310 161 b 510 247 453 161 496 197 b 517 303 515 263 517 285 "},"h":{"ha":814,"x_min":0,"x_max":0,"o":"m 85 986 l 296 986 l 296 599 l 299 599 b 382 668 321 628 349 650 b 492 694 413 685 453 694 b 729 397 626 694 729 601 l 729 0 l 518 0 l 518 374 b 408 524 518 463 488 524 b 303 450 353 524 318 488 b 296 403 297 436 296 418 l 296 0 l 85 0 "},"i":{"ha":381,"x_min":0,"x_max":0,"o":"m 85 0 l 85 679 l 296 679 l 296 0 m 190 975 b 303 868 258 975 301 929 b 189 763 303 810 258 763 b 79 868 122 763 78 810 b 190 975 78 929 122 975 "},"j":{"ha":404,"x_min":0,"x_max":0,"o":"m -56 -125 b 69 -81 0 -121 43 -108 b 111 140 100 -49 111 6 l 111 679 l 324 679 l 324 90 b 228 -207 324 -58 290 -149 b -35 -290 165 -265 67 -290 m 218 975 b 329 868 286 975 328 929 b 215 763 329 810 286 763 b 106 868 149 763 106 810 b 218 975 106 929 149 975 "},"k":{"ha":753,"x_min":0,"x_max":0,"o":"m 296 393 l 299 393 b 347 475 314 421 331 449 l 485 679 l 739 679 l 496 404 l 774 0 l 514 0 l 350 279 l 296 213 l 296 0 l 85 0 l 85 986 l 296 986 "},"l":{"ha":382,"x_min":0,"x_max":0,"o":"m 85 986 l 296 986 l 296 0 l 85 0 "},"m":{"ha":1194,"x_min":0,"x_max":0,"o":"m 85 463 b 79 679 85 547 82 619 l 257 679 l 267 588 l 271 588 b 476 694 300 631 360 694 b 663 579 564 694 633 650 l 665 579 b 753 661 690 614 721 642 b 882 694 790 683 832 694 b 1111 400 1013 694 1111 603 l 1111 0 l 906 0 l 906 369 b 806 525 906 468 874 525 b 708 451 757 525 722 492 b 700 397 703 436 700 414 l 700 0 l 494 0 l 494 381 b 397 525 494 467 464 525 b 299 449 343 525 311 483 b 290 396 292 432 290 413 l 290 0 l 85 0 "},"n":{"ha":814,"x_min":0,"x_max":0,"o":"m 85 463 b 79 679 85 547 82 619 l 263 679 l 272 586 l 276 586 b 486 694 304 629 374 694 b 729 403 625 694 729 603 l 729 0 l 518 0 l 518 376 b 411 524 518 464 488 524 b 304 444 353 524 318 483 b 296 392 299 432 296 411 l 296 0 l 85 0 "},"o":{"ha":801,"x_min":0,"x_max":0,"o":"m 408 694 b 756 347 617 694 756 551 b 397 -15 756 99 579 -15 b 46 335 199 -15 46 115 b 408 694 46 554 190 694 m 403 544 b 264 340 301 544 264 440 b 403 136 264 224 313 136 b 538 340 485 136 538 218 b 403 544 538 442 499 544 "},"p":{"ha":831,"x_min":0,"x_max":0,"o":"m 85 451 b 79 679 85 540 82 617 l 263 679 l 272 585 l 275 585 b 501 694 325 657 403 694 b 783 349 650 694 783 565 b 475 -15 783 101 626 -15 b 299 63 393 -15 329 18 l 296 63 l 296 -275 l 85 -275 m 296 292 b 300 247 296 275 297 260 b 424 147 314 190 363 147 b 569 339 515 147 569 224 b 426 529 569 447 521 529 b 300 422 367 529 314 485 b 296 385 297 411 296 397 "},"q":{"ha":826,"x_min":0,"x_max":0,"o":"m 532 85 l 529 85 b 328 -15 486 21 418 -15 b 46 331 181 -15 46 114 b 346 694 46 574 201 694 b 535 600 433 694 497 663 l 538 600 l 543 679 l 747 679 b 743 475 746 614 743 546 l 743 -275 l 532 -275 m 532 394 b 528 429 532 406 531 418 b 407 531 517 483 471 531 b 261 339 310 531 261 449 b 404 151 261 225 315 151 b 526 247 464 151 513 192 b 532 293 531 261 532 279 "},"r":{"ha":528,"x_min":0,"x_max":0,"o":"m 85 456 b 79 679 85 556 82 621 l 261 679 l 268 554 l 274 554 b 457 694 308 653 392 694 b 501 692 476 694 486 694 l 501 493 b 444 499 486 496 468 499 b 300 392 367 499 314 457 b 296 344 297 378 296 361 l 296 0 l 85 0 "},"s":{"ha":603,"x_min":0,"x_max":0,"o":"m 83 185 b 265 133 122 161 203 133 b 356 190 329 133 356 156 b 256 268 356 225 335 242 b 63 472 115 315 61 392 b 339 694 63 599 171 694 b 531 656 418 694 489 676 l 493 510 b 346 549 463 526 404 549 b 265 493 294 549 265 528 b 375 415 265 461 292 444 b 560 206 504 371 558 306 b 265 -14 560 79 460 -14 b 46 33 176 -14 97 6 "},"t":{"ha":510,"x_min":0,"x_max":0,"o":"m 321 874 l 321 679 l 472 679 l 472 524 l 321 524 l 321 278 b 404 158 321 196 340 158 b 467 164 431 158 451 161 l 468 4 b 331 -14 440 -7 390 -14 b 172 44 263 -14 206 10 b 114 246 133 85 114 150 l 114 524 l 24 524 l 24 679 l 114 679 l 114 826 "},"u":{"ha":810,"x_min":0,"x_max":0,"o":"m 725 218 b 731 0 725 129 728 57 l 547 0 l 538 96 l 533 96 b 321 -15 507 54 443 -15 b 82 281 183 -15 82 71 l 82 679 l 294 679 l 294 314 b 400 156 294 215 326 156 b 506 229 458 156 492 196 b 513 275 511 242 513 258 l 513 679 l 725 679 "},"v":{"ha":736,"x_min":0,"x_max":0,"o":"m 242 679 l 333 364 b 372 199 350 307 363 253 l 376 199 b 414 364 388 254 399 306 l 501 679 l 724 679 l 471 0 l 260 0 l 13 679 "},"w":{"ha":1054,"x_min":0,"x_max":0,"o":"m 231 679 l 285 401 b 324 178 299 331 313 256 l 326 178 b 376 400 340 256 360 333 l 449 679 l 615 679 l 683 408 b 733 178 701 332 719 256 l 736 178 b 775 410 746 256 760 332 l 833 679 l 1040 679 l 832 0 l 633 0 l 569 239 b 526 450 553 306 540 367 l 524 450 b 479 239 511 365 497 303 l 411 0 l 213 0 l 15 679 "},"x":{"ha":721,"x_min":0,"x_max":0,"o":"m 246 679 l 313 567 b 368 465 332 532 350 497 l 371 465 b 424 569 389 501 406 536 l 483 679 l 713 679 l 489 356 l 715 0 l 476 0 l 408 122 b 356 225 389 156 372 190 l 351 225 b 300 122 335 189 317 156 l 236 0 l 4 0 l 235 346 l 10 679 "},"y":{"ha":726,"x_min":0,"x_max":0,"o":"m 243 679 l 344 346 b 378 219 356 306 369 256 l 382 219 b 413 346 392 256 403 307 l 496 679 l 722 679 l 564 232 b 325 -214 467 -37 401 -146 b 121 -307 251 -278 174 -300 l 76 -128 b 168 -92 103 -124 136 -111 b 256 -7 200 -75 235 -42 b 267 24 263 3 267 14 b 257 58 267 31 265 42 l 8 679 "},"z":{"ha":651,"x_min":0,"x_max":0,"o":"m 31 121 l 244 389 b 353 510 283 435 314 468 l 353 513 l 54 513 l 54 679 l 610 679 l 610 553 l 406 296 b 294 171 368 251 333 208 l 294 168 l 621 168 l 621 0 l 31 0 "},"{":{"ha":436,"x_min":0,"x_max":0,"o":"m 42 453 b 147 547 138 456 147 506 b 139 656 147 582 143 618 b 132 765 135 693 132 731 b 343 953 132 896 214 953 l 392 953 l 392 835 l 367 835 b 282 736 304 835 282 797 b 289 657 282 711 286 686 b 296 563 292 629 296 597 b 178 401 297 457 254 418 l 178 399 b 296 236 254 382 297 342 b 289 139 296 200 292 168 b 282 61 286 111 282 85 b 367 -39 282 0 303 -39 l 392 -39 l 392 -156 l 342 -156 b 132 33 218 -156 132 -106 b 139 143 132 68 135 106 b 147 251 143 181 147 217 b 42 346 147 290 138 343 "},"|":{"ha":393,"x_min":0,"x_max":0,"o":"m 269 1042 l 269 -347 l 122 -347 l 122 1042 "},"}":{"ha":436,"x_min":0,"x_max":0,"o":"m 394 346 b 289 251 300 343 289 290 b 297 143 289 217 293 181 b 306 33 301 106 306 68 b 94 -156 306 -106 219 -156 l 44 -156 l 44 -39 l 69 -39 b 154 61 133 -37 154 0 b 147 139 154 85 151 111 b 140 236 144 168 140 200 b 260 399 139 342 182 382 l 260 401 b 140 563 182 418 139 457 b 147 657 140 597 144 629 b 154 736 151 686 154 711 b 69 835 154 797 132 833 l 44 835 l 44 953 l 93 953 b 306 765 224 953 306 896 b 297 656 306 731 301 693 b 289 547 293 618 289 582 b 394 453 289 506 300 456 "},"~":{"ha":828,"x_min":0,"x_max":0,"o":"m 60 267 b 253 526 58 453 140 526 b 447 460 321 526 368 504 b 579 406 508 426 546 406 b 636 518 613 406 632 435 l 768 518 b 583 256 776 319 689 256 b 389 322 517 256 464 281 b 257 381 328 358 290 381 b 192 267 222 381 197 357 "},"¡":{"ha":372,"x_min":0,"x_max":0,"o":"m 76 -275 l 107 357 l 267 357 l 297 -275 m 186 688 b 310 560 260 688 310 635 b 186 435 310 488 261 435 b 63 560 113 435 63 488 b 186 688 63 635 114 688 "},"¢":{"ha":771,"x_min":0,"x_max":0,"o":"m 388 -17 l 388 119 b 182 226 300 133 232 169 b 104 454 132 283 104 363 b 388 801 104 621 206 765 l 388 935 l 525 935 l 525 808 b 657 781 568 806 618 796 l 624 625 b 500 650 593 640 554 650 b 321 463 389 650 321 574 b 501 276 321 338 403 276 b 639 300 558 276 603 286 l 664 149 b 524 117 631 132 579 119 l 524 -17 "},"£":{"ha":771,"x_min":0,"x_max":0,"o":"m 71 0 l 71 113 b 226 317 144 143 226 222 b 222 372 226 336 225 353 l 86 372 l 86 515 l 197 515 b 186 628 190 550 186 590 b 500 918 186 803 314 918 b 664 885 576 918 633 901 l 629 725 b 513 750 603 740 564 750 b 383 619 414 750 383 686 b 396 515 383 583 388 550 l 586 515 l 586 372 l 414 372 b 401 274 415 338 413 306 b 333 175 389 239 367 204 l 333 172 l 704 172 l 704 0 "},"⁄":{"ha":174,"x_min":0,"x_max":0,"o":"m -226 -15 l 286 918 l 401 918 l -112 -15 "},"¥":{"ha":771,"x_min":0,"x_max":0,"o":"m 279 0 l 279 222 l 64 222 l 64 321 l 279 321 l 279 410 l 64 410 l 64 508 l 229 508 l 3 903 l 229 903 l 326 681 b 385 529 351 625 367 578 l 388 529 b 447 682 406 575 424 628 l 546 903 l 768 903 l 531 508 l 696 508 l 696 410 l 478 410 l 478 321 l 696 321 l 696 222 l 478 222 l 478 0 "},"ƒ":{"ha":771,"x_min":0,"x_max":0,"o":"m 158 572 l 285 572 l 289 617 b 590 918 300 710 351 918 b 706 896 638 918 681 908 l 672 746 b 607 758 656 753 633 758 b 496 633 538 758 504 708 l 488 572 l 629 572 l 629 425 l 469 425 l 439 178 b 164 -126 418 8 361 -126 b 38 -103 107 -125 58 -114 l 67 44 b 132 33 88 36 110 33 b 244 231 201 35 225 72 l 267 425 l 158 425 "},"§":{"ha":779,"x_min":0,"x_max":0,"o":"m 226 476 b 347 368 226 431 264 397 b 511 308 411 344 479 325 b 551 381 535 324 551 351 b 456 481 551 421 524 454 b 276 549 397 503 318 529 b 226 476 247 533 226 508 m 611 781 b 429 819 571 800 511 819 b 304 753 347 819 304 793 b 453 656 304 711 353 686 b 717 413 603 610 717 556 b 615 243 717 339 676 282 b 676 115 642 224 676 178 b 369 -107 676 -54 499 -107 b 110 -46 286 -107 185 -93 l 150 82 b 360 24 190 58 276 24 b 486 96 433 24 486 49 b 339 200 486 142 444 167 b 63 439 192 244 63 300 b 178 608 63 499 100 569 b 122 735 149 632 122 683 b 425 950 122 875 256 950 b 644 908 506 950 581 939 "},"¤":{"ha":771,"x_min":0,"x_max":0,"o":"m 386 764 b 547 715 451 764 506 746 l 654 831 l 746 736 l 625 628 b 669 467 646 592 669 542 b 622 299 669 388 647 335 l 739 186 l 649 94 l 546 215 b 383 161 503 179 439 161 b 222 214 328 161 263 179 l 122 94 l 32 186 l 147 296 b 97 463 122 332 97 386 b 146 628 97 542 122 592 l 25 735 l 118 832 l 225 713 b 386 764 267 746 322 764 m 383 622 b 256 464 311 622 256 560 b 383 301 256 354 325 301 b 513 465 446 301 513 353 b 383 622 513 556 458 622 "},"'":{"ha":285,"x_min":0,"x_max":0,"o":"m 236 951 l 204 575 l 81 575 l 49 951 "},"“":{"ha":631,"x_min":0,"x_max":0,"o":"m 36 564 b 203 940 79 700 139 836 l 331 951 b 233 576 288 833 253 699 m 307 564 b 474 940 350 700 410 836 l 601 951 b 504 576 560 833 524 699 "},"«":{"ha":646,"x_min":0,"x_max":0,"o":"m 179 350 l 344 85 l 197 85 l 36 350 l 197 615 l 344 615 m 449 350 l 614 85 l 467 85 l 306 350 l 467 615 l 614 615 "},"‹":{"ha":375,"x_min":0,"x_max":0,"o":"m 179 350 l 344 85 l 197 85 l 36 350 l 197 615 l 344 615 "},"›":{"ha":375,"x_min":0,"x_max":0,"o":"m 31 615 l 176 615 l 339 350 l 176 85 l 31 85 l 197 350 "},"ﬁ":{"ha":817,"x_min":0,"x_max":0,"o":"m 108 0 l 108 524 l 19 524 l 19 679 l 108 679 l 108 708 b 464 1001 108 896 254 1001 b 664 960 536 1001 622 985 l 624 800 b 469 835 590 818 536 835 b 319 703 358 835 319 778 l 319 679 l 732 679 l 732 0 l 521 0 l 521 524 l 321 524 l 321 0 "},"ﬂ":{"ha":817,"x_min":0,"x_max":0,"o":"m 108 0 l 108 524 l 19 524 l 19 679 l 108 679 l 108 710 b 213 925 108 786 147 872 b 471 1001 278 978 363 1001 b 732 944 572 1001 664 982 l 732 0 l 521 0 l 521 831 b 440 844 504 839 479 844 b 319 707 356 844 319 783 l 319 679 l 442 679 l 442 524 l 321 524 l 321 0 "},"–":{"ha":694,"x_min":0,"x_max":0,"o":"m 653 418 l 653 288 l 42 288 l 42 418 "},"†":{"ha":728,"x_min":0,"x_max":0,"o":"m 460 936 l 442 657 l 679 674 l 679 510 l 442 526 l 460 -69 l 268 -69 l 288 526 l 49 510 l 49 674 l 288 657 l 268 936 "},"‡":{"ha":728,"x_min":0,"x_max":0,"o":"m 458 936 l 443 679 l 679 694 l 679 532 l 443 549 l 443 329 l 679 346 l 679 182 l 443 199 l 458 -69 l 269 -69 l 283 199 l 47 182 l 47 346 l 283 329 l 283 549 l 47 532 l 47 694 l 283 679 l 269 936 "},"·":{"ha":361,"x_min":0,"x_max":0,"o":"m 181 232 b 56 360 107 232 56 286 b 181 489 56 435 108 489 b 306 360 254 489 304 436 b 181 232 306 286 256 232 "},"¶":{"ha":753,"x_min":0,"x_max":0,"o":"m 286 -65 l 286 367 l 276 367 b 43 629 196 367 43 451 b 454 942 43 775 119 942 b 653 926 538 942 610 938 l 653 -65 l 518 -65 l 518 811 l 419 811 l 419 -65 "},"•":{"ha":469,"x_min":0,"x_max":0,"o":"m 235 181 b 54 363 135 181 54 258 b 235 544 51 464 135 544 b 415 363 335 544 415 465 b 235 181 415 260 336 181 "},"‚":{"ha":361,"x_min":0,"x_max":0,"o":"m 22 -144 b 119 229 65 -26 100 108 l 317 243 b 150 -133 274 107 214 -29 "},"„":{"ha":638,"x_min":0,"x_max":0,"o":"m 21 -144 b 118 229 64 -26 99 108 l 315 243 b 149 -133 272 107 213 -29 m 293 -144 b 390 229 335 -26 371 108 l 588 243 b 421 -133 544 107 483 -29 "},"”":{"ha":631,"x_min":0,"x_max":0,"o":"m 329 951 b 163 575 286 815 225 679 l 35 564 b 132 939 76 682 113 817 m 600 951 b 433 575 557 815 497 679 l 306 564 b 403 939 347 682 383 817 "},"»":{"ha":646,"x_min":0,"x_max":0,"o":"m 32 615 l 176 615 l 339 350 l 176 85 l 32 85 l 197 350 m 297 615 l 443 615 l 606 350 l 443 85 l 297 85 l 464 350 "},"…":{"ha":1389,"x_min":0,"x_max":0,"o":"m 231 -15 b 107 113 157 -15 107 39 b 232 242 107 188 158 242 b 356 113 304 242 356 189 b 231 -15 356 39 306 -15 m 694 -15 b 569 113 621 -15 569 39 b 694 242 569 188 622 242 b 819 113 768 242 818 189 b 694 -15 819 39 769 -15 m 1158 -15 b 1033 113 1085 -15 1033 39 b 1158 242 1033 188 1086 242 b 1283 113 1232 242 1282 189 b 1158 -15 1283 39 1233 -15 "},"‰":{"ha":1785,"x_min":0,"x_max":0,"o":"m 940 543 b 1183 275 1096 543 1183 429 b 933 -12 1183 86 1064 -12 b 688 260 797 -12 689 90 b 940 543 688 421 786 543 m 938 428 b 846 265 874 428 846 356 b 938 103 844 171 876 103 b 1026 265 997 103 1026 164 b 938 428 1026 357 1003 428 m 1501 543 b 1744 275 1657 543 1744 429 b 1494 -12 1744 86 1625 -12 b 1249 260 1357 -12 1250 90 b 1501 543 1249 421 1347 543 m 1499 428 b 1406 265 1435 428 1406 356 b 1499 103 1406 171 1438 103 b 1588 265 1558 103 1588 164 b 1499 428 1588 357 1563 428 m 290 918 b 533 650 446 918 533 804 b 283 363 533 461 414 363 b 38 635 146 363 38 465 b 290 918 38 796 136 918 m 286 803 b 194 640 224 803 194 731 b 288 478 194 546 226 478 b 376 640 347 478 376 539 b 286 803 376 732 351 803 m 294 -15 l 813 918 l 926 918 l 407 -15 "},"¿":{"ha":618,"x_min":0,"x_max":0,"o":"m 344 688 b 468 561 418 688 468 635 b 344 435 468 488 419 435 b 219 561 271 435 221 488 b 344 688 219 635 271 688 m 432 361 l 433 326 b 353 113 438 256 414 188 b 271 -29 307 58 271 18 b 372 -111 271 -78 303 -110 b 511 -71 419 -111 474 -96 l 557 -222 b 325 -279 507 -251 424 -279 b 58 -62 142 -279 58 -178 b 178 168 58 44 125 108 b 249 338 228 225 249 274 l 247 361 "},"`":{"ha":417,"x_min":0,"x_max":0,"o":"m 200 975 l 319 764 l 175 764 l 6 975 "},"´":{"ha":417,"x_min":0,"x_max":0,"o":"m 419 975 l 250 764 l 104 764 l 224 975 "},"ˆ":{"ha":417,"x_min":0,"x_max":0,"o":"m 281 975 l 418 764 l 281 764 l 210 885 l 207 885 l 138 764 l 0 764 l 138 975 "},"˜":{"ha":417,"x_min":0,"x_max":0,"o":"m 11 775 b 125 957 7 892 53 957 b 215 929 160 957 188 943 b 274 901 238 915 257 901 b 310 964 296 901 306 914 l 407 964 b 293 785 411 836 367 785 b 197 815 254 785 226 800 b 144 838 172 829 161 838 b 111 775 125 838 113 817 "},"¯":{"ha":417,"x_min":0,"x_max":0,"o":"m 383 924 l 383 808 l 35 808 l 35 924 "},"˘":{"ha":417,"x_min":0,"x_max":0,"o":"m 125 961 b 207 876 132 913 158 876 b 292 961 264 876 289 918 l 401 961 b 207 764 400 844 333 764 b 15 961 78 764 17 850 "},"˙":{"ha":417,"x_min":0,"x_max":0,"o":"m 169 774 b 71 871 113 774 71 818 b 169 969 71 928 114 969 b 264 871 224 969 264 928 b 169 774 264 818 225 774 "},"¨":{"ha":417,"x_min":0,"x_max":0,"o":"m 64 774 b -36 871 7 774 -36 818 b 64 969 -36 928 8 969 b 158 871 117 969 158 928 b 64 774 158 818 118 774 m 356 774 b 257 871 299 774 257 818 b 356 969 257 928 300 969 b 451 871 410 969 451 928 b 356 774 451 818 411 774 "},"˚":{"ha":417,"x_min":0,"x_max":0,"o":"m 197 749 b 36 882 99 749 36 807 b 199 1022 36 960 94 1022 b 354 883 300 1022 354 963 b 197 749 354 807 293 749 m 196 818 b 260 885 238 818 260 849 b 194 953 260 919 238 953 b 133 883 154 953 133 918 b 196 818 133 851 157 818 "},"¸":{"ha":417,"x_min":0,"x_max":0,"o":"m 282 6 l 244 -61 b 344 -161 297 -67 344 -106 b 176 -283 344 -251 265 -283 b 64 -256 132 -283 92 -272 l 92 -176 b 168 -200 117 -190 146 -200 b 217 -164 193 -200 218 -190 b 110 -114 217 -137 186 -119 l 168 6 "},"˝":{"ha":417,"x_min":0,"x_max":0,"o":"m 251 974 l 115 767 l -3 767 l 85 974 m 492 974 l 357 767 l 238 767 l 325 974 "},"˛":{"ha":417,"x_min":0,"x_max":0,"o":"m 226 3 b 192 -99 214 -21 192 -60 b 265 -172 192 -140 219 -172 b 328 -161 292 -172 314 -167 l 357 -260 b 217 -304 319 -289 261 -304 b 60 -157 119 -304 60 -256 b 114 3 60 -92 94 -24 "},"ˇ":{"ha":417,"x_min":0,"x_max":0,"o":"m 136 764 l -1 975 l 136 975 l 207 854 l 210 854 l 279 975 l 418 975 l 279 764 "},"—":{"ha":1389,"x_min":0,"x_max":0,"o":"m 1347 418 l 1347 288 l 42 288 l 42 418 "},"Æ":{"ha":1206,"x_min":0,"x_max":0,"o":"m 3 0 l 403 936 l 1115 936 l 1115 763 l 731 763 l 756 564 l 1110 564 l 1110 392 l 783 392 l 811 174 l 1167 174 l 1167 0 l 629 0 l 596 256 l 324 256 l 221 0 m 572 425 l 544 651 b 528 788 539 693 533 742 l 524 788 b 476 650 508 742 490 690 l 386 425 "},"ª":{"ha":525,"x_min":0,"x_max":0,"o":"m 343 369 l 333 415 l 331 415 b 193 363 299 383 253 363 b 46 499 101 363 46 422 b 319 660 46 606 154 660 l 319 669 b 235 722 319 682 310 722 b 107 688 185 722 138 707 l 79 776 b 263 821 114 797 179 821 b 467 626 414 821 467 729 l 467 478 b 474 369 467 436 468 396 m 325 578 b 188 510 250 578 188 558 b 249 457 188 479 214 457 b 318 499 278 457 307 475 b 325 529 322 508 325 519 "},"Ł":{"ha":718,"x_min":0,"x_max":0,"o":"m 101 0 l 101 326 l -4 256 l -4 401 l 101 474 l 101 936 l 313 936 l 313 614 l 488 732 l 488 585 l 313 467 l 313 178 l 685 178 l 685 0 "},"Ø":{"ha":996,"x_min":0,"x_max":0,"o":"m 100 -3 l 178 115 b 49 467 94 203 49 328 b 500 951 49 742 229 951 b 707 903 576 951 647 935 l 783 1015 l 904 935 l 825 818 b 949 474 907 731 949 606 b 499 -15 949 168 758 -15 b 299 32 425 -15 357 1 l 214 -92 m 608 753 b 500 786 578 774 542 786 b 261 468 350 786 261 653 b 297 297 261 404 272 353 l 299 297 m 396 182 b 499 150 424 161 457 150 b 736 471 646 150 736 281 b 706 629 736 522 726 575 l 701 631 "},"Œ":{"ha":1300,"x_min":0,"x_max":0,"o":"m 1246 0 l 718 0 b 632 -8 693 0 664 -4 b 518 -15 600 -11 563 -15 b 49 460 197 -15 49 207 b 521 951 49 760 239 951 b 647 944 572 951 613 947 b 735 936 682 940 711 936 l 1226 936 l 1226 763 l 861 763 l 861 568 l 1206 568 l 1206 396 l 861 396 l 861 174 l 1246 174 m 650 764 b 540 783 624 776 586 783 b 272 468 394 783 272 674 b 554 153 271 283 374 153 b 650 169 588 153 625 158 "},"º":{"ha":536,"x_min":0,"x_max":0,"o":"m 269 821 b 501 596 413 821 501 725 b 265 363 501 439 386 363 b 32 588 136 363 32 450 b 269 821 32 726 131 821 m 267 718 b 182 590 204 718 182 646 b 268 465 182 522 214 465 b 353 593 322 465 353 518 b 267 718 353 651 324 718 "},"æ":{"ha":1115,"x_min":0,"x_max":0,"o":"m 639 282 b 822 142 643 196 715 142 b 1013 178 907 142 960 156 l 1042 36 b 792 -15 967 -3 876 -15 b 533 106 679 -15 579 28 l 528 106 b 275 -15 475 33 393 -15 b 40 197 126 -15 40 82 b 442 447 40 364 201 449 l 442 467 b 313 549 442 486 419 549 b 131 497 242 549 172 522 l 89 631 b 329 694 139 658 228 694 b 553 585 439 694 513 656 l 557 585 b 789 694 610 654 689 694 b 1074 357 990 694 1074 522 b 1069 282 1074 331 1071 299 m 447 318 b 247 213 335 319 247 289 b 335 133 247 160 288 133 b 442 204 388 133 425 167 b 447 247 447 215 447 231 m 879 424 b 764 557 881 468 861 557 b 638 424 675 557 639 474 "},"ı":{"ha":381,"x_min":0,"x_max":0,"o":"m 85 0 l 85 679 l 296 679 l 296 0 "},"ł":{"ha":399,"x_min":0,"x_max":0,"o":"m 93 0 l 93 318 l 3 247 l 3 397 l 93 469 l 93 986 l 306 986 l 306 626 l 404 706 l 404 554 l 306 475 l 306 0 "},"ø":{"ha":801,"x_min":0,"x_max":0,"o":"m 400 694 b 565 658 461 694 518 683 l 631 754 l 704 703 l 642 610 b 756 342 714 547 756 456 b 401 -15 756 100 578 -15 b 240 21 343 -15 288 -4 l 172 -78 l 103 -22 l 164 68 b 46 339 90 128 46 219 b 400 694 46 553 190 694 m 475 519 b 400 544 454 535 431 544 b 249 340 290 544 249 435 b 274 232 249 303 256 263 l 276 231 m 329 161 b 400 136 349 143 374 136 b 551 336 494 136 551 217 b 531 442 551 369 546 410 l 526 443 "},"œ":{"ha":1206,"x_min":0,"x_max":0,"o":"m 731 276 b 915 142 736 193 817 142 b 1104 178 997 142 1049 157 l 1133 36 b 886 -15 1058 -6 951 -15 b 636 104 788 -15 697 15 l 632 104 b 378 -15 575 22 479 -15 b 46 339 194 -15 46 117 b 392 694 46 553 190 694 b 631 574 489 694 583 654 l 633 574 b 869 694 688 654 774 694 b 1165 356 1086 694 1165 522 b 1160 276 1165 324 1163 289 m 403 544 b 264 339 296 544 264 435 b 400 136 264 225 311 136 b 533 340 486 136 533 217 b 403 544 533 447 493 544 m 969 418 b 851 554 971 467 954 554 b 728 418 765 554 729 472 "},"ß":{"ha":833,"x_min":0,"x_max":0,"o":"m 85 0 l 85 599 b 192 914 85 757 124 851 b 442 1001 251 971 335 1001 b 740 744 610 1001 740 901 b 707 631 740 703 728 657 b 628 535 653 604 628 568 b 675 442 628 501 642 476 b 785 224 722 392 785 329 b 506 -15 785 82 683 -15 b 357 7 454 -15 394 -8 l 383 163 b 479 143 408 151 442 143 b 572 215 539 143 572 175 b 522 310 572 249 557 274 b 415 507 476 357 415 417 b 528 679 415 576 454 640 b 538 728 533 694 538 710 b 429 840 538 792 496 840 b 296 617 351 840 296 785 l 296 0 "},"¹":{"ha":417,"x_min":0,"x_max":0,"o":"m 164 615 l 164 1024 l 161 1024 l 51 975 l 29 1090 l 185 1157 l 326 1157 l 326 615 "},"¬":{"ha":828,"x_min":0,"x_max":0,"o":"m 772 586 l 772 147 l 638 147 l 638 457 l 56 457 l 56 586 "},"µ":{"ha":813,"x_min":0,"x_max":0,"o":"m 539 93 b 371 -10 517 44 458 -10 b 275 31 335 -10 299 4 l 275 -28 b 290 -275 275 -101 279 -222 l 103 -275 b 85 -29 90 -242 85 -129 l 85 679 l 296 679 l 296 300 b 399 154 296 208 331 154 b 508 229 453 154 494 194 b 515 275 513 242 515 258 l 515 679 l 726 679 l 726 221 b 785 143 726 163 744 144 l 772 -3 b 697 -15 756 -11 729 -15 b 543 93 617 -15 564 22 "},"™":{"ha":903,"x_min":0,"x_max":0,"o":"m 368 936 l 368 843 l 260 843 l 260 557 l 144 557 l 144 843 l 38 843 l 38 936 m 776 557 l 769 724 b 768 871 768 765 769 813 l 761 871 b 729 724 750 819 739 765 l 690 564 l 581 564 l 546 725 b 522 871 540 761 531 821 l 515 871 b 513 724 515 819 514 767 l 504 557 l 396 557 l 419 936 l 597 936 l 622 843 b 644 721 629 814 635 783 l 646 721 b 674 843 656 768 664 806 l 701 936 l 867 936 l 888 557 "},"Ð":{"ha":978,"x_min":0,"x_max":0,"o":"m 4 560 l 103 560 l 103 926 b 389 947 181 939 282 947 b 772 849 565 947 682 917 b 929 492 869 776 929 657 b 775 108 929 310 865 185 b 343 -14 676 26 526 -14 b 103 0 233 -14 156 -7 l 103 394 l 4 394 m 500 394 l 314 394 l 314 156 b 388 153 333 153 363 153 b 706 485 582 153 706 256 b 410 783 706 688 593 783 b 314 775 364 783 333 779 l 314 560 l 500 560 "},"½":{"ha":1154,"x_min":0,"x_max":0,"o":"m 167 369 l 167 779 l 164 779 l 54 731 l 32 844 l 188 911 l 329 911 l 329 369 m 207 -15 l 719 918 l 835 918 l 322 -15 m 674 78 l 758 156 b 921 356 864 249 921 296 b 839 422 921 394 890 422 b 719 383 793 422 750 404 l 676 489 b 879 549 722 522 796 549 b 1090 381 1018 549 1090 475 b 932 150 1090 282 1014 218 l 899 124 l 899 121 l 1101 121 l 1101 0 l 674 0 "},"±":{"ha":828,"x_min":0,"x_max":0,"o":"m 482 804 l 482 564 l 772 564 l 772 435 l 482 435 l 482 190 l 346 190 l 346 435 l 56 435 l 56 564 l 346 564 l 346 804 m 772 129 l 772 0 l 56 0 l 56 129 "},"Þ":{"ha":806,"x_min":0,"x_max":0,"o":"m 92 936 l 301 936 l 301 768 b 415 772 326 771 357 772 b 672 699 525 772 610 751 b 763 496 729 650 763 578 b 396 178 763 267 596 178 b 301 183 351 178 319 181 l 301 0 l 92 0 m 301 349 b 388 342 322 344 353 342 b 554 479 501 342 554 399 b 393 613 554 565 494 613 b 301 606 347 613 317 608 "},"¼":{"ha":1154,"x_min":0,"x_max":0,"o":"m 183 369 l 183 779 l 182 779 l 71 731 l 49 844 l 204 911 l 346 911 l 346 369 m 240 -15 l 753 918 l 868 918 l 356 -15 m 881 0 l 881 125 l 614 125 l 614 214 l 844 546 l 1032 546 l 1032 229 l 1103 229 l 1103 125 l 1032 125 l 1032 0 m 881 331 b 886 433 881 365 885 400 l 883 435 b 833 342 865 400 850 368 l 760 231 l 763 229 l 881 229 "},"÷":{"ha":828,"x_min":0,"x_max":0,"o":"m 414 513 b 313 614 353 513 313 554 b 414 718 313 678 354 718 b 515 614 475 718 514 678 b 414 513 515 554 476 513 m 56 306 l 56 436 l 772 436 l 772 306 m 414 24 b 313 126 353 24 313 65 b 414 229 313 189 354 229 b 515 126 475 229 514 189 b 414 24 515 65 476 24 "},"¦":{"ha":393,"x_min":0,"x_max":0,"o":"m 269 242 l 269 -244 l 122 -244 l 122 242 m 269 936 l 269 450 l 122 450 l 122 936 "},"°":{"ha":494,"x_min":0,"x_max":0,"o":"m 249 951 b 460 749 374 951 460 858 b 247 543 460 629 361 543 b 38 744 125 543 38 633 b 249 951 36 860 131 951 m 249 854 b 149 746 188 854 149 803 b 249 640 149 686 192 640 b 347 747 306 640 347 686 b 249 854 347 801 313 854 "},"þ":{"ha":831,"x_min":0,"x_max":0,"o":"m 296 986 l 296 596 l 299 596 b 501 694 339 656 407 694 b 783 346 647 699 783 571 b 478 -15 783 94 618 -15 b 299 64 394 -15 333 18 l 296 64 l 296 -275 l 85 -275 l 85 986 m 296 278 b 315 213 296 258 303 229 b 425 147 336 174 378 147 b 569 343 513 147 569 222 b 431 529 569 449 518 529 b 310 451 378 529 332 501 b 296 394 303 438 296 413 "},"¾":{"ha":1154,"x_min":0,"x_max":0,"o":"m 58 874 b 253 918 99 899 172 918 b 454 781 388 918 454 857 b 340 658 454 721 407 678 l 340 656 b 475 528 417 647 475 599 b 224 363 475 431 376 363 b 38 401 149 363 76 379 l 68 510 b 204 474 97 494 154 474 b 304 536 263 474 304 500 b 183 606 304 583 246 606 l 142 606 l 142 700 l 181 700 b 288 758 228 700 288 715 b 215 807 288 786 267 807 b 89 774 165 807 115 788 m 285 -15 l 797 918 l 913 918 l 399 -15 m 894 0 l 894 125 l 628 125 l 628 214 l 857 546 l 1044 546 l 1044 229 l 1117 229 l 1117 125 l 1044 125 l 1044 0 m 894 331 b 900 433 894 365 899 400 l 896 435 b 847 342 879 400 864 368 l 774 231 l 776 229 l 894 229 "},"²":{"ha":489,"x_min":0,"x_max":0,"o":"m 21 693 l 106 769 b 268 969 211 864 268 910 b 186 1038 268 1010 238 1038 b 67 999 140 1038 97 1019 l 25 1104 b 226 1164 71 1136 143 1164 b 439 996 365 1164 439 1090 b 279 765 439 896 363 833 l 246 738 l 246 735 l 449 735 l 449 615 l 21 615 "},"®":{"ha":638,"x_min":0,"x_max":0,"o":"m 289 599 l 221 599 l 221 819 b 318 826 236 822 272 826 b 407 810 368 826 390 819 b 431 761 421 800 431 783 b 379 711 431 739 410 719 l 379 708 b 425 651 404 700 418 683 b 440 599 432 619 436 607 l 364 599 b 349 646 357 607 353 626 b 311 679 344 668 333 679 l 289 679 m 292 725 l 311 725 b 353 751 336 725 353 735 b 314 779 353 769 338 779 b 292 778 306 779 297 778 m 319 951 b 565 713 457 951 565 844 b 319 472 565 579 457 472 b 72 713 182 472 72 579 b 319 951 72 844 182 951 m 318 892 b 146 711 219 892 146 811 b 319 532 146 611 219 532 b 493 713 419 532 493 611 b 318 892 493 811 419 892 "},"−":{"ha":828,"x_min":0,"x_max":0,"o":"m 772 436 l 772 306 l 56 306 l 56 436 "},"ð":{"ha":797,"x_min":0,"x_max":0,"o":"m 399 136 b 533 336 486 136 533 218 b 500 483 533 408 524 454 b 401 529 478 511 446 529 b 264 331 297 529 264 415 b 399 136 264 225 311 136 m 111 747 l 257 813 b 126 879 217 839 172 860 l 218 997 b 438 886 292 971 368 932 l 629 969 l 671 888 l 524 825 b 694 615 596 768 654 697 b 751 357 733 540 751 453 b 397 -15 751 100 576 -15 b 46 329 199 -15 46 117 b 375 658 46 533 199 658 b 467 631 407 658 436 651 l 469 633 b 349 750 436 678 396 718 l 149 664 "},"×":{"ha":828,"x_min":0,"x_max":0,"o":"m 146 731 l 414 457 l 682 731 l 772 638 l 506 365 l 772 93 l 681 0 l 414 272 l 147 0 l 56 93 l 322 365 l 56 638 "},"³":{"ha":482,"x_min":0,"x_max":0,"o":"m 35 1119 b 229 1164 75 1143 149 1164 b 431 1026 363 1164 431 1103 b 315 903 431 967 382 922 l 315 900 b 450 772 392 892 450 843 b 200 608 450 675 353 608 b 13 647 125 608 53 624 l 44 754 b 181 718 74 739 131 718 b 279 782 239 718 281 744 b 160 851 279 828 221 851 l 118 851 l 118 946 l 157 946 b 264 1003 203 946 264 960 b 190 1053 264 1031 242 1053 b 65 1018 142 1053 92 1033 "},"©":{"ha":940,"x_min":0,"x_max":0,"o":"m 472 900 b 896 472 710 900 896 708 b 472 42 896 233 710 42 b 44 472 233 42 44 233 b 472 900 44 708 233 900 m 471 821 b 135 471 285 821 135 665 b 471 121 135 276 285 121 b 806 471 656 121 806 276 b 471 821 806 665 656 821 m 638 610 b 506 640 621 619 567 640 b 333 468 399 640 333 576 b 504 294 333 367 401 294 b 643 329 561 294 613 308 l 664 257 b 492 213 615 225 553 213 b 235 464 329 213 235 322 b 506 722 235 624 363 722 b 658 683 572 722 640 703 "},"Á":{"ha":911,"x_min":0,"x_max":0,"o":"m 310 240 l 243 0 l 24 0 l 310 936 l 588 936 l 878 0 l 650 0 l 578 240 m 547 399 l 489 597 b 442 778 472 653 456 722 l 439 778 b 396 597 425 722 411 651 l 340 399 m 690 1157 l 521 986 l 351 986 l 468 1157 "},"Â":{"ha":911,"x_min":0,"x_max":0,"o":"m 310 240 l 243 0 l 24 0 l 310 936 l 588 936 l 878 0 l 650 0 l 578 240 m 547 399 l 489 597 b 442 778 472 653 456 722 l 439 778 b 396 597 425 722 411 651 l 340 399 m 535 1157 l 675 986 l 526 986 l 457 1072 l 454 1072 l 385 986 l 238 986 l 376 1157 "},"Ä":{"ha":911,"x_min":0,"x_max":0,"o":"m 310 240 l 243 0 l 24 0 l 310 936 l 588 936 l 878 0 l 650 0 l 578 240 m 547 399 l 489 597 b 442 778 472 653 456 722 l 439 778 b 396 597 425 722 411 651 l 340 399 m 317 989 b 221 1085 263 989 221 1033 b 317 1179 221 1139 263 1179 b 408 1085 368 1179 408 1139 b 317 989 408 1033 369 989 m 604 989 b 510 1085 550 989 510 1033 b 604 1179 510 1139 550 1179 b 697 1085 658 1179 697 1139 b 604 989 697 1033 658 989 "},"À":{"ha":911,"x_min":0,"x_max":0,"o":"m 310 240 l 243 0 l 24 0 l 310 936 l 588 936 l 878 0 l 650 0 l 578 240 m 547 399 l 489 597 b 442 778 472 653 456 722 l 439 778 b 396 597 425 722 411 651 l 340 399 m 435 1157 l 551 989 l 382 989 l 213 1157 "},"Å":{"ha":911,"x_min":0,"x_max":0,"o":"m 310 240 l 243 0 l 24 0 l 310 936 l 588 936 l 878 0 l 650 0 l 578 240 m 547 399 l 489 597 b 442 778 472 653 456 722 l 439 778 b 396 597 425 722 411 651 l 340 399 m 451 1247 b 610 1110 557 1247 610 1186 b 451 975 610 1035 551 975 b 290 1108 350 975 290 1035 b 451 1247 290 1183 347 1247 m 449 1176 b 389 1108 408 1176 389 1143 b 449 1046 389 1076 411 1046 b 511 1110 489 1046 511 1074 b 449 1176 511 1144 489 1176 "},"Ã":{"ha":911,"x_min":0,"x_max":0,"o":"m 310 240 l 243 0 l 24 0 l 310 936 l 588 936 l 878 0 l 650 0 l 578 240 m 547 399 l 489 597 b 442 778 472 653 456 722 l 439 778 b 396 597 425 722 411 651 l 340 399 m 265 993 b 372 1169 261 1110 306 1169 b 461 1142 410 1169 435 1157 b 522 1115 483 1128 504 1115 b 560 1175 546 1115 554 1129 l 654 1175 b 544 1001 658 1050 618 1001 b 454 1028 507 1001 479 1014 b 396 1053 431 1040 414 1053 b 363 993 378 1053 365 1032 "},"Ç":{"ha":826,"x_min":0,"x_max":0,"o":"m 779 26 b 556 -14 742 8 661 -12 l 532 -61 b 633 -175 586 -74 633 -110 b 468 -303 633 -271 547 -303 b 349 -276 426 -303 381 -294 l 376 -190 b 454 -210 397 -201 429 -210 b 504 -176 482 -210 504 -200 b 394 -124 504 -147 472 -132 l 447 -8 b 49 454 183 26 49 214 b 560 951 49 774 276 951 b 790 910 669 951 753 929 l 747 742 b 569 776 704 760 644 776 b 271 467 401 776 271 675 b 571 161 271 279 382 161 b 747 192 635 161 706 175 "},"É":{"ha":742,"x_min":0,"x_max":0,"o":"m 649 396 l 304 396 l 304 174 l 689 174 l 689 0 l 92 0 l 92 936 l 669 936 l 669 763 l 304 763 l 304 568 l 649 568 m 624 1157 l 453 986 l 285 986 l 401 1157 "},"Ê":{"ha":742,"x_min":0,"x_max":0,"o":"m 649 396 l 304 396 l 304 174 l 689 174 l 689 0 l 92 0 l 92 936 l 669 936 l 669 763 l 304 763 l 304 568 l 649 568 m 465 1157 l 607 986 l 458 986 l 388 1072 l 385 1072 l 315 986 l 168 986 l 307 1157 "},"Ë":{"ha":742,"x_min":0,"x_max":0,"o":"m 649 396 l 304 396 l 304 174 l 689 174 l 689 0 l 92 0 l 92 936 l 669 936 l 669 763 l 304 763 l 304 568 l 649 568 m 235 990 b 138 1085 179 990 138 1033 b 235 1181 138 1139 181 1181 b 325 1085 286 1181 325 1139 b 235 990 325 1033 286 990 m 522 990 b 426 1085 467 990 426 1033 b 522 1181 426 1139 468 1181 b 615 1085 575 1181 615 1139 b 522 990 615 1033 575 990 "},"È":{"ha":742,"x_min":0,"x_max":0,"o":"m 649 396 l 304 396 l 304 174 l 689 174 l 689 0 l 92 0 l 92 936 l 669 936 l 669 763 l 304 763 l 304 568 l 649 568 m 376 1157 l 493 989 l 324 989 l 154 1157 "},"Í":{"ha":396,"x_min":0,"x_max":0,"o":"m 304 936 l 304 0 l 92 0 l 92 936 m 435 1157 l 264 986 l 94 986 l 213 1157 "},"Î":{"ha":396,"x_min":0,"x_max":0,"o":"m 304 936 l 304 0 l 92 0 l 92 936 m 276 1157 l 417 986 l 268 986 l 199 1072 l 196 1072 l 126 986 l -21 986 l 118 1157 "},"Ï":{"ha":396,"x_min":0,"x_max":0,"o":"m 304 936 l 304 0 l 92 0 l 92 936 m 56 990 b -40 1085 0 990 -40 1033 b 56 1181 -40 1139 1 1181 b 147 1085 107 1181 147 1139 b 56 990 147 1033 107 990 m 343 990 b 249 1085 288 990 249 1033 b 343 1181 249 1139 289 1181 b 436 1085 396 1181 436 1139 b 343 990 436 1033 397 990 "},"Ì":{"ha":396,"x_min":0,"x_max":0,"o":"m 304 936 l 304 0 l 92 0 l 92 936 m 183 1157 l 300 989 l 132 989 l -39 1157 "},"Ñ":{"ha":958,"x_min":0,"x_max":0,"o":"m 92 0 l 92 936 l 339 936 l 533 593 b 686 272 589 494 644 378 l 690 272 b 672 663 676 396 672 522 l 672 936 l 867 936 l 867 0 l 644 0 l 444 361 b 282 692 389 461 328 582 l 278 690 b 286 282 283 567 286 435 l 286 0 m 288 993 b 396 1169 285 1110 328 1169 b 483 1142 432 1169 458 1157 b 544 1115 507 1128 528 1115 b 582 1175 568 1115 578 1129 l 678 1175 b 568 1001 681 1050 640 1001 b 478 1028 531 1001 503 1014 b 418 1053 453 1040 438 1053 b 385 993 401 1053 389 1032 "},"Ó":{"ha":996,"x_min":0,"x_max":0,"o":"m 504 951 b 949 478 792 951 949 736 b 489 -15 949 171 763 -15 b 49 461 211 -15 49 194 b 504 951 49 742 228 951 m 499 783 b 272 465 356 783 272 647 b 500 153 272 282 358 153 b 725 471 643 153 725 289 b 499 783 725 639 644 783 m 740 1158 l 571 988 l 401 988 l 518 1158 "},"Ô":{"ha":996,"x_min":0,"x_max":0,"o":"m 504 951 b 949 478 792 951 949 736 b 489 -15 949 171 763 -15 b 49 461 211 -15 49 194 b 504 951 49 742 228 951 m 499 783 b 272 465 356 783 272 647 b 500 153 272 282 358 153 b 725 471 643 153 725 289 b 499 783 725 639 644 783 m 578 1157 l 718 988 l 569 988 l 500 1074 l 497 1074 l 428 988 l 279 988 l 419 1157 "},"Ö":{"ha":996,"x_min":0,"x_max":0,"o":"m 504 951 b 949 478 792 951 949 736 b 489 -15 949 171 763 -15 b 49 461 211 -15 49 194 b 504 951 49 742 228 951 m 499 783 b 272 465 356 783 272 647 b 500 153 272 282 358 153 b 725 471 643 153 725 289 b 499 783 725 639 644 783 m 356 990 b 260 1085 301 990 260 1033 b 356 1181 260 1139 301 1181 b 447 1085 407 1181 447 1139 b 356 990 447 1033 408 990 m 643 990 b 549 1085 588 990 549 1033 b 643 1181 549 1139 589 1181 b 736 1085 697 1181 736 1139 b 643 990 736 1033 697 990 "},"Ò":{"ha":996,"x_min":0,"x_max":0,"o":"m 504 951 b 949 478 792 951 949 736 b 489 -15 949 171 763 -15 b 49 461 211 -15 49 194 b 504 951 49 742 228 951 m 499 783 b 272 465 356 783 272 647 b 500 153 272 282 358 153 b 725 471 643 153 725 289 b 499 783 725 639 644 783 m 483 1158 l 600 990 l 432 990 l 261 1158 "},"Õ":{"ha":996,"x_min":0,"x_max":0,"o":"m 504 951 b 949 478 792 951 949 736 b 489 -15 949 171 763 -15 b 49 461 211 -15 49 194 b 504 951 49 742 228 951 m 499 783 b 272 465 356 783 272 647 b 500 153 272 282 358 153 b 725 471 643 153 725 289 b 499 783 725 639 644 783 m 304 992 b 411 1169 300 1110 344 1169 b 500 1142 449 1169 474 1156 b 561 1115 522 1128 543 1115 b 599 1174 583 1115 593 1128 l 693 1174 b 583 1001 697 1050 657 1001 b 493 1026 546 1001 518 1014 b 435 1051 469 1040 453 1051 b 401 992 417 1051 404 1032 "},"Š":{"ha":750,"x_min":0,"x_max":0,"o":"m 99 218 b 333 160 156 189 243 160 b 482 261 431 160 482 200 b 325 393 482 319 438 353 b 68 669 169 447 68 533 b 422 951 68 829 201 951 b 661 904 528 951 606 929 l 614 733 b 418 778 576 751 510 778 b 282 688 326 778 282 736 b 456 556 282 628 335 601 b 699 276 621 494 699 408 b 321 -14 699 119 578 -14 b 56 43 214 -14 108 14 m 308 988 l 168 1157 l 317 1157 l 388 1071 l 390 1071 l 460 1157 l 607 1157 l 468 988 "},"Ú":{"ha":947,"x_min":0,"x_max":0,"o":"m 303 936 l 303 397 b 472 154 303 236 364 154 b 644 397 583 154 644 232 l 644 936 l 856 936 l 856 411 b 465 -15 856 122 710 -15 b 90 414 229 -15 90 115 l 90 936 m 706 1157 l 536 986 l 367 986 l 483 1157 "},"Û":{"ha":947,"x_min":0,"x_max":0,"o":"m 303 936 l 303 397 b 472 154 303 236 364 154 b 644 397 583 154 644 232 l 644 936 l 856 936 l 856 411 b 465 -15 856 122 710 -15 b 90 414 229 -15 90 115 l 90 936 m 567 1157 l 707 986 l 558 986 l 489 1072 l 486 1072 l 417 986 l 269 986 l 408 1157 "},"Ü":{"ha":947,"x_min":0,"x_max":0,"o":"m 303 936 l 303 397 b 472 154 303 236 364 154 b 644 397 583 154 644 232 l 644 936 l 856 936 l 856 411 b 465 -15 856 122 710 -15 b 90 414 229 -15 90 115 l 90 936 m 339 990 b 243 1085 283 990 243 1033 b 339 1181 243 1139 285 1181 b 431 1085 390 1181 431 1139 b 339 990 431 1033 392 990 m 626 990 b 532 1085 571 990 532 1033 b 626 1181 532 1139 572 1181 b 719 1085 679 1181 719 1139 b 626 990 719 1033 681 990 "},"Ù":{"ha":947,"x_min":0,"x_max":0,"o":"m 303 936 l 303 397 b 472 154 303 236 364 154 b 644 397 583 154 644 232 l 644 936 l 856 936 l 856 411 b 465 -15 856 122 710 -15 b 90 414 229 -15 90 115 l 90 936 m 464 1157 l 581 989 l 411 989 l 242 1157 "},"Ý":{"ha":838,"x_min":0,"x_max":0,"o":"m 308 0 l 308 383 l 13 936 l 254 936 l 350 711 b 422 532 379 643 399 593 l 425 532 b 496 711 446 590 468 644 l 590 936 l 828 936 l 519 390 l 519 0 m 665 1156 l 496 983 l 326 983 l 443 1156 "},"Ÿ":{"ha":838,"x_min":0,"x_max":0,"o":"m 308 0 l 308 383 l 13 936 l 254 936 l 350 711 b 422 532 379 643 399 593 l 425 532 b 496 711 446 590 468 644 l 590 936 l 828 936 l 519 390 l 519 0 m 288 988 b 192 1082 233 988 192 1031 b 289 1178 192 1136 235 1178 b 379 1082 340 1178 379 1136 b 288 988 379 1031 340 988 m 576 988 b 481 1082 521 988 481 1031 b 576 1178 481 1136 521 1178 b 669 1082 629 1178 669 1136 b 576 988 669 1031 629 988 "},"Ž":{"ha":801,"x_min":0,"x_max":0,"o":"m 32 114 l 478 756 l 478 761 l 74 761 l 74 936 l 753 936 l 753 814 l 317 181 l 317 175 l 760 175 l 760 0 l 32 0 m 331 986 l 190 1157 l 339 1157 l 408 1069 l 411 1069 l 481 1157 l 629 1157 l 489 986 "},"á":{"ha":733,"x_min":0,"x_max":0,"o":"m 471 0 l 458 68 l 454 68 b 260 -15 410 14 340 -15 b 40 193 122 -15 40 85 b 439 453 40 369 199 454 l 439 463 b 315 550 439 499 419 550 b 128 499 246 550 172 526 l 89 635 b 353 694 136 661 229 694 b 651 401 579 694 651 561 l 651 165 b 661 0 651 100 654 38 m 446 321 b 249 214 335 322 249 296 b 332 133 249 160 285 133 b 442 211 385 133 428 168 b 446 247 444 222 446 235 m 586 975 l 417 764 l 271 764 l 390 975 "},"â":{"ha":733,"x_min":0,"x_max":0,"o":"m 471 0 l 458 68 l 454 68 b 260 -15 410 14 340 -15 b 40 193 122 -15 40 85 b 439 453 40 369 199 454 l 439 463 b 315 550 439 499 419 550 b 128 499 246 550 172 526 l 89 635 b 353 694 136 661 229 694 b 651 401 579 694 651 561 l 651 165 b 661 0 651 100 654 38 m 446 321 b 249 214 335 322 249 296 b 332 133 249 160 285 133 b 442 211 385 133 428 168 b 446 247 444 222 446 235 m 433 975 l 571 764 l 433 764 l 364 885 l 361 885 l 290 764 l 153 764 l 292 975 "},"ä":{"ha":733,"x_min":0,"x_max":0,"o":"m 471 0 l 458 68 l 454 68 b 260 -15 410 14 340 -15 b 40 193 122 -15 40 85 b 439 453 40 369 199 454 l 439 463 b 315 550 439 499 419 550 b 128 499 246 550 172 526 l 89 635 b 353 694 136 661 229 694 b 651 401 579 694 651 561 l 651 165 b 661 0 651 100 654 38 m 446 321 b 249 214 335 322 249 296 b 332 133 249 160 285 133 b 442 211 385 133 428 168 b 446 247 444 222 446 235 m 222 774 b 122 871 165 774 122 818 b 222 969 122 928 167 969 b 317 871 275 969 317 928 b 222 774 317 818 276 774 m 514 774 b 415 871 457 774 415 818 b 514 969 415 928 458 969 b 610 871 568 969 610 928 b 514 774 610 818 569 774 "},"à":{"ha":733,"x_min":0,"x_max":0,"o":"m 471 0 l 458 68 l 454 68 b 260 -15 410 14 340 -15 b 40 193 122 -15 40 85 b 439 453 40 369 199 454 l 439 463 b 315 550 439 499 419 550 b 128 499 246 550 172 526 l 89 635 b 353 694 136 661 229 694 b 651 401 579 694 651 561 l 651 165 b 661 0 651 100 654 38 m 446 321 b 249 214 335 322 249 296 b 332 133 249 160 285 133 b 442 211 385 133 428 168 b 446 247 444 222 446 235 m 335 975 l 454 764 l 310 764 l 139 975 "},"å":{"ha":733,"x_min":0,"x_max":0,"o":"m 471 0 l 458 68 l 454 68 b 260 -15 410 14 340 -15 b 40 193 122 -15 40 85 b 439 453 40 369 199 454 l 439 463 b 315 550 439 499 419 550 b 128 499 246 550 172 526 l 89 635 b 353 694 136 661 229 694 b 651 401 579 694 651 561 l 651 165 b 661 0 651 100 654 38 m 446 321 b 249 214 335 322 249 296 b 332 133 249 160 285 133 b 442 211 385 133 428 168 b 446 247 444 222 446 235 m 369 749 b 208 882 271 749 208 807 b 371 1022 208 960 267 1022 b 526 883 472 1022 526 963 b 369 749 526 807 465 749 m 368 818 b 432 885 410 818 432 849 b 367 953 432 919 410 953 b 306 883 326 953 306 918 b 368 818 306 851 329 818 "},"ã":{"ha":733,"x_min":0,"x_max":0,"o":"m 471 0 l 458 68 l 454 68 b 260 -15 410 14 340 -15 b 40 193 122 -15 40 85 b 439 453 40 369 199 454 l 439 463 b 315 550 439 499 419 550 b 128 499 246 550 172 526 l 89 635 b 353 694 136 661 229 694 b 651 401 579 694 651 561 l 651 165 b 661 0 651 100 654 38 m 446 321 b 249 214 335 322 249 296 b 332 133 249 160 285 133 b 442 211 385 133 428 168 b 446 247 444 222 446 235 m 157 775 b 271 957 153 892 200 957 b 361 929 306 957 333 943 b 419 901 383 915 403 901 b 456 964 443 901 453 914 l 553 964 b 439 785 557 836 513 785 b 343 815 400 785 372 800 b 290 838 318 829 308 838 b 257 775 271 838 258 817 "},"ç":{"ha":626,"x_min":0,"x_max":0,"o":"m 594 17 b 439 -12 563 3 506 -10 l 413 -61 b 513 -161 465 -67 513 -106 b 344 -283 513 -251 433 -283 b 232 -256 300 -283 260 -272 l 260 -176 b 336 -200 285 -190 314 -200 b 385 -164 361 -200 386 -190 b 278 -114 385 -137 354 -119 l 329 -8 b 46 333 154 19 46 146 b 435 694 46 532 182 694 b 596 668 490 694 551 685 l 563 511 b 444 532 538 522 500 532 b 263 342 333 532 261 453 b 449 151 263 217 346 151 b 569 172 499 151 538 160 "},"é":{"ha":733,"x_min":0,"x_max":0,"o":"m 247 272 b 439 143 254 185 340 143 b 626 171 511 143 569 153 l 654 28 b 408 -14 585 0 500 -14 b 46 332 178 -14 46 119 b 389 694 46 504 153 694 b 692 356 608 694 692 524 b 685 272 692 319 688 288 m 496 417 b 376 554 496 468 474 554 b 246 417 288 554 251 474 m 613 975 l 443 764 l 297 764 l 417 975 "},"ê":{"ha":733,"x_min":0,"x_max":0,"o":"m 247 272 b 439 143 254 185 340 143 b 626 171 511 143 569 153 l 654 28 b 408 -14 585 0 500 -14 b 46 332 178 -14 46 119 b 389 694 46 504 153 694 b 692 356 608 694 692 524 b 685 272 692 319 688 288 m 496 417 b 376 554 496 468 474 554 b 246 417 288 554 251 474 m 453 975 l 590 764 l 453 764 l 383 885 l 381 885 l 311 764 l 172 764 l 311 975 "},"ë":{"ha":733,"x_min":0,"x_max":0,"o":"m 247 272 b 439 143 254 185 340 143 b 626 171 511 143 569 153 l 654 28 b 408 -14 585 0 500 -14 b 46 332 178 -14 46 119 b 389 694 46 504 153 694 b 692 356 608 694 692 524 b 685 272 692 319 688 288 m 496 417 b 376 554 496 468 474 554 b 246 417 288 554 251 474 m 244 774 b 144 871 188 774 144 818 b 244 969 144 928 189 969 b 339 871 297 969 339 928 b 244 774 339 818 299 774 m 536 774 b 438 871 479 774 438 818 b 536 969 438 928 481 969 b 632 871 590 969 632 928 b 536 774 632 818 592 774 "},"è":{"ha":733,"x_min":0,"x_max":0,"o":"m 247 272 b 439 143 254 185 340 143 b 626 171 511 143 569 153 l 654 28 b 408 -14 585 0 500 -14 b 46 332 178 -14 46 119 b 389 694 46 504 153 694 b 692 356 608 694 692 524 b 685 272 692 319 688 288 m 496 417 b 376 554 496 468 474 554 b 246 417 288 554 251 474 m 361 975 l 481 764 l 336 764 l 167 975 "},"í":{"ha":381,"x_min":0,"x_max":0,"o":"m 85 0 l 85 679 l 296 679 l 296 0 m 415 975 l 246 764 l 100 764 l 219 975 "},"î":{"ha":381,"x_min":0,"x_max":0,"o":"m 85 0 l 85 679 l 296 679 l 296 0 m 261 975 l 400 764 l 263 764 l 192 885 l 189 885 l 119 764 l -18 764 l 119 975 "},"ï":{"ha":381,"x_min":0,"x_max":0,"o":"m 85 0 l 85 679 l 296 679 l 296 0 m 46 774 b -54 871 -11 774 -54 818 b 46 969 -54 928 -10 969 b 140 871 99 969 140 928 b 46 774 140 818 100 774 m 338 774 b 239 871 281 774 239 818 b 338 969 239 928 282 969 b 433 871 392 969 433 928 b 338 774 433 818 393 774 "},"ì":{"ha":381,"x_min":0,"x_max":0,"o":"m 85 0 l 85 679 l 296 679 l 296 0 m 153 975 l 272 764 l 128 764 l -42 975 "},"ñ":{"ha":814,"x_min":0,"x_max":0,"o":"m 85 463 b 79 679 85 547 82 619 l 263 679 l 272 586 l 276 586 b 486 694 304 629 374 694 b 729 403 625 694 729 603 l 729 0 l 518 0 l 518 376 b 411 524 518 464 488 524 b 304 444 353 524 318 483 b 296 392 299 432 296 411 l 296 0 l 85 0 m 211 775 b 325 957 207 892 253 957 b 415 929 360 957 388 943 b 474 901 438 915 457 901 b 510 964 496 901 506 914 l 607 964 b 493 785 611 836 567 785 b 397 815 454 785 426 800 b 344 838 372 829 361 838 b 311 775 325 838 313 817 "},"ó":{"ha":801,"x_min":0,"x_max":0,"o":"m 408 694 b 756 347 617 694 756 551 b 397 -15 756 99 579 -15 b 46 335 199 -15 46 115 b 408 694 46 554 190 694 m 403 544 b 264 340 301 544 264 440 b 403 136 264 224 313 136 b 538 340 485 136 538 218 b 403 544 538 442 499 544 m 622 975 l 453 764 l 307 764 l 426 975 "},"ô":{"ha":801,"x_min":0,"x_max":0,"o":"m 408 694 b 756 347 617 694 756 551 b 397 -15 756 99 579 -15 b 46 335 199 -15 46 115 b 408 694 46 554 190 694 m 403 544 b 264 340 301 544 264 440 b 403 136 264 224 313 136 b 538 340 485 136 538 218 b 403 544 538 442 499 544 m 472 975 l 610 764 l 472 764 l 403 885 l 400 885 l 331 764 l 192 764 l 331 975 "},"ö":{"ha":801,"x_min":0,"x_max":0,"o":"m 408 694 b 756 347 617 694 756 551 b 397 -15 756 99 579 -15 b 46 335 199 -15 46 115 b 408 694 46 554 190 694 m 403 544 b 264 340 301 544 264 440 b 403 136 264 224 313 136 b 538 340 485 136 538 218 b 403 544 538 442 499 544 m 256 774 b 156 871 199 774 156 818 b 256 969 156 928 200 969 b 350 871 308 969 350 928 b 256 774 350 818 310 774 m 547 774 b 449 871 490 774 449 818 b 547 969 449 928 492 969 b 643 871 601 969 643 928 b 547 774 643 818 603 774 "},"ò":{"ha":801,"x_min":0,"x_max":0,"o":"m 408 694 b 756 347 617 694 756 551 b 397 -15 756 99 579 -15 b 46 335 199 -15 46 115 b 408 694 46 554 190 694 m 403 544 b 264 340 301 544 264 440 b 403 136 264 224 313 136 b 538 340 485 136 538 218 b 403 544 538 442 499 544 m 379 975 l 499 764 l 354 764 l 185 975 "},"õ":{"ha":801,"x_min":0,"x_max":0,"o":"m 408 694 b 756 347 617 694 756 551 b 397 -15 756 99 579 -15 b 46 335 199 -15 46 115 b 408 694 46 554 190 694 m 403 544 b 264 340 301 544 264 440 b 403 136 264 224 313 136 b 538 340 485 136 538 218 b 403 544 538 442 499 544 m 203 775 b 317 957 199 892 244 957 b 407 929 351 957 379 943 b 465 901 429 915 449 901 b 501 964 488 901 497 914 l 599 964 b 485 785 603 836 558 785 b 389 815 446 785 418 800 b 336 838 364 829 353 838 b 303 775 317 838 304 817 "},"š":{"ha":603,"x_min":0,"x_max":0,"o":"m 83 185 b 265 133 122 161 203 133 b 356 190 329 133 356 156 b 256 268 356 225 335 242 b 63 472 115 315 61 392 b 339 694 63 599 171 694 b 531 656 418 694 489 676 l 493 510 b 346 549 463 526 404 549 b 265 493 294 549 265 528 b 375 415 265 461 292 444 b 560 206 504 371 558 306 b 265 -14 560 79 460 -14 b 46 33 176 -14 97 6 m 233 764 l 96 975 l 233 975 l 304 854 l 307 854 l 376 975 l 515 975 l 376 764 "},"ú":{"ha":810,"x_min":0,"x_max":0,"o":"m 725 218 b 731 0 725 129 728 57 l 547 0 l 538 96 l 533 96 b 321 -15 507 54 443 -15 b 82 281 183 -15 82 71 l 82 679 l 294 679 l 294 314 b 400 156 294 215 326 156 b 506 229 458 156 492 196 b 513 275 511 242 513 258 l 513 679 l 725 679 m 633 975 l 464 764 l 318 764 l 438 975 "},"û":{"ha":810,"x_min":0,"x_max":0,"o":"m 725 218 b 731 0 725 129 728 57 l 547 0 l 538 96 l 533 96 b 321 -15 507 54 443 -15 b 82 281 183 -15 82 71 l 82 679 l 294 679 l 294 314 b 400 156 294 215 326 156 b 506 229 458 156 492 196 b 513 275 511 242 513 258 l 513 679 l 725 679 m 476 975 l 614 764 l 476 764 l 407 885 l 404 885 l 335 764 l 197 764 l 335 975 "},"ü":{"ha":810,"x_min":0,"x_max":0,"o":"m 725 218 b 731 0 725 129 728 57 l 547 0 l 538 96 l 533 96 b 321 -15 507 54 443 -15 b 82 281 183 -15 82 71 l 82 679 l 294 679 l 294 314 b 400 156 294 215 326 156 b 506 229 458 156 492 196 b 513 275 511 242 513 258 l 513 679 l 725 679 m 265 774 b 165 871 208 774 165 818 b 265 969 165 928 210 969 b 360 871 318 969 360 928 b 265 774 360 818 319 774 m 557 774 b 458 871 500 774 458 818 b 557 969 458 928 501 969 b 653 871 611 969 653 928 b 557 774 653 818 613 774 "},"ù":{"ha":810,"x_min":0,"x_max":0,"o":"m 725 218 b 731 0 725 129 728 57 l 547 0 l 538 96 l 533 96 b 321 -15 507 54 443 -15 b 82 281 183 -15 82 71 l 82 679 l 294 679 l 294 314 b 400 156 294 215 326 156 b 506 229 458 156 492 196 b 513 275 511 242 513 258 l 513 679 l 725 679 m 378 975 l 497 764 l 353 764 l 183 975 "},"ý":{"ha":726,"x_min":0,"x_max":0,"o":"m 243 679 l 344 346 b 378 219 356 306 369 256 l 382 219 b 413 346 392 256 403 307 l 496 679 l 722 679 l 564 232 b 325 -214 467 -37 401 -146 b 121 -307 251 -278 174 -300 l 76 -128 b 168 -92 103 -124 136 -111 b 256 -7 200 -75 235 -42 b 267 24 263 3 267 14 b 257 58 267 31 265 42 l 8 679 m 607 975 l 438 764 l 292 764 l 411 975 "},"ÿ":{"ha":726,"x_min":0,"x_max":0,"o":"m 243 679 l 344 346 b 378 219 356 306 369 256 l 382 219 b 413 346 392 256 403 307 l 496 679 l 722 679 l 564 232 b 325 -214 467 -37 401 -146 b 121 -307 251 -278 174 -300 l 76 -128 b 168 -92 103 -124 136 -111 b 256 -7 200 -75 235 -42 b 267 24 263 3 267 14 b 257 58 267 31 265 42 l 8 679 m 235 774 b 135 871 178 774 135 818 b 235 969 135 928 178 969 b 329 871 288 969 329 928 b 235 774 329 818 289 774 m 526 774 b 428 871 469 774 428 818 b 526 969 428 928 469 969 b 622 871 581 969 622 928 b 526 774 622 818 582 774 "},"ž":{"ha":651,"x_min":0,"x_max":0,"o":"m 31 121 l 244 389 b 353 510 283 435 314 468 l 353 513 l 54 513 l 54 679 l 610 679 l 610 553 l 406 296 b 294 171 368 251 333 208 l 294 168 l 621 168 l 621 0 l 31 0 m 261 764 l 124 975 l 261 975 l 332 854 l 335 854 l 404 975 l 543 975 l 404 764 "},"Đ":{"ha":978,"x_min":0,"x_max":0,"o":"m 4 560 l 103 560 l 103 926 b 389 947 181 939 282 947 b 772 849 565 947 682 917 b 929 492 869 776 929 657 b 775 108 929 310 865 185 b 343 -14 676 26 526 -14 b 103 0 233 -14 156 -7 l 103 394 l 4 394 m 500 394 l 314 394 l 314 156 b 388 153 333 153 363 153 b 706 485 582 153 706 256 b 410 783 706 688 593 783 b 314 775 364 783 333 779 l 314 560 l 500 560 "},"Ŋ":{"ha":958,"x_min":0,"x_max":0,"o":"m 92 0 l 92 936 l 339 936 l 533 593 b 686 272 589 494 644 378 l 690 272 b 672 663 676 396 672 522 l 672 936 l 867 936 l 867 67 b 550 -300 867 -172 739 -278 l 504 -139 b 660 -21 596 -117 646 -82 l 444 361 b 282 692 389 461 328 582 l 278 690 b 286 282 283 567 286 435 l 286 0 "},"Ħ":{"ha":974,"x_min":0,"x_max":0,"o":"m 872 654 l 872 0 l 661 0 l 661 356 l 313 356 l 313 0 l 100 0 l 100 654 l 11 654 l 11 779 l 100 779 l 100 936 l 313 936 l 313 779 l 661 779 l 661 936 l 872 936 l 872 779 l 963 779 l 963 654 m 661 654 l 313 654 l 313 540 l 661 540 "},"Ŧ":{"ha":761,"x_min":0,"x_max":0,"o":"m 485 758 l 485 528 l 643 528 l 643 403 l 485 403 l 485 0 l 272 0 l 272 403 l 113 403 l 113 528 l 272 528 l 272 758 l 21 758 l 21 936 l 740 936 l 740 758 "},"Ȝ":{"ha":746,"x_min":0,"x_max":0,"o":"m 81 -12 b 467 244 218 0 467 94 b 304 378 467 311 418 378 b 164 354 275 378 210 369 l 140 496 b 403 694 269 521 403 592 b 278 789 403 750 351 789 b 92 742 210 789 135 763 l 51 879 b 325 951 115 917 218 951 b 613 735 490 951 613 868 b 447 511 613 635 544 556 l 447 508 b 692 256 581 489 692 404 b 104 -174 692 18 425 -161 "},"đ":{"ha":828,"x_min":0,"x_max":0,"o":"m 743 750 l 743 203 b 749 0 743 126 746 46 l 561 0 l 551 100 l 549 100 b 336 -15 506 24 424 -15 b 46 333 175 -15 46 122 b 350 694 44 563 188 694 b 529 618 433 694 499 665 l 532 618 l 532 750 l 281 750 l 281 865 l 532 865 l 532 986 l 743 986 l 743 865 l 854 865 l 854 750 m 532 392 b 529 429 532 403 531 418 b 406 533 517 486 471 533 b 260 340 310 533 260 447 b 404 153 260 225 317 153 b 526 254 465 153 514 194 b 532 303 531 269 532 285 "},"ŋ":{"ha":814,"x_min":0,"x_max":0,"o":"m 85 463 b 79 679 85 547 82 619 l 263 679 l 272 586 l 276 586 b 486 694 304 629 374 694 b 729 403 625 694 729 603 l 729 82 b 442 -271 729 -164 601 -253 l 401 -107 b 518 49 482 -92 518 -50 l 518 376 b 411 524 518 464 488 524 b 304 444 353 524 318 483 b 296 392 299 432 296 411 l 296 0 l 85 0 "},"ħ":{"ha":814,"x_min":0,"x_max":0,"o":"m 518 0 l 518 374 b 408 524 518 463 488 524 b 303 450 353 524 318 488 b 296 403 297 436 296 418 l 296 0 l 85 0 l 85 750 l -25 750 l -25 865 l 85 865 l 85 986 l 296 986 l 296 865 l 550 865 l 550 750 l 296 750 l 296 599 l 299 599 b 382 668 321 628 349 651 b 492 694 414 685 453 694 b 729 397 626 694 729 601 l 729 0 "},"ĸ":{"ha":753,"x_min":0,"x_max":0,"o":"m 296 393 l 299 393 b 347 475 314 421 331 449 l 485 679 l 739 679 l 496 404 l 774 0 l 514 0 l 350 279 l 296 213 l 296 0 l 85 0 l 85 679 l 296 679 "},"ŉ":{"ha":814,"x_min":0,"x_max":0,"o":"m 11 785 b 54 906 35 824 54 863 b 26 982 54 935 40 964 l 161 1017 b 206 911 181 1004 206 965 b 104 728 206 814 132 750 m 85 463 b 79 679 85 547 82 619 l 263 679 l 272 586 l 276 586 b 486 694 304 629 374 694 b 729 403 625 694 729 603 l 729 0 l 518 0 l 518 376 b 411 524 518 464 488 524 b 304 444 353 524 318 483 b 296 392 299 432 296 411 l 296 0 l 85 0 "},"ŧ":{"ha":510,"x_min":0,"x_max":0,"o":"m 321 524 l 321 426 l 436 426 l 436 315 l 321 315 l 321 278 b 404 158 321 196 340 158 b 467 164 431 158 451 161 l 468 4 b 331 -14 440 -7 390 -14 b 172 44 263 -14 206 10 b 114 246 133 85 114 150 l 114 315 l 26 315 l 26 426 l 114 426 l 114 524 l 24 524 l 24 679 l 114 679 l 114 826 l 321 874 l 321 679 l 472 679 l 472 524 "},"ȝ":{"ha":658,"x_min":0,"x_max":0,"o":"m 47 -129 b 399 71 126 -128 399 -96 b 258 182 399 121 371 182 b 140 160 228 182 176 171 l 111 301 b 347 453 238 328 347 374 b 231 533 347 504 304 533 b 64 485 167 533 106 506 l 26 622 b 286 694 88 664 186 694 b 553 494 449 694 553 621 b 408 314 553 414 506 356 l 408 310 b 618 92 539 292 618 210 b 71 -290 618 -139 357 -282 "},"Ĳ":{"ha":967,"x_min":0,"x_max":0,"o":"m 304 936 l 304 0 l 92 0 l 92 936 m 671 936 l 882 936 l 882 344 b 549 -15 882 78 754 -15 b 394 7 500 -15 436 -7 l 418 178 b 526 161 447 168 485 161 b 671 347 615 161 671 201 "},"ﬀ":{"ha":903,"x_min":0,"x_max":0,"o":"m 538 0 l 538 524 l 321 524 l 321 0 l 108 0 l 108 524 l 19 524 l 19 679 l 108 679 l 108 693 b 186 911 108 774 129 854 b 394 986 232 957 299 986 b 485 969 429 986 464 978 l 456 814 b 401 824 439 819 421 824 b 319 704 339 824 319 772 l 319 679 l 538 679 l 538 706 b 624 933 538 788 563 878 b 811 1001 676 983 749 1001 b 924 988 857 1001 894 996 l 915 825 b 846 835 896 831 875 835 b 747 714 776 835 747 781 l 747 679 l 883 679 l 883 524 l 749 524 l 749 0 "},"ﬃ":{"ha":1249,"x_min":0,"x_max":0,"o":"m 1040 807 b 901 835 1007 822 958 835 b 751 703 790 835 751 778 l 751 679 l 1165 679 l 1165 0 l 953 0 l 953 524 l 753 524 l 753 0 l 542 0 l 542 524 l 321 524 l 321 0 l 108 0 l 108 524 l 19 524 l 19 679 l 108 679 l 108 694 b 196 914 108 775 135 857 b 400 986 242 957 308 986 b 518 964 447 986 492 974 l 471 811 b 411 825 456 818 433 825 b 349 801 383 825 363 815 b 319 703 326 778 319 739 l 319 679 l 542 679 l 542 708 b 896 1001 542 896 686 1001 b 1086 965 963 1001 1040 988 "},"":{"ha":1231,"x_min":0,"x_max":0,"o":"m 1040 807 b 901 835 1007 822 958 835 b 751 703 790 835 751 778 l 751 679 l 1165 679 l 1165 90 b 1069 -207 1165 -58 1132 -149 b 807 -290 1007 -265 908 -290 l 786 -125 b 911 -81 842 -121 885 -108 b 953 140 942 -49 953 6 l 953 524 l 753 524 l 753 0 l 542 0 l 542 524 l 321 524 l 321 0 l 108 0 l 108 524 l 19 524 l 19 679 l 108 679 l 108 694 b 196 914 108 775 135 857 b 400 986 242 957 308 986 b 518 964 447 986 492 974 l 471 811 b 411 825 456 818 433 825 b 349 801 383 825 363 815 b 319 703 326 778 319 739 l 319 679 l 542 679 l 542 708 b 896 1001 542 896 686 1001 b 1086 965 963 1001 1040 988 "},"ﬄ":{"ha":1249,"x_min":0,"x_max":0,"o":"m 476 813 b 414 824 458 819 438 824 b 350 800 385 824 364 815 b 319 703 326 776 319 742 l 319 679 l 542 679 l 542 710 b 644 925 542 786 579 872 b 903 1001 711 978 794 1001 b 1165 944 1004 1001 1097 982 l 1165 0 l 953 0 l 953 831 b 874 844 938 839 911 844 b 751 707 788 844 751 783 l 751 679 l 875 679 l 875 524 l 753 524 l 753 0 l 542 0 l 542 524 l 321 524 l 321 0 l 108 0 l 108 524 l 19 524 l 19 679 l 108 679 l 108 692 b 194 910 108 782 138 858 b 415 986 247 960 326 986 b 521 968 456 986 497 976 "},"":{"ha":814,"x_min":0,"x_max":0,"o":"m 108 0 l 108 524 l 19 524 l 19 679 l 108 679 l 108 708 b 464 1001 108 896 254 1001 b 664 960 536 1001 622 985 l 624 800 b 469 835 590 818 536 835 b 319 703 358 835 319 778 l 319 679 l 732 679 l 732 90 b 636 -207 732 -58 700 -149 b 374 -290 574 -265 475 -290 l 354 -125 b 478 -81 408 -121 451 -108 b 521 140 510 -49 521 6 l 521 524 l 321 524 l 321 0 "},"ĳ":{"ha":785,"x_min":0,"x_max":0,"o":"m 85 0 l 85 679 l 296 679 l 296 0 m 190 975 b 303 868 258 975 301 929 b 189 763 303 810 258 763 b 79 868 122 763 78 810 b 190 975 78 929 122 975 m 326 -125 b 450 -81 381 -121 424 -108 b 493 140 481 -49 493 6 l 493 679 l 704 679 l 704 90 b 608 -207 704 -58 672 -149 b 346 -290 546 -265 447 -290 m 599 975 b 710 868 667 975 708 929 b 596 763 710 810 667 763 b 486 868 529 763 486 810 b 599 975 486 929 531 975 "},"":{"ha":771,"x_min":0,"x_max":0,"o":"m 478 700 b 386 758 461 735 431 758 b 246 453 299 758 246 649 b 258 333 246 413 249 372 m 293 200 b 385 144 315 163 343 144 b 525 453 471 144 525 247 b 515 575 525 493 522 531 m 389 918 b 725 456 631 918 725 703 b 382 -15 725 176 613 -15 b 44 450 149 -15 46 194 b 389 918 44 711 156 918 "},"€":{"ha":771,"x_min":0,"x_max":0,"o":"m 731 38 b 514 -15 683 11 603 -15 b 175 143 378 -15 253 40 b 97 324 138 190 110 250 l 7 324 l 7 422 l 83 422 b 83 446 83 429 83 438 b 85 488 83 460 85 474 l 7 488 l 7 586 l 100 586 b 196 776 118 661 151 725 b 517 918 275 865 386 918 b 725 876 601 918 675 899 l 686 718 b 532 751 650 733 593 751 b 361 676 465 751 404 729 b 317 586 342 654 326 622 l 663 586 l 663 488 l 296 488 b 294 444 294 474 294 458 b 294 422 294 436 294 431 l 663 422 l 663 324 l 314 324 b 360 226 324 282 339 250 b 539 156 404 176 469 156 b 697 192 603 156 668 176 "},"Ǻ":{"ha":911,"x_min":0,"x_max":0,"o":"m 457 963 b 308 1086 364 963 308 1018 b 458 1211 308 1153 361 1211 b 606 1086 556 1211 606 1154 b 457 963 606 1015 551 963 m 456 1033 b 517 1086 494 1033 517 1054 b 454 1143 517 1117 493 1143 b 397 1086 415 1143 397 1115 b 456 1033 397 1058 419 1033 m 736 1364 l 531 1235 l 356 1235 l 506 1364 m 310 240 l 243 0 l 24 0 l 310 936 l 588 936 l 878 0 l 650 0 l 578 240 m 547 399 l 489 597 b 442 778 472 653 456 722 l 439 778 b 396 597 425 722 411 651 l 340 399 "},"℮":{"ha":1135,"x_min":0,"x_max":0,"o":"m 246 439 b 239 433 242 439 239 438 l 239 179 b 251 150 239 168 244 158 b 569 13 331 65 444 13 b 903 167 703 13 822 72 l 979 167 b 568 -15 885 57 735 -15 b 49 451 282 -15 49 193 b 568 918 49 710 282 918 b 1086 451 854 918 1086 710 b 1086 439 1086 447 1086 443 m 897 728 b 883 758 897 740 892 750 b 569 890 803 839 692 890 b 253 754 444 890 333 838 b 239 722 244 746 239 735 l 239 472 b 246 465 239 468 242 465 l 890 465 b 897 472 894 465 897 468 "},"":{"ha":779,"x_min":0,"x_max":0,"o":"m 390 -15 b 44 340 167 -15 44 146 b 390 694 44 532 167 694 b 735 340 613 694 735 533 b 390 -15 735 147 613 -15 m 390 139 b 535 340 481 139 535 215 b 390 542 535 465 481 542 b 244 340 299 542 244 465 b 390 139 244 215 300 139 "},"":{"ha":572,"x_min":0,"x_max":0,"o":"m 250 0 l 250 497 l 247 497 l 71 415 l 36 571 l 283 682 l 453 682 l 453 0 "},"":{"ha":661,"x_min":0,"x_max":0,"o":"m 31 0 l 31 114 l 115 168 b 368 428 289 278 368 347 b 244 529 368 496 321 529 b 82 481 188 529 126 506 l 33 615 b 307 694 81 647 182 694 b 581 468 476 694 581 607 b 385 193 581 347 486 260 l 326 156 l 326 151 b 474 163 376 158 440 163 l 628 163 l 628 0 "},"":{"ha":654,"x_min":0,"x_max":0,"o":"m 50 10 b 213 -14 88 -4 146 -14 b 393 103 317 -14 393 28 b 221 206 393 167 326 206 b 144 203 193 206 165 206 l 143 351 l 182 354 b 368 453 286 361 368 392 b 250 533 368 506 325 533 b 75 488 186 533 117 508 l 39 625 b 301 694 97 665 200 694 b 579 492 464 694 579 617 b 413 300 579 399 506 322 l 413 296 b 611 99 521 281 611 213 b 235 -175 611 -72 432 -175 b 26 -143 143 -175 67 -160 "},"":{"ha":758,"x_min":0,"x_max":0,"o":"m 622 43 l 622 -172 l 426 -172 l 426 43 l 32 43 l 32 179 l 364 683 l 622 683 l 622 197 l 731 197 l 731 43 m 426 376 b 431 532 426 428 426 482 l 425 533 b 339 372 400 481 369 422 l 224 203 l 226 197 l 426 197 "},"":{"ha":647,"x_min":0,"x_max":0,"o":"m 56 0 b 204 -17 86 -8 146 -17 b 385 108 301 -17 385 26 b 356 181 385 136 375 161 b 61 232 317 218 239 236 l 135 679 l 589 679 l 565 510 l 271 510 l 247 376 b 538 288 365 374 471 350 b 603 122 579 246 603 192 b 224 -175 603 -44 469 -175 b 32 -147 146 -175 71 -161 "},"":{"ha":764,"x_min":0,"x_max":0,"o":"m 656 706 b 276 501 411 697 301 600 l 279 500 b 449 567 310 532 369 567 b 718 297 599 567 718 468 b 385 -15 718 115 565 -15 b 47 343 175 -15 47 131 b 643 856 47 638 267 851 m 389 140 b 508 286 447 140 508 188 b 386 428 508 371 458 428 b 278 378 338 428 301 407 b 256 307 261 361 256 335 b 389 140 256 208 304 140 "},"":{"ha":661,"x_min":0,"x_max":0,"o":"m 625 551 b 250 -172 544 344 389 43 l 46 -147 b 408 504 165 28 332 315 l 408 507 l 24 507 l 24 679 l 625 679 "},"":{"ha":767,"x_min":0,"x_max":0,"o":"m 560 450 b 721 247 644 415 721 351 b 375 -15 721 90 576 -15 b 44 226 176 -15 44 85 b 200 435 44 321 107 393 l 200 440 b 75 617 124 478 75 536 b 390 857 75 757 199 857 b 688 639 589 857 688 750 b 560 457 688 550 631 492 m 390 726 b 281 628 322 726 281 683 b 408 511 281 576 329 532 b 497 624 456 526 497 568 b 390 726 497 690 446 726 m 381 126 b 501 233 451 126 501 171 b 358 372 501 300 444 350 b 256 244 294 351 256 303 b 381 126 256 178 306 126 "},"":{"ha":764,"x_min":0,"x_max":0,"o":"m 101 -25 b 489 181 333 -17 449 61 l 486 181 b 311 115 456 149 390 115 b 46 382 158 115 46 226 b 385 694 46 564 194 694 b 715 339 589 694 715 544 b 114 -175 715 0 472 -171 m 379 254 b 490 315 424 254 469 281 b 507 383 500 329 507 356 b 379 536 507 472 454 536 b 256 393 315 536 256 488 b 379 254 256 306 310 254 "},"":{"ha":1238,"x_min":0,"x_max":0,"o":"m 281 856 b 524 588 436 856 524 742 b 274 300 524 399 404 300 b 28 572 136 300 28 403 b 281 856 28 733 126 856 m 276 740 b 185 576 214 740 185 668 b 278 415 185 482 217 415 b 367 578 338 415 367 476 b 276 740 367 669 342 740 m 319 -15 l 806 858 l 918 858 l 432 -15 m 965 543 b 1210 275 1122 543 1210 429 b 960 -12 1210 86 1090 -12 b 714 260 822 -12 714 90 b 965 543 714 421 813 543 m 963 428 b 871 265 899 428 871 356 b 964 103 871 171 903 103 b 1053 265 1024 103 1053 164 b 963 428 1053 357 1028 428 "},"":{"ha":771,"x_min":0,"x_max":0,"o":"m 389 918 b 725 456 631 918 725 703 b 382 -15 725 176 613 -15 b 44 450 149 -15 46 194 b 389 918 44 711 156 918 m 386 758 b 257 450 308 758 256 660 b 388 144 256 243 306 144 b 514 453 469 144 514 247 b 386 758 514 653 471 758 "},"":{"ha":529,"x_min":0,"x_max":0,"o":"m 217 715 l 214 715 l 42 633 l 7 792 l 246 903 l 421 903 l 421 0 l 217 0 "},"":{"ha":685,"x_min":0,"x_max":0,"o":"m 4 0 l 4 128 l 121 233 b 415 617 318 410 414 511 b 268 749 415 690 372 749 b 75 674 190 749 122 710 l 15 825 b 311 918 83 876 189 918 b 626 635 515 918 626 799 b 388 246 626 483 518 363 l 303 176 l 303 174 l 644 174 l 644 0 "},"":{"ha":692,"x_min":0,"x_max":0,"o":"m 53 207 b 263 151 89 188 176 151 b 428 272 372 151 428 204 b 246 401 428 361 339 401 l 160 401 l 160 553 l 242 553 b 401 657 313 554 401 581 b 269 751 401 711 358 751 b 81 697 194 751 118 719 l 38 850 b 317 918 92 885 200 918 b 617 693 510 918 617 817 b 451 483 617 597 561 522 l 451 481 b 647 261 560 461 647 379 b 278 -15 647 101 507 -15 b 10 49 161 -15 63 15 "},"":{"ha":758,"x_min":0,"x_max":0,"o":"m 424 0 l 424 215 l 24 215 l 24 353 l 364 903 l 622 903 l 622 374 l 731 374 l 731 215 l 622 215 l 622 0 m 424 374 l 424 574 b 429 742 424 628 426 683 l 424 742 b 340 574 396 683 371 631 l 219 376 l 219 374 "},"":{"ha":703,"x_min":0,"x_max":0,"o":"m 618 729 l 268 729 l 249 590 b 307 593 268 593 286 593 b 546 528 393 593 482 574 b 654 301 614 482 654 407 b 267 -15 654 133 511 -15 b 15 36 158 -15 67 10 l 54 194 b 257 150 94 175 176 150 b 438 288 346 150 439 192 b 183 438 438 381 364 438 b 63 429 135 438 99 435 l 121 903 l 618 903 "},"":{"ha":772,"x_min":0,"x_max":0,"o":"m 636 753 b 553 750 611 754 586 753 b 258 533 365 735 283 639 l 263 533 b 454 606 308 579 371 606 b 733 311 606 606 733 499 b 401 -15 733 132 597 -15 b 43 379 161 -15 43 164 b 203 781 43 549 106 690 b 550 914 293 863 410 907 b 636 915 589 917 615 917 m 399 140 b 519 300 474 140 519 208 b 386 456 519 383 476 456 b 261 375 329 456 282 421 b 251 322 256 364 251 347 b 399 140 256 226 301 140 "},"":{"ha":643,"x_min":0,"x_max":0,"o":"m 643 903 l 643 769 l 271 0 l 47 0 l 419 726 l 419 729 l 6 729 l 6 903 "},"":{"ha":771,"x_min":0,"x_max":0,"o":"m 379 -15 b 44 236 150 -15 44 114 b 206 463 44 344 107 419 l 206 467 b 75 664 118 511 75 585 b 393 918 75 817 213 918 b 692 686 604 918 692 796 b 561 488 692 608 650 532 l 561 483 b 726 258 649 450 726 375 b 379 -15 726 94 589 -15 m 388 131 b 511 243 463 131 511 179 b 369 392 511 322 453 369 b 260 257 300 372 260 322 b 388 131 258 192 308 131 m 383 775 b 274 671 311 775 274 728 b 401 549 274 610 329 571 b 493 664 450 563 493 607 b 383 775 493 719 461 775 "},"":{"ha":772,"x_min":0,"x_max":0,"o":"m 125 153 b 217 153 151 150 175 150 b 394 208 281 157 346 175 b 508 375 453 249 492 307 l 504 376 b 324 311 464 335 406 311 b 42 593 171 311 42 418 b 382 918 42 769 183 918 b 724 529 614 918 724 740 b 565 114 724 342 664 204 b 221 -12 479 36 361 -7 b 125 -12 185 -15 149 -14 m 376 764 b 253 606 304 764 251 700 b 381 461 253 528 294 461 b 497 521 438 461 478 489 b 508 574 504 533 508 547 b 376 764 508 669 472 764 "},"":{"ha":771,"x_min":0,"x_max":0,"o":"m 478 700 b 386 758 461 735 431 758 b 246 453 299 758 246 649 b 258 333 246 413 249 372 m 293 200 b 385 144 315 163 343 144 b 525 453 471 144 525 247 b 515 575 525 493 522 531 m 389 918 b 725 456 631 918 725 703 b 382 -15 725 176 613 -15 b 44 450 149 -15 46 194 b 389 918 44 711 156 918 "},"":{"ha":779,"x_min":0,"x_max":0,"o":"m 390 -15 b 44 340 167 -15 44 146 b 390 694 44 532 167 694 b 735 340 613 694 735 533 b 390 -15 735 147 613 -15 m 390 139 b 535 340 481 139 535 215 b 390 542 535 465 481 542 b 244 340 299 542 244 465 b 390 139 244 215 300 139 "},"":{"ha":779,"x_min":0,"x_max":0,"o":"m 369 0 l 369 504 l 367 504 l 126 407 l 99 563 l 404 682 l 574 682 l 574 0 "},"":{"ha":779,"x_min":0,"x_max":0,"o":"m 85 0 l 85 114 l 168 168 b 421 428 342 278 421 347 b 297 529 421 496 374 529 b 135 481 240 529 179 506 l 86 615 b 360 694 133 647 235 694 b 633 468 529 694 633 607 b 439 193 633 347 539 260 l 379 156 l 379 151 b 526 163 429 158 493 163 l 681 163 l 681 0 "},"":{"ha":779,"x_min":0,"x_max":0,"o":"m 104 10 b 267 -14 143 -4 201 -14 b 447 103 372 -14 447 28 b 275 206 447 167 381 206 b 199 203 249 206 221 206 l 199 351 l 236 354 b 424 453 340 361 424 392 b 306 533 424 506 381 533 b 131 488 242 533 172 508 l 94 625 b 356 694 151 665 256 694 b 633 492 518 694 633 617 b 467 300 633 399 561 322 l 467 296 b 667 99 575 281 667 213 b 290 -175 667 -72 486 -175 b 82 -143 197 -175 121 -160 "},"":{"ha":779,"x_min":0,"x_max":0,"o":"m 631 43 l 631 -172 l 435 -172 l 435 43 l 39 43 l 39 179 l 372 683 l 631 683 l 631 197 l 738 197 l 738 43 m 435 376 b 439 532 435 428 435 482 l 432 533 b 346 372 408 481 378 422 l 231 203 l 233 197 l 435 197 "},"":{"ha":779,"x_min":0,"x_max":0,"o":"m 119 0 b 268 -17 150 -8 211 -17 b 450 108 367 -17 450 26 b 419 181 450 136 439 161 b 125 232 381 218 303 236 l 199 679 l 653 679 l 629 510 l 335 510 l 311 376 b 601 288 429 374 536 350 b 667 122 643 246 667 192 b 288 -175 667 -44 533 -175 b 97 -147 210 -175 135 -161 "},"":{"ha":779,"x_min":0,"x_max":0,"o":"m 665 706 b 288 501 422 697 313 600 l 289 500 b 458 567 321 532 379 567 b 728 297 608 567 728 468 b 396 -15 728 115 576 -15 b 58 343 186 -15 58 131 b 653 856 58 638 276 851 m 399 140 b 518 286 458 140 518 188 b 397 428 518 371 468 428 b 288 378 349 428 313 407 b 265 307 272 361 265 335 b 399 140 265 208 314 140 "},"":{"ha":779,"x_min":0,"x_max":0,"o":"m 683 551 b 307 -172 603 344 447 43 l 104 -147 b 467 504 222 28 390 315 l 467 507 l 82 507 l 82 679 l 683 679 "},"":{"ha":779,"x_min":0,"x_max":0,"o":"m 564 450 b 726 247 649 415 726 351 b 381 -15 726 90 582 -15 b 50 226 182 -15 50 85 b 206 435 50 321 111 393 l 206 440 b 81 617 129 478 81 536 b 396 857 81 757 204 857 b 693 639 594 857 693 750 b 564 457 693 550 636 492 m 396 726 b 286 628 326 726 286 683 b 414 511 286 576 335 532 b 503 624 461 526 503 568 b 396 726 503 690 451 726 m 386 126 b 507 233 456 126 507 171 b 364 372 507 300 450 350 b 261 244 300 351 261 303 b 386 126 261 178 311 126 "},"":{"ha":779,"x_min":0,"x_max":0,"o":"m 104 -25 b 492 181 338 -17 453 61 l 489 181 b 315 115 460 149 394 115 b 50 382 163 115 50 226 b 389 694 50 564 199 694 b 719 339 593 694 719 544 b 117 -175 719 0 476 -171 m 383 254 b 494 315 428 254 474 281 b 510 383 504 329 510 356 b 383 536 510 472 457 536 b 260 393 318 536 260 488 b 383 254 260 306 314 254 "},"":{"ha":779,"x_min":0,"x_max":0,"o":"m 328 -122 l 328 -4 b 101 58 242 0 153 25 l 146 197 b 349 143 190 169 281 143 b 456 199 413 143 456 161 b 339 281 456 229 435 249 b 119 485 179 329 119 388 b 335 676 119 582 201 654 l 335 806 l 457 806 l 457 683 b 646 638 536 679 606 660 l 604 501 b 432 546 568 521 500 546 b 331 494 372 546 331 526 b 458 415 331 464 350 449 b 678 208 619 365 678 301 b 450 1 678 114 600 28 l 450 -122 "},"":{"ha":779,"x_min":0,"x_max":0,"o":"m 618 81 b 486 53 590 68 538 54 l 486 -49 l 367 -49 l 367 56 b 108 342 214 78 108 182 b 367 638 108 483 203 607 l 367 738 l 486 738 l 486 643 b 611 619 529 640 578 632 l 582 485 b 467 504 556 496 515 504 b 304 349 368 504 304 444 b 468 193 304 242 379 193 b 594 213 521 193 564 201 "},"":{"ha":779,"x_min":0,"x_max":0,"o":"m 710 31 b 506 -15 669 7 593 -15 b 239 88 401 -15 306 21 b 151 246 199 129 167 183 l 58 246 l 58 340 l 136 340 b 135 371 136 354 135 364 b 136 406 135 379 135 393 l 60 406 l 60 499 l 151 499 b 240 654 168 560 200 613 b 524 763 313 725 415 763 b 708 726 608 763 674 743 l 668 585 b 540 611 643 597 599 611 b 396 558 485 611 433 596 b 361 499 381 543 368 522 l 650 499 l 650 406 l 338 406 b 336 374 336 393 336 381 b 338 340 336 364 336 356 l 650 340 l 650 246 l 361 246 b 394 193 369 225 379 207 b 542 140 432 156 483 140 b 690 171 600 140 660 156 "},"":{"ha":779,"x_min":0,"x_max":0,"o":"m 168 486 l 292 486 l 300 557 b 600 857 310 649 361 858 b 715 835 647 857 692 847 l 682 686 b 617 697 665 692 643 697 b 506 572 547 697 514 647 l 494 486 l 639 486 l 639 361 l 479 361 l 450 128 b 175 -175 429 -42 372 -176 b 49 -153 118 -175 71 -164 l 79 -4 b 144 -17 99 -12 121 -15 b 256 181 213 -15 236 24 l 276 361 l 168 361 "},"":{"ha":779,"x_min":0,"x_max":0,"o":"m 82 0 l 82 111 b 229 281 165 144 229 204 b 225 319 229 294 228 307 l 97 319 l 97 436 l 201 436 b 194 500 197 456 194 478 b 508 789 194 660 308 789 b 672 756 578 789 640 774 l 639 603 b 521 628 610 617 565 628 b 392 494 433 628 392 572 b 397 436 392 474 393 454 l 596 436 l 596 319 l 417 319 b 418 299 418 313 418 306 b 342 168 413 235 375 192 l 342 165 l 715 165 l 715 0 "},"":{"ha":779,"x_min":0,"x_max":0,"o":"m 286 0 l 286 146 l 78 146 l 78 244 l 286 244 l 286 317 l 78 317 l 78 415 l 239 415 l 36 747 l 254 747 l 333 574 b 390 435 356 519 372 482 l 393 435 b 453 575 413 481 431 524 l 533 747 l 746 747 l 533 415 l 694 415 l 694 317 l 483 317 l 483 244 l 694 244 l 694 146 l 483 146 l 483 0 "},"":{"ha":779,"x_min":0,"x_max":0,"o":"m 447 336 l 469 493 l 343 493 l 321 336 m 143 -11 l 175 208 l 63 208 l 63 336 l 197 336 l 219 493 l 101 493 l 101 621 l 239 621 l 269 833 l 392 833 l 361 621 l 489 621 l 519 833 l 643 833 l 613 621 l 724 621 l 724 493 l 593 493 l 571 336 l 686 336 l 686 208 l 550 208 l 519 -11 l 394 -11 l 425 208 l 299 208 l 268 -11 "},"⁰":{"ha":525,"x_min":0,"x_max":0,"o":"m 261 608 b 29 886 101 608 29 732 b 263 1164 29 1036 100 1164 b 496 885 421 1164 496 1040 b 261 608 496 740 429 608 m 263 715 b 340 885 310 715 340 769 b 263 1056 340 1003 310 1056 b 185 885 214 1056 185 1000 b 263 715 185 771 215 715 "},"⁴":{"ha":546,"x_min":0,"x_max":0,"o":"m 294 615 l 294 740 l 28 740 l 28 828 l 258 1161 l 446 1161 l 446 843 l 517 843 l 517 740 l 446 740 l 446 615 m 294 946 b 300 1049 294 981 299 1014 l 297 1049 b 247 957 279 1014 264 983 l 174 844 l 176 843 l 294 843 "},"⁵":{"ha":483,"x_min":0,"x_max":0,"o":"m 415 1039 l 192 1039 l 182 971 b 218 972 192 971 207 972 b 375 933 272 972 333 963 b 442 799 415 906 442 860 b 194 608 442 692 349 608 b 29 639 132 608 63 622 l 54 746 b 186 719 79 735 133 719 b 292 790 232 719 292 739 b 135 871 292 839 250 871 b 56 865 106 871 78 868 l 93 1157 l 415 1157 "},"⁶":{"ha":504,"x_min":0,"x_max":0,"o":"m 410 1050 b 358 1053 396 1053 375 1053 b 178 943 256 1046 197 1004 l 181 942 b 299 979 208 963 251 979 b 474 807 401 979 474 915 b 261 608 474 683 371 608 b 31 846 99 608 31 725 b 126 1081 31 942 65 1026 b 354 1161 183 1132 254 1158 b 410 1161 376 1163 397 1163 m 258 715 b 326 799 299 715 326 751 b 249 882 326 842 304 882 b 178 835 215 882 188 860 b 174 808 175 828 174 819 b 258 715 174 763 203 715 "},"⁷":{"ha":463,"x_min":0,"x_max":0,"o":"m 442 1157 l 442 1067 l 213 615 l 56 615 l 286 1036 l 286 1039 l 32 1039 l 32 1157 "},"⁸":{"ha":501,"x_min":0,"x_max":0,"o":"m 253 1164 b 446 1022 386 1164 446 1092 b 364 907 446 974 415 929 l 364 904 b 468 774 413 888 468 846 b 246 608 468 678 386 608 b 32 757 90 608 32 692 b 133 888 32 822 74 863 l 133 890 b 50 1008 81 915 50 960 b 253 1164 50 1101 139 1164 m 251 707 b 319 767 290 707 319 731 b 240 843 319 813 281 833 b 179 772 200 831 179 807 b 251 707 179 739 207 707 m 249 1067 b 186 1013 208 1067 186 1042 b 260 944 186 981 215 958 b 311 1007 288 953 311 976 b 249 1067 311 1038 289 1067 "},"⁹":{"ha":497,"x_min":0,"x_max":0,"o":"m 81 719 b 135 718 96 718 118 718 b 247 746 175 721 217 729 b 319 833 285 767 310 800 l 317 835 b 207 800 296 815 257 800 b 29 968 115 800 29 858 b 246 1164 29 1078 124 1164 b 467 929 401 1164 467 1047 b 374 686 467 822 433 739 b 135 608 315 635 235 611 b 81 610 115 607 93 610 m 246 1057 b 176 975 208 1057 176 1024 b 249 896 176 936 199 896 b 315 929 283 896 306 913 b 321 960 319 936 321 946 b 246 1057 321 1008 301 1057 "},"":{"ha":239,"x_min":0,"x_max":0,"o":"m 119 608 b 31 696 65 608 31 644 b 119 785 31 749 67 785 b 208 696 172 785 208 749 b 119 608 208 644 172 608 "},"":{"ha":239,"x_min":0,"x_max":0,"o":"m -11 522 b 57 778 21 608 43 693 l 211 786 b 93 529 179 693 142 607 "},"":{"ha":490,"x_min":0,"x_max":0,"o":"m 197 543 l 197 619 b 43 658 136 624 78 639 l 71 767 b 224 728 111 746 164 728 b 301 772 275 728 301 744 b 210 835 301 799 282 813 b 49 989 111 867 49 903 b 200 1143 49 1067 103 1125 l 200 1219 l 290 1219 l 290 1149 b 421 1121 343 1147 393 1133 l 394 1015 b 263 1046 372 1025 326 1046 b 193 1007 207 1046 193 1026 b 299 942 193 982 214 968 b 447 783 406 910 447 863 b 288 626 447 708 392 644 l 288 543 "},"":{"ha":458,"x_min":0,"x_max":0,"o":"m 225 608 l 225 688 b 97 753 171 696 128 718 b 50 889 67 788 50 836 b 226 1099 50 986 108 1076 l 226 1175 l 318 1175 l 318 1103 b 396 1088 342 1103 371 1097 l 375 982 b 303 996 357 990 333 996 b 199 896 238 996 199 957 b 304 793 199 825 247 793 b 385 806 336 793 364 799 l 403 704 b 318 685 381 693 350 688 l 318 608 "},"":{"ha":286,"x_min":0,"x_max":0,"o":"m 261 922 l 261 824 l 25 824 l 25 922 "},"⁽":{"ha":283,"x_min":0,"x_max":0,"o":"m 258 1206 b 176 874 219 1135 176 1018 b 258 543 176 726 218 617 l 153 543 b 57 874 111 604 57 715 b 153 1206 57 1033 113 1144 "},"⁾":{"ha":283,"x_min":0,"x_max":0,"o":"m 26 543 b 107 874 65 619 107 731 b 26 1206 107 1018 65 1133 l 131 1206 b 226 874 172 1144 226 1033 b 131 543 226 717 174 607 "},"₀":{"ha":525,"x_min":0,"x_max":0,"o":"m 261 -211 b 29 67 101 -211 29 -87 b 263 344 29 218 100 344 b 496 67 421 344 496 221 b 261 -211 496 -78 429 -211 m 263 -103 b 340 67 310 -103 340 -50 b 263 236 340 183 310 236 b 185 67 214 236 185 182 b 263 -103 185 -49 215 -103 "},"₁":{"ha":417,"x_min":0,"x_max":0,"o":"m 164 -204 l 164 206 l 161 206 l 51 157 l 29 271 l 185 338 l 326 338 l 326 -204 "},"₂":{"ha":489,"x_min":0,"x_max":0,"o":"m 21 -126 l 106 -49 b 268 151 211 44 268 92 b 186 218 268 190 238 218 b 67 179 140 218 97 200 l 25 285 b 226 344 71 318 143 344 b 439 176 365 344 439 271 b 279 -54 439 78 363 14 l 246 -81 l 246 -83 l 449 -83 l 449 -204 l 21 -204 "},"₃":{"ha":482,"x_min":0,"x_max":0,"o":"m 35 300 b 229 344 75 325 149 344 b 431 207 363 344 431 283 b 315 85 431 147 382 104 l 315 82 b 450 -46 392 74 450 25 b 200 -211 450 -143 353 -211 b 13 -172 125 -211 53 -194 l 44 -64 b 181 -100 74 -79 131 -100 b 279 -37 239 -100 281 -74 b 160 32 279 10 221 32 l 118 32 l 118 126 l 157 126 b 264 185 203 126 264 142 b 190 233 264 213 242 233 b 65 200 142 233 92 214 "},"₄":{"ha":546,"x_min":0,"x_max":0,"o":"m 294 -204 l 294 -79 l 28 -79 l 28 10 l 258 342 l 446 342 l 446 25 l 517 25 l 517 -79 l 446 -79 l 446 -204 m 294 126 b 300 229 294 161 299 196 l 297 231 b 247 138 279 196 264 164 l 174 26 l 176 25 l 294 25 "},"₅":{"ha":483,"x_min":0,"x_max":0,"o":"m 415 219 l 192 219 l 182 151 b 218 153 192 153 207 153 b 375 114 272 153 333 143 b 442 -19 415 88 442 40 b 194 -211 442 -128 349 -211 b 29 -181 132 -211 63 -196 l 54 -72 b 186 -100 79 -85 133 -100 b 292 -28 232 -100 292 -81 b 135 53 292 21 250 53 b 56 47 106 53 78 50 l 93 338 l 415 338 "},"₆":{"ha":504,"x_min":0,"x_max":0,"o":"m 410 232 b 358 233 396 233 375 235 b 178 124 256 228 197 186 l 181 124 b 299 161 208 144 251 161 b 474 -12 401 161 474 96 b 261 -211 474 -136 371 -211 b 31 26 99 -211 31 -93 b 126 263 31 122 65 207 b 354 343 183 314 254 339 b 410 342 376 343 397 343 m 258 -103 b 326 -21 299 -103 326 -67 b 249 64 326 22 304 64 b 178 17 215 64 188 42 b 174 -11 175 10 174 0 b 258 -103 174 -57 203 -103 "},"₇":{"ha":463,"x_min":0,"x_max":0,"o":"m 442 338 l 442 249 l 213 -204 l 56 -204 l 286 218 l 286 219 l 32 219 l 32 338 "},"₈":{"ha":501,"x_min":0,"x_max":0,"o":"m 253 344 b 446 204 386 344 446 272 b 364 88 446 154 415 110 l 364 86 b 468 -46 413 68 468 26 b 246 -211 468 -140 386 -211 b 32 -61 90 -211 32 -126 b 133 69 32 4 74 44 l 133 71 b 50 190 81 97 50 142 b 253 344 50 283 139 344 m 251 -111 b 319 -53 290 -111 319 -87 b 240 25 319 -7 281 15 b 179 -46 200 11 179 -11 b 251 -111 179 -81 207 -111 m 249 247 b 186 193 208 247 186 224 b 260 126 186 163 215 139 b 311 188 288 135 311 158 b 249 247 311 219 289 247 "},"₉":{"ha":497,"x_min":0,"x_max":0,"o":"m 81 -99 b 135 -100 96 -100 118 -101 b 247 -72 175 -99 217 -89 b 319 15 285 -51 310 -19 l 317 17 b 207 -19 296 -3 257 -19 b 29 150 115 -19 29 40 b 246 344 29 260 124 344 b 467 110 401 344 467 228 b 374 -132 467 4 433 -79 b 135 -210 315 -185 235 -207 b 81 -208 115 -211 93 -210 m 246 238 b 176 157 208 238 176 206 b 249 78 176 117 199 78 b 315 110 283 78 306 93 b 321 142 319 117 321 128 b 246 238 321 190 301 238 "},"":{"ha":239,"x_min":0,"x_max":0,"o":"m 119 -211 b 31 -122 65 -211 31 -174 b 119 -33 31 -69 67 -33 b 208 -122 172 -33 208 -69 b 119 -211 208 -174 172 -211 "},"":{"ha":239,"x_min":0,"x_max":0,"o":"m -11 -297 b 57 -40 21 -211 43 -126 l 211 -33 b 93 -289 179 -126 142 -211 "},"":{"ha":490,"x_min":0,"x_max":0,"o":"m 197 -275 l 197 -199 b 43 -161 136 -196 78 -179 l 71 -53 b 224 -90 111 -74 164 -90 b 301 -47 275 -90 301 -75 b 210 17 301 -19 282 -7 b 49 171 111 49 49 85 b 200 325 49 247 103 307 l 200 400 l 290 400 l 290 331 b 421 303 343 329 393 315 l 394 197 b 263 228 372 207 326 228 b 193 188 207 228 193 207 b 299 124 193 163 214 150 b 447 -35 406 90 447 43 b 288 -192 447 -111 392 -175 l 288 -275 "},"":{"ha":458,"x_min":0,"x_max":0,"o":"m 225 -211 l 225 -132 b 97 -65 171 -124 128 -100 b 50 69 67 -32 50 17 b 226 281 50 167 108 258 l 226 356 l 318 356 l 318 285 b 396 269 342 283 371 279 l 375 164 b 303 178 357 171 333 178 b 199 76 238 178 199 139 b 304 -26 199 6 247 -26 b 385 -12 336 -26 364 -21 l 403 -115 b 318 -135 381 -125 350 -132 l 318 -211 "},"":{"ha":286,"x_min":0,"x_max":0,"o":"m 261 104 l 261 4 l 25 4 l 25 104 "},"₍":{"ha":283,"x_min":0,"x_max":0,"o":"m 258 386 b 176 56 219 315 176 199 b 258 -276 176 -93 218 -201 l 153 -276 b 57 56 111 -215 57 -104 b 153 386 57 215 113 326 "},"₎":{"ha":283,"x_min":0,"x_max":0,"o":"m 26 -276 b 107 56 65 -200 107 -89 b 26 386 107 200 65 314 l 131 386 b 226 56 172 325 226 215 b 131 -276 226 -101 174 -212 "},"":{"ha":525,"x_min":0,"x_max":0,"o":"m 261 363 b 29 640 101 363 29 486 b 263 918 29 792 100 918 b 496 640 421 918 496 794 b 261 363 496 496 429 363 m 263 471 b 340 640 310 471 340 524 b 263 810 340 757 310 810 b 185 640 214 810 185 756 b 263 471 185 525 215 471 "},"":{"ha":417,"x_min":0,"x_max":0,"o":"m 164 369 l 164 779 l 161 779 l 51 731 l 29 844 l 185 911 l 326 911 l 326 369 "},"":{"ha":489,"x_min":0,"x_max":0,"o":"m 21 447 l 106 525 b 268 725 211 618 268 665 b 186 792 268 764 238 792 b 67 753 140 792 97 774 l 25 858 b 226 918 71 892 143 918 b 439 750 365 918 439 844 b 279 519 439 651 363 588 l 246 493 l 246 490 l 449 490 l 449 369 l 21 369 "},"":{"ha":482,"x_min":0,"x_max":0,"o":"m 35 874 b 229 918 75 899 149 918 b 431 781 363 918 431 857 b 315 658 431 721 382 678 l 315 656 b 450 528 392 647 450 599 b 200 363 450 431 353 363 b 13 401 125 363 53 379 l 44 510 b 181 474 74 494 131 474 b 279 536 239 474 281 500 b 160 606 279 583 221 606 l 118 606 l 118 700 l 157 700 b 264 758 203 700 264 715 b 190 807 264 786 242 807 b 65 774 142 807 92 788 "},"":{"ha":546,"x_min":0,"x_max":0,"o":"m 294 369 l 294 494 l 28 494 l 28 583 l 258 915 l 446 915 l 446 599 l 517 599 l 517 494 l 446 494 l 446 369 m 294 700 b 300 803 294 735 299 769 l 297 804 b 247 711 279 769 264 738 l 174 600 l 176 599 l 294 599 "},"":{"ha":483,"x_min":0,"x_max":0,"o":"m 415 793 l 192 793 l 182 725 b 218 726 192 726 207 726 b 375 688 272 726 333 717 b 442 554 415 661 442 614 b 194 363 442 446 349 363 b 29 393 132 363 63 378 l 54 501 b 186 474 79 489 133 474 b 292 546 232 474 292 493 b 135 626 292 594 250 626 b 56 621 106 626 78 624 l 93 911 l 415 911 "},"":{"ha":504,"x_min":0,"x_max":0,"o":"m 410 806 b 358 807 396 807 375 808 b 178 697 256 801 197 760 l 181 697 b 299 735 208 718 251 735 b 474 561 401 735 474 669 b 261 363 474 438 371 363 b 31 600 99 363 31 481 b 126 836 31 696 65 781 b 354 917 183 888 254 913 b 410 915 376 917 397 917 m 258 471 b 326 553 299 471 326 507 b 249 638 326 596 304 638 b 178 590 215 638 188 615 b 174 563 175 583 174 574 b 258 471 174 517 203 471 "},"":{"ha":463,"x_min":0,"x_max":0,"o":"m 442 911 l 442 822 l 213 369 l 56 369 l 286 792 l 286 793 l 32 793 l 32 911 "},"":{"ha":501,"x_min":0,"x_max":0,"o":"m 253 918 b 446 778 386 918 446 846 b 364 661 446 728 415 683 l 364 660 b 468 528 413 642 468 600 b 246 363 468 433 386 363 b 32 513 90 363 32 447 b 133 643 32 578 74 618 l 133 644 b 50 764 81 671 50 715 b 253 918 50 857 139 918 m 251 463 b 319 521 290 463 319 486 b 240 599 319 567 281 589 b 179 528 200 585 179 563 b 251 463 179 493 207 463 m 249 821 b 186 767 208 821 186 797 b 260 700 186 736 215 713 b 311 761 288 708 311 732 b 249 821 311 793 289 821 "},"":{"ha":497,"x_min":0,"x_max":0,"o":"m 81 475 b 135 474 96 474 118 472 b 247 501 175 475 217 485 b 319 589 285 522 310 554 l 317 590 b 207 554 296 571 257 554 b 29 724 115 554 29 614 b 246 918 29 833 124 918 b 467 683 401 918 467 801 b 374 442 467 578 433 494 b 135 364 315 389 235 367 b 81 365 115 363 93 364 m 246 811 b 176 731 208 811 176 779 b 249 651 176 690 199 651 b 315 683 283 651 306 667 b 321 715 319 690 321 701 b 246 811 321 764 301 811 "},"":{"ha":239,"x_min":0,"x_max":0,"o":"m 119 363 b 31 451 65 363 31 400 b 119 540 31 504 67 540 b 208 451 172 540 208 504 b 119 363 208 400 172 363 "},"":{"ha":239,"x_min":0,"x_max":0,"o":"m -11 276 b 57 533 21 363 43 447 l 211 540 b 93 285 179 447 142 363 "},"":{"ha":490,"x_min":0,"x_max":0,"o":"m 197 299 l 197 375 b 43 413 136 378 78 394 l 71 521 b 224 483 111 500 164 483 b 301 526 275 483 301 499 b 210 590 301 554 282 567 b 49 744 111 622 49 658 b 200 899 49 821 103 881 l 200 974 l 290 974 l 290 904 b 421 876 343 903 393 889 l 394 771 b 263 801 372 781 326 801 b 193 761 207 801 193 781 b 299 697 193 736 214 724 b 447 539 406 664 447 617 b 288 382 447 463 392 399 l 288 299 "},"":{"ha":458,"x_min":0,"x_max":0,"o":"m 225 363 l 225 442 b 97 508 171 450 128 474 b 50 643 67 542 50 590 b 226 854 50 740 108 832 l 226 929 l 318 929 l 318 858 b 396 843 342 857 371 853 l 375 738 b 303 751 357 744 333 751 b 199 650 238 751 199 713 b 304 547 199 579 247 547 b 385 561 336 547 364 553 l 403 458 b 318 439 381 449 350 442 l 318 363 "},"":{"ha":286,"x_min":0,"x_max":0,"o":"m 261 678 l 261 578 l 25 578 l 25 678 "},"":{"ha":283,"x_min":0,"x_max":0,"o":"m 258 960 b 176 629 219 889 176 772 b 258 297 176 481 218 372 l 153 297 b 57 629 111 358 57 469 b 153 960 57 789 113 900 "},"":{"ha":283,"x_min":0,"x_max":0,"o":"m 26 297 b 107 629 65 374 107 485 b 26 960 107 774 65 888 l 131 960 b 226 629 172 899 226 789 b 131 297 226 472 174 361 "},"":{"ha":525,"x_min":0,"x_max":0,"o":"m 261 -7 b 29 271 101 -7 29 117 b 263 549 29 422 100 549 b 496 271 421 549 496 425 b 261 -7 496 126 429 -7 m 263 101 b 340 271 310 101 340 154 b 263 440 340 388 310 440 b 185 271 214 440 185 386 b 263 101 185 156 215 101 "},"":{"ha":417,"x_min":0,"x_max":0,"o":"m 164 0 l 164 410 l 161 410 l 51 361 l 29 475 l 185 542 l 326 542 l 326 0 "},"":{"ha":489,"x_min":0,"x_max":0,"o":"m 21 78 l 106 156 b 268 356 211 249 268 296 b 186 422 268 394 238 422 b 67 383 140 422 97 404 l 25 489 b 226 549 71 522 143 549 b 439 381 365 549 439 475 b 279 150 439 282 363 218 l 246 124 l 246 121 l 449 121 l 449 0 l 21 0 "},"":{"ha":482,"x_min":0,"x_max":0,"o":"m 35 504 b 229 549 75 529 149 549 b 431 411 363 549 431 488 b 315 289 431 351 382 308 l 315 286 b 450 158 392 278 450 229 b 200 -7 450 61 353 -7 b 13 32 125 -7 53 10 l 44 140 b 181 104 74 125 131 104 b 279 167 239 104 281 131 b 160 236 279 214 221 236 l 118 236 l 118 331 l 157 331 b 264 389 203 331 264 346 b 190 438 264 417 242 438 b 65 404 142 438 92 418 "},"":{"ha":546,"x_min":0,"x_max":0,"o":"m 294 0 l 294 125 l 28 125 l 28 214 l 258 546 l 446 546 l 446 229 l 517 229 l 517 125 l 446 125 l 446 0 m 294 331 b 300 433 294 365 299 400 l 297 435 b 247 342 279 400 264 368 l 174 231 l 176 229 l 294 229 "},"":{"ha":483,"x_min":0,"x_max":0,"o":"m 415 424 l 192 424 l 182 356 b 218 357 192 357 207 357 b 375 318 272 357 333 347 b 442 185 415 292 442 244 b 194 -7 442 76 349 -7 b 29 24 132 -7 63 8 l 54 132 b 186 104 79 119 133 104 b 292 176 232 104 292 124 b 135 257 292 225 250 257 b 56 251 106 257 78 254 l 93 542 l 415 542 "},"":{"ha":504,"x_min":0,"x_max":0,"o":"m 410 436 b 358 438 396 438 375 439 b 178 328 256 432 197 390 l 181 328 b 299 365 208 349 251 365 b 474 192 401 365 474 300 b 261 -7 474 68 371 -7 b 31 231 99 -7 31 111 b 126 467 31 326 65 411 b 354 547 183 518 254 543 b 410 546 376 547 397 547 m 258 101 b 326 183 299 101 326 138 b 249 268 326 226 304 268 b 178 221 215 268 188 246 b 174 193 175 214 174 204 b 258 101 174 147 203 101 "},"":{"ha":463,"x_min":0,"x_max":0,"o":"m 442 542 l 442 453 l 213 0 l 56 0 l 286 422 l 286 424 l 32 424 l 32 542 "},"":{"ha":501,"x_min":0,"x_max":0,"o":"m 253 549 b 446 408 386 549 446 476 b 364 292 446 358 415 314 l 364 290 b 468 158 413 272 468 231 b 246 -7 468 64 386 -7 b 32 143 90 -7 32 78 b 133 274 32 208 74 249 l 133 275 b 50 394 81 301 50 346 b 253 549 50 488 139 549 m 251 93 b 319 151 290 93 319 117 b 240 229 319 197 281 219 b 179 158 200 215 179 193 b 251 93 179 124 207 93 m 249 451 b 186 397 208 451 186 428 b 260 331 186 367 215 343 b 311 392 288 339 311 363 b 249 451 311 424 289 451 "},"":{"ha":497,"x_min":0,"x_max":0,"o":"m 81 106 b 135 104 96 104 118 103 b 247 132 175 106 217 115 b 319 219 285 153 310 185 l 317 221 b 207 185 296 201 257 185 b 29 354 115 185 29 244 b 246 549 29 464 124 549 b 467 314 401 549 467 432 b 374 72 467 208 433 125 b 135 -6 315 19 235 -3 b 81 -4 115 -7 93 -6 m 246 442 b 176 361 208 442 176 410 b 249 282 176 321 199 282 b 315 314 283 282 306 297 b 321 346 319 321 321 332 b 246 442 321 394 301 442 "},"":{"ha":239,"x_min":0,"x_max":0,"o":"m 119 -7 b 31 82 65 -7 31 31 b 119 171 31 135 67 171 b 208 82 172 171 208 135 b 119 -7 208 31 172 -7 "},"":{"ha":239,"x_min":0,"x_max":0,"o":"m -11 -93 b 57 164 21 -7 43 78 l 211 171 b 93 -85 179 78 142 -7 "},"":{"ha":490,"x_min":0,"x_max":0,"o":"m 197 -71 l 197 6 b 43 43 136 8 78 25 l 71 151 b 224 114 111 131 164 114 b 301 157 275 114 301 129 b 210 221 301 185 282 197 b 49 375 111 253 49 289 b 200 529 49 451 103 511 l 200 604 l 290 604 l 290 535 b 421 507 343 533 393 519 l 394 401 b 263 432 372 411 326 432 b 193 392 207 432 193 411 b 299 328 193 367 214 354 b 447 169 406 294 447 247 b 288 13 447 93 392 29 l 288 -71 "},"":{"ha":458,"x_min":0,"x_max":0,"o":"m 225 -7 l 225 72 b 97 139 171 81 128 104 b 50 274 67 172 50 221 b 226 485 50 371 108 463 l 226 560 l 318 560 l 318 489 b 396 474 342 488 371 483 l 375 368 b 303 382 357 375 333 382 b 199 281 238 382 199 343 b 304 178 199 210 247 178 b 385 192 336 178 364 183 l 403 89 b 318 69 381 79 350 72 l 318 -7 "},"":{"ha":286,"x_min":0,"x_max":0,"o":"m 261 308 l 261 208 l 25 208 l 25 308 "},"":{"ha":283,"x_min":0,"x_max":0,"o":"m 258 590 b 176 260 219 519 176 403 b 258 -72 176 111 218 3 l 153 -72 b 57 260 111 -11 57 100 b 153 590 57 419 113 531 "},"":{"ha":283,"x_min":0,"x_max":0,"o":"m 26 -72 b 107 260 65 4 107 115 b 26 590 107 404 65 518 l 131 590 b 226 260 172 529 226 419 b 131 -72 226 103 174 -8 "},"":{"ha":1069,"x_min":0,"x_max":0,"o":"m 635 608 b 592 614 624 611 610 614 b 428 417 500 614 428 524 b 497 331 428 364 451 331 b 615 476 549 331 603 396 m 758 35 b 504 -15 675 -3 603 -15 b 71 422 274 -15 71 150 b 590 951 71 706 276 951 b 1010 550 835 951 1010 783 b 746 219 1010 347 896 219 b 626 326 681 219 633 253 l 624 326 b 444 219 581 256 518 219 b 289 400 354 219 289 286 b 614 724 289 569 414 724 b 779 689 675 724 744 708 l 738 432 b 772 311 724 350 733 313 b 907 546 832 310 907 386 b 575 867 907 726 790 867 b 176 435 363 867 176 700 b 532 71 176 203 325 71 b 733 115 603 71 678 86 "},"":{"ha":1389,"x_min":0,"x_max":0,"o":"m 1347 522 l 1347 392 l 42 392 l 42 522 "},"":{"ha":694,"x_min":0,"x_max":0,"o":"m 653 522 l 653 392 l 42 392 l 42 522 "},"":{"ha":372,"x_min":0,"x_max":0,"o":"m 76 -10 l 107 621 l 267 621 l 297 -10 m 186 951 b 310 825 260 951 310 899 b 186 700 310 753 261 700 b 63 825 113 700 63 753 b 186 951 63 899 114 951 "},"":{"ha":646,"x_min":0,"x_max":0,"o":"m 179 454 l 344 189 l 197 189 l 36 454 l 197 719 l 344 719 m 449 454 l 614 189 l 467 189 l 306 454 l 467 719 l 614 719 "},"":{"ha":646,"x_min":0,"x_max":0,"o":"m 32 719 l 176 719 l 339 454 l 176 189 l 32 189 l 197 454 m 297 719 l 443 719 l 606 454 l 443 189 l 297 189 l 464 454 "},"":{"ha":375,"x_min":0,"x_max":0,"o":"m 179 454 l 344 189 l 197 189 l 36 454 l 197 719 l 344 719 "},"":{"ha":375,"x_min":0,"x_max":0,"o":"m 31 719 l 176 719 l 339 454 l 176 189 l 31 189 l 197 454 "},"":{"ha":447,"x_min":0,"x_max":0,"o":"m 406 539 l 406 399 l 42 399 l 42 539 "},"":{"ha":618,"x_min":0,"x_max":0,"o":"m 344 951 b 468 825 418 951 468 899 b 344 699 468 751 419 699 b 219 825 271 699 221 751 b 344 951 219 899 271 951 m 432 625 l 433 590 b 353 376 438 519 414 451 b 271 235 307 322 271 282 b 372 153 271 186 303 154 b 511 193 419 153 474 168 l 557 42 b 325 -15 507 13 424 -15 b 58 201 142 -15 58 86 b 178 432 58 308 125 372 b 249 601 228 489 249 538 l 247 625 "},"":{"ha":436,"x_min":0,"x_max":0,"o":"m 42 504 b 147 600 138 508 147 558 b 139 708 147 633 143 671 b 132 818 135 746 132 783 b 343 1006 132 949 214 1006 l 392 1006 l 392 888 l 367 888 b 282 789 304 888 282 850 b 289 710 282 764 286 739 b 296 614 292 682 296 650 b 178 453 297 510 254 469 l 178 450 b 296 289 254 435 297 394 b 289 192 296 253 292 221 b 282 114 286 163 282 138 b 367 14 282 53 303 14 l 392 14 l 392 -103 l 342 -103 b 132 86 218 -103 132 -53 b 139 196 132 121 135 158 b 147 303 143 232 147 269 b 42 399 147 342 138 394 "},"":{"ha":436,"x_min":0,"x_max":0,"o":"m 394 399 b 289 303 300 394 289 342 b 297 196 289 269 293 232 b 306 86 301 158 306 121 b 94 -103 306 -53 219 -103 l 44 -103 l 44 14 l 69 14 b 154 114 133 15 154 53 b 147 192 154 138 151 163 b 140 289 144 221 140 253 b 260 450 139 394 182 435 l 260 453 b 140 614 182 469 139 510 b 147 710 140 650 144 682 b 154 789 151 739 154 764 b 69 888 154 850 132 886 l 44 888 l 44 1006 l 93 1006 b 306 818 224 1006 306 949 b 297 708 306 783 301 746 b 289 600 293 671 289 633 b 394 504 289 558 300 508 "},"":{"ha":436,"x_min":0,"x_max":0,"o":"m 94 -104 l 94 1003 l 379 1003 l 379 886 l 247 886 l 247 13 l 379 13 l 379 -104 "},"":{"ha":436,"x_min":0,"x_max":0,"o":"m 342 1006 l 342 -103 l 58 -103 l 58 14 l 190 14 l 190 889 l 58 889 l 58 1006 "},"":{"ha":436,"x_min":0,"x_max":0,"o":"m 389 1013 b 249 450 310 885 249 699 b 389 -110 249 206 311 21 l 242 -110 b 83 450 167 -1 83 183 b 242 1013 85 721 167 904 "},"":{"ha":436,"x_min":0,"x_max":0,"o":"m 49 -110 b 189 453 125 19 189 207 b 49 1013 189 699 126 883 l 196 1013 b 354 451 269 906 354 724 b 196 -110 353 182 269 0 "},"":{"ha":361,"x_min":0,"x_max":0,"o":"m 181 336 b 56 464 107 336 56 390 b 181 593 56 539 108 593 b 306 464 254 593 304 540 b 181 336 306 390 256 336 "},"≤":{"ha":828,"x_min":0,"x_max":0,"o":"m 81 408 l 81 535 l 747 781 l 747 639 l 260 474 l 260 471 l 747 304 l 747 164 m 82 0 l 82 121 l 747 121 l 747 0 "},"≥":{"ha":828,"x_min":0,"x_max":0,"o":"m 81 164 l 81 304 l 568 471 l 568 474 l 81 639 l 81 781 l 747 535 l 747 408 m 81 0 l 81 121 l 746 121 l 746 0 "},"≈":{"ha":828,"x_min":0,"x_max":0,"o":"m 800 522 b 575 386 753 446 671 386 b 404 438 500 386 449 417 b 251 485 363 454 318 485 b 97 396 185 485 132 438 l 26 483 b 253 614 74 551 154 614 b 424 564 331 614 378 583 b 574 517 465 546 508 517 b 722 604 642 517 694 572 m 803 231 b 575 92 754 151 671 92 b 406 142 503 92 450 122 b 251 189 364 160 319 189 b 99 101 189 189 133 142 l 28 190 b 254 319 76 260 160 319 b 425 269 331 319 381 289 b 575 222 467 251 511 222 b 728 310 644 222 697 269 "},"≠":{"ha":828,"x_min":0,"x_max":0,"o":"m 343 160 l 257 19 l 121 19 l 211 160 l 56 160 l 56 289 l 294 289 l 399 454 l 56 454 l 56 583 l 482 583 l 568 725 l 704 725 l 614 583 l 772 583 l 772 454 l 531 454 l 425 289 l 772 289 l 772 160 "},"∞":{"ha":1044,"x_min":0,"x_max":0,"o":"m 771 135 b 521 276 668 135 589 211 b 261 135 449 210 381 135 b 38 367 128 135 38 235 b 272 599 38 490 131 599 b 522 457 375 599 454 522 b 782 599 594 524 663 599 b 1006 367 915 599 1006 499 b 771 135 1006 243 913 135 m 768 263 b 869 367 825 263 869 310 b 772 471 869 428 826 471 b 607 368 708 471 656 415 b 768 263 650 326 703 263 m 271 263 b 436 365 335 263 388 318 b 275 471 393 407 340 471 b 174 367 218 471 174 424 b 271 263 174 306 217 263 "},"◊":{"ha":797,"x_min":0,"x_max":0,"o":"m 475 -53 l 321 -53 l 56 450 l 321 953 l 475 953 l 742 450 m 415 760 b 397 803 410 772 401 790 l 394 803 b 375 760 389 790 382 772 l 224 454 l 379 140 b 399 99 386 128 394 110 l 401 99 b 421 140 407 110 415 128 l 572 446 "},"∫":{"ha":497,"x_min":0,"x_max":0,"o":"m 467 986 b 418 992 453 989 436 992 b 353 954 390 992 365 978 b 322 749 332 922 322 861 b 343 132 322 538 343 367 b 296 -125 343 15 326 -72 b 113 -229 256 -200 186 -229 b 15 -214 74 -229 35 -222 l 38 -85 b 92 -92 51 -89 71 -92 b 151 -62 115 -92 135 -82 b 186 125 172 -35 186 18 b 167 763 186 365 167 540 b 250 1060 167 914 193 997 b 407 1122 290 1103 347 1122 b 486 1111 439 1122 471 1117 "},"∂":{"ha":804,"x_min":0,"x_max":0,"o":"m 65 936 b 339 1017 106 964 199 1017 b 753 517 571 1017 753 824 b 338 -15 753 168 561 -15 b 31 294 128 -15 31 153 b 339 638 31 485 153 638 b 543 533 447 638 515 576 l 544 533 b 544 557 544 540 544 550 b 311 844 544 725 453 844 b 126 794 221 844 157 813 m 360 154 b 524 374 447 154 511 263 b 389 475 510 418 461 475 b 243 292 303 475 243 394 b 360 154 243 204 293 154 "},"∏":{"ha":921,"x_min":0,"x_max":0,"o":"m 775 729 l 775 -125 l 579 -125 l 579 729 l 339 729 l 339 -125 l 143 -125 l 143 729 l 14 729 l 14 903 l 904 903 l 904 729 "},"√":{"ha":818,"x_min":0,"x_max":0,"o":"m 533 -110 l 392 -110 l 172 461 l 63 418 l 29 513 l 274 613 l 421 200 b 454 86 435 160 446 118 l 457 86 b 481 204 463 115 469 160 l 708 1167 l 850 1167 "},"∑":{"ha":754,"x_min":0,"x_max":0,"o":"m 21 -125 l 21 -6 l 322 385 l 36 765 l 36 903 l 713 903 l 713 729 l 304 729 l 304 725 l 550 393 l 290 54 l 290 49 l 749 49 l 749 -125 "},"∆":{"ha":900,"x_min":0,"x_max":0,"o":"m 22 106 l 322 936 l 579 936 l 874 107 l 874 0 l 22 0 m 631 174 l 499 565 b 442 765 479 626 456 708 l 436 765 b 385 578 425 721 404 639 l 251 174 "},"Ω":{"ha":1033,"x_min":0,"x_max":0,"o":"m 44 0 l 44 160 l 229 160 l 229 165 b 61 513 150 228 61 347 b 525 951 61 756 250 951 b 971 528 813 951 971 746 b 801 165 971 347 875 229 l 801 160 l 989 160 l 989 0 l 576 0 l 576 124 b 753 486 671 196 753 315 b 521 783 753 644 665 783 b 281 486 375 783 281 650 b 460 124 281 333 363 185 l 460 0 "},"π":{"ha":833,"x_min":0,"x_max":0,"o":"m 708 519 l 708 213 b 724 0 708 119 715 43 l 522 0 b 499 197 504 25 499 111 l 499 519 l 351 519 b 276 0 350 363 319 106 l 74 0 b 147 519 114 135 149 375 b 26 510 107 519 61 518 l 4 633 b 247 679 35 663 113 679 l 810 679 l 790 519 "},"ǻ":{"ha":733,"x_min":0,"x_max":0,"o":"m 628 1196 l 424 1035 l 279 1035 l 433 1196 m 368 729 b 207 864 269 729 207 788 b 369 1003 207 940 265 1003 b 525 864 471 1003 525 943 b 368 729 525 788 464 729 m 367 799 b 431 865 408 799 431 829 b 365 933 431 900 408 933 b 304 864 325 933 304 899 b 367 799 304 832 328 799 m 471 0 l 458 68 l 454 68 b 260 -15 410 14 340 -15 b 40 193 122 -15 40 85 b 439 453 40 369 199 454 l 439 463 b 315 550 439 499 419 550 b 128 499 246 550 172 526 l 89 635 b 353 694 136 661 229 694 b 651 401 579 694 651 561 l 651 165 b 661 0 651 100 654 38 m 446 321 b 249 214 335 322 249 296 b 332 133 249 160 285 133 b 442 211 385 133 428 168 b 446 247 444 222 446 235 "},"Ă":{"ha":911,"x_min":0,"x_max":0,"o":"m 310 240 l 243 0 l 24 0 l 310 936 l 588 936 l 878 0 l 650 0 l 578 240 m 547 399 l 489 597 b 442 778 472 653 456 722 l 439 778 b 396 597 425 722 411 651 l 340 399 m 369 1158 b 451 1094 374 1126 394 1094 b 539 1158 510 1094 532 1125 l 647 1158 b 453 983 644 1057 585 983 b 258 1158 317 983 260 1057 "},"Ā":{"ha":911,"x_min":0,"x_max":0,"o":"m 310 240 l 243 0 l 24 0 l 310 936 l 588 936 l 878 0 l 650 0 l 578 240 m 547 399 l 489 597 b 442 778 472 653 456 722 l 439 778 b 396 597 425 722 411 651 l 340 399 m 629 1132 l 629 1019 l 269 1019 l 269 1132 "},"Ą":{"ha":911,"x_min":0,"x_max":0,"o":"m 878 0 l 767 0 b 731 -94 753 -22 731 -60 b 807 -172 731 -140 764 -172 b 867 -162 832 -172 854 -168 l 897 -260 b 756 -304 858 -289 800 -304 b 599 -156 660 -304 599 -256 b 650 1 599 -92 635 -25 l 578 240 l 310 240 l 243 0 l 24 0 l 310 936 l 588 936 m 547 399 l 489 597 b 442 778 472 653 456 722 l 439 778 b 396 597 425 722 411 651 l 340 399 "},"Ć":{"ha":826,"x_min":0,"x_max":0,"o":"m 779 26 b 539 -14 740 7 653 -14 b 49 454 215 -14 49 188 b 560 951 49 774 276 951 b 790 910 669 951 753 929 l 747 742 b 569 776 704 760 644 776 b 271 467 401 776 271 675 b 571 161 271 279 382 161 b 747 192 635 161 706 175 m 746 1158 l 576 988 l 407 988 l 524 1158 "},"Č":{"ha":826,"x_min":0,"x_max":0,"o":"m 779 26 b 539 -14 740 7 653 -14 b 49 454 215 -14 49 188 b 560 951 49 774 276 951 b 790 910 669 951 753 929 l 747 742 b 569 776 704 760 644 776 b 271 467 401 776 271 675 b 571 161 271 279 382 161 b 747 192 635 161 706 175 m 436 988 l 294 1157 l 443 1157 l 514 1071 l 517 1071 l 586 1157 l 733 1157 l 594 988 "},"Ĉ":{"ha":826,"x_min":0,"x_max":0,"o":"m 779 26 b 539 -14 740 7 653 -14 b 49 454 215 -14 49 188 b 560 951 49 774 276 951 b 790 910 669 951 753 929 l 747 742 b 569 776 704 760 644 776 b 271 467 401 776 271 675 b 571 161 271 279 382 161 b 747 192 635 161 706 175 m 590 1161 l 731 992 l 582 992 l 513 1078 l 510 1078 l 439 992 l 292 992 l 432 1161 "},"Ċ":{"ha":826,"x_min":0,"x_max":0,"o":"m 779 26 b 539 -14 740 7 653 -14 b 49 454 215 -14 49 188 b 560 951 49 774 276 951 b 790 910 669 951 753 929 l 747 742 b 569 776 704 760 644 776 b 271 467 401 776 271 675 b 571 161 271 279 382 161 b 747 192 635 161 706 175 m 513 989 b 415 1085 457 989 415 1033 b 513 1181 415 1138 458 1181 b 606 1085 565 1181 606 1138 b 513 989 606 1033 565 989 "},"Ď":{"ha":967,"x_min":0,"x_max":0,"o":"m 92 924 b 378 943 169 936 271 943 b 761 843 556 943 671 911 b 919 490 858 771 919 656 b 764 111 919 311 854 188 b 332 -10 665 29 515 -10 b 92 4 222 -10 144 -3 m 304 160 b 378 156 322 156 351 156 b 694 483 569 154 694 260 b 400 781 696 678 582 781 b 304 772 353 781 322 776 m 368 988 l 228 1157 l 376 1157 l 446 1071 l 449 1071 l 518 1157 l 665 1157 l 526 988 "},"Ĕ":{"ha":742,"x_min":0,"x_max":0,"o":"m 649 396 l 304 396 l 304 174 l 689 174 l 689 0 l 92 0 l 92 936 l 669 936 l 669 763 l 304 763 l 304 568 l 649 568 m 301 1163 b 383 1099 306 1131 325 1099 b 471 1163 440 1099 463 1128 l 578 1163 b 383 986 576 1061 515 986 b 189 1163 247 986 190 1061 "},"Ě":{"ha":742,"x_min":0,"x_max":0,"o":"m 649 396 l 304 396 l 304 174 l 689 174 l 689 0 l 92 0 l 92 936 l 669 936 l 669 763 l 304 763 l 304 568 l 649 568 m 297 986 l 157 1157 l 306 1157 l 375 1069 l 378 1069 l 447 1157 l 594 1157 l 456 986 "},"Ė":{"ha":742,"x_min":0,"x_max":0,"o":"m 649 396 l 304 396 l 304 174 l 689 174 l 689 0 l 92 0 l 92 936 l 669 936 l 669 763 l 304 763 l 304 568 l 649 568 m 378 990 b 281 1085 322 990 281 1035 b 378 1181 281 1139 324 1181 b 471 1085 431 1181 471 1139 b 378 990 471 1035 431 990 "},"Ē":{"ha":742,"x_min":0,"x_max":0,"o":"m 649 396 l 304 396 l 304 174 l 689 174 l 689 0 l 92 0 l 92 936 l 669 936 l 669 763 l 304 763 l 304 568 l 649 568 m 557 1132 l 557 1019 l 197 1019 l 197 1132 "},"Ę":{"ha":742,"x_min":0,"x_max":0,"o":"m 699 -261 b 550 -304 660 -289 608 -304 b 406 -175 460 -304 406 -257 b 503 0 406 -96 458 -35 l 92 0 l 92 936 l 669 936 l 669 763 l 304 763 l 304 568 l 649 568 l 649 396 l 304 396 l 304 174 l 689 174 l 689 0 l 654 0 b 558 -128 608 -31 558 -82 b 611 -172 558 -156 581 -172 b 669 -161 631 -172 650 -169 "},"Ğ":{"ha":947,"x_min":0,"x_max":0,"o":"m 874 43 b 561 -10 808 21 685 -10 b 181 117 390 -10 267 33 b 49 457 94 197 47 319 b 583 946 50 768 276 946 b 843 900 704 946 797 922 l 799 731 b 581 771 747 753 683 771 b 271 468 404 771 271 671 b 565 161 271 275 392 161 b 669 175 614 161 653 167 l 669 371 l 525 371 l 525 536 l 874 536 m 444 1168 b 526 1104 449 1138 469 1104 b 614 1168 585 1104 607 1135 l 722 1168 b 528 993 719 1067 660 993 b 333 1168 390 993 335 1067 "},"Ĝ":{"ha":947,"x_min":0,"x_max":0,"o":"m 874 43 b 561 -10 808 21 685 -10 b 181 117 390 -10 267 33 b 49 457 94 197 47 319 b 583 946 50 768 276 946 b 843 900 704 946 797 922 l 799 731 b 581 771 747 753 683 771 b 271 468 404 771 271 671 b 565 161 271 275 392 161 b 669 175 614 161 653 167 l 669 371 l 525 371 l 525 536 l 874 536 m 599 1161 l 739 992 l 590 992 l 521 1078 l 518 1078 l 449 992 l 301 992 l 440 1161 "},"Ģ":{"ha":947,"x_min":0,"x_max":0,"o":"m 874 43 b 561 -10 808 21 685 -10 b 181 117 390 -10 267 33 b 49 457 94 197 47 319 b 583 946 50 768 276 946 b 843 900 704 946 797 922 l 799 731 b 581 771 747 753 683 771 b 271 468 404 771 271 671 b 565 161 271 275 392 161 b 669 175 614 161 653 167 l 669 371 l 525 371 l 525 536 l 874 536 m 368 -246 b 458 -161 414 -236 458 -208 b 418 -78 458 -129 436 -99 l 565 -54 b 619 -164 593 -75 619 -114 b 399 -335 619 -279 521 -332 "},"Ġ":{"ha":947,"x_min":0,"x_max":0,"o":"m 874 43 b 561 -10 808 21 685 -10 b 181 117 390 -10 267 33 b 49 457 94 197 47 319 b 583 946 50 768 276 946 b 843 900 704 946 797 922 l 799 731 b 581 771 747 753 683 771 b 271 468 404 771 271 671 b 565 161 271 275 392 161 b 669 175 614 161 653 167 l 669 371 l 525 371 l 525 536 l 874 536 m 522 989 b 425 1085 467 989 425 1033 b 522 1181 425 1138 467 1181 b 615 1085 575 1181 615 1138 b 522 989 615 1033 575 989 "},"":{"ha":947,"x_min":0,"x_max":0,"o":"m 874 43 b 561 -10 808 21 685 -10 b 181 117 390 -10 267 33 b 49 457 94 197 47 319 b 583 946 50 768 276 946 b 843 900 704 946 797 922 l 799 731 b 581 771 747 753 683 771 b 271 468 404 771 271 671 b 565 161 271 275 392 161 b 669 175 614 161 653 167 l 669 371 l 525 371 l 525 536 l 874 536 m 342 993 b 449 1169 338 1110 382 1169 b 538 1142 486 1169 511 1157 b 599 1115 560 1128 581 1115 b 636 1175 622 1115 631 1129 l 731 1175 b 621 1001 735 1050 694 1001 b 531 1028 583 1001 556 1014 b 472 1053 507 1040 490 1053 b 439 993 454 1053 442 1032 "},"Ĥ":{"ha":957,"x_min":0,"x_max":0,"o":"m 304 936 l 304 576 l 653 576 l 653 936 l 864 936 l 864 0 l 653 0 l 653 392 l 304 392 l 304 0 l 92 0 l 92 936 m 557 1157 l 699 986 l 550 986 l 479 1072 l 476 1072 l 407 986 l 260 986 l 399 1157 "},"Ĭ":{"ha":396,"x_min":0,"x_max":0,"o":"m 304 936 l 304 0 l 92 0 l 92 936 m 115 1165 b 197 1101 119 1133 139 1101 b 285 1165 256 1101 276 1132 l 392 1165 b 197 990 390 1064 329 990 b 3 1165 61 990 6 1064 "},"İ":{"ha":396,"x_min":0,"x_max":0,"o":"m 304 936 l 304 0 l 92 0 l 92 936 m 200 990 b 103 1085 144 990 103 1035 b 200 1181 103 1139 146 1181 b 293 1085 253 1181 293 1139 b 200 990 293 1035 253 990 "},"Ī":{"ha":396,"x_min":0,"x_max":0,"o":"m 304 936 l 304 0 l 92 0 l 92 936 m 378 1132 l 378 1019 l 18 1019 l 18 1132 "},"Į":{"ha":396,"x_min":0,"x_max":0,"o":"m 304 0 l 208 0 b 178 -96 194 -25 178 -61 b 254 -174 178 -143 211 -174 b 314 -164 281 -174 301 -169 l 344 -261 b 203 -306 306 -292 247 -306 b 46 -158 107 -306 46 -257 b 92 0 46 -93 79 -26 l 92 936 l 304 936 "},"Ĩ":{"ha":396,"x_min":0,"x_max":0,"o":"m 304 936 l 304 0 l 92 0 l 92 936 m 4 993 b 111 1169 0 1110 44 1169 b 199 1142 147 1169 174 1157 b 261 1115 222 1128 243 1115 b 299 1175 283 1115 293 1129 l 393 1175 b 283 1001 396 1050 356 1001 b 193 1028 246 1001 218 1014 b 135 1053 169 1040 153 1053 b 101 993 117 1053 104 1032 "},"Ĵ":{"ha":571,"x_min":0,"x_max":0,"o":"m 275 936 l 486 936 l 486 344 b 153 -15 486 78 358 -15 b -1 7 104 -15 40 -7 l 22 178 b 131 161 51 168 89 161 b 275 347 219 161 275 201 m 457 1157 l 597 986 l 449 986 l 379 1072 l 376 1072 l 307 986 l 160 986 l 299 1157 "},"Ķ":{"ha":853,"x_min":0,"x_max":0,"o":"m 92 936 l 301 936 l 301 522 l 306 522 b 369 625 326 558 349 592 l 582 936 l 842 936 l 532 538 l 858 0 l 611 0 l 382 404 l 301 306 l 301 0 l 92 0 m 303 -246 b 394 -161 349 -236 394 -207 b 353 -78 394 -128 371 -99 l 500 -53 b 554 -162 528 -74 554 -114 b 333 -335 554 -278 456 -331 "},"Ĺ":{"ha":710,"x_min":0,"x_max":0,"o":"m 92 936 l 304 936 l 304 178 l 676 178 l 676 0 l 92 0 m 451 1157 l 281 986 l 113 986 l 229 1157 "},"Ľ":{"ha":710,"x_min":0,"x_max":0,"o":"m 92 936 l 304 936 l 304 178 l 676 178 l 676 0 l 92 0 m 376 763 b 468 847 422 772 468 801 b 426 931 468 879 446 910 l 574 954 b 628 844 601 935 628 894 b 408 674 628 729 529 676 "},"Ļ":{"ha":710,"x_min":0,"x_max":0,"o":"m 92 936 l 304 936 l 304 178 l 676 178 l 676 0 l 92 0 m 235 -246 b 326 -161 281 -236 326 -208 b 286 -78 326 -129 304 -99 l 432 -54 b 486 -164 460 -75 486 -114 b 267 -335 486 -279 388 -332 "},"Ŀ":{"ha":710,"x_min":0,"x_max":0,"o":"m 92 936 l 304 936 l 304 178 l 676 178 l 676 0 l 92 0 m 542 431 b 444 525 488 431 444 475 b 543 621 444 579 488 621 b 635 525 594 621 635 579 b 542 431 635 475 594 431 "},"":{"ha":1175,"x_min":0,"x_max":0,"o":"m 883 358 b 875 743 879 471 875 607 l 871 743 b 767 381 842 624 803 490 l 653 15 l 488 15 l 388 378 b 303 743 357 488 325 621 l 300 743 b 283 356 294 617 290 472 l 267 0 l 71 0 l 131 936 l 413 936 l 504 624 b 583 289 533 515 563 399 l 588 289 b 676 625 614 397 646 521 l 776 936 l 1053 936 l 1104 0 l 897 0 m 667 1157 l 807 986 l 658 986 l 588 1072 l 585 1072 l 515 986 l 368 986 l 507 1157 "},"Ń":{"ha":958,"x_min":0,"x_max":0,"o":"m 92 0 l 92 936 l 339 936 l 533 593 b 686 272 589 494 644 378 l 690 272 b 672 663 676 396 672 522 l 672 936 l 867 936 l 867 0 l 644 0 l 444 361 b 282 692 389 461 328 582 l 278 690 b 286 282 283 567 286 435 l 286 0 m 711 1157 l 542 986 l 372 986 l 489 1157 "},"Ň":{"ha":958,"x_min":0,"x_max":0,"o":"m 92 0 l 92 936 l 339 936 l 533 593 b 686 272 589 494 644 378 l 690 272 b 672 663 676 396 672 522 l 672 936 l 867 936 l 867 0 l 644 0 l 444 361 b 282 692 389 461 328 582 l 278 690 b 286 282 283 567 286 435 l 286 0 m 406 983 l 265 1154 l 414 1154 l 483 1068 l 486 1068 l 556 1154 l 703 1154 l 564 983 "},"":{"ha":958,"x_min":0,"x_max":0,"o":"m 92 0 l 92 936 l 339 936 l 533 593 b 686 272 589 494 644 378 l 690 272 b 672 663 676 396 672 522 l 672 936 l 867 936 l 867 0 l 644 0 l 444 361 b 282 692 389 461 328 582 l 278 690 b 286 282 283 567 286 435 l 286 0 m 558 1157 l 699 986 l 550 986 l 481 1072 l 478 1072 l 408 986 l 261 986 l 400 1157 "},"Ņ":{"ha":958,"x_min":0,"x_max":0,"o":"m 92 0 l 92 936 l 339 936 l 533 593 b 686 272 589 494 644 378 l 690 272 b 672 663 676 396 672 522 l 672 936 l 867 936 l 867 0 l 644 0 l 444 361 b 282 692 389 461 328 582 l 278 690 b 286 282 283 567 286 435 l 286 0 m 353 -243 b 444 -158 399 -233 444 -206 b 403 -75 444 -126 421 -96 l 550 -51 b 604 -161 578 -72 604 -111 b 383 -332 604 -276 506 -329 "},"Ŏ":{"ha":996,"x_min":0,"x_max":0,"o":"m 504 951 b 949 478 792 951 949 736 b 489 -15 949 171 763 -15 b 49 461 211 -15 49 194 b 504 951 49 742 228 951 m 499 783 b 272 465 356 783 272 647 b 500 153 272 282 358 153 b 725 471 643 153 725 289 b 499 783 725 639 644 783 m 415 1171 b 497 1107 419 1140 439 1107 b 585 1171 556 1107 578 1138 l 693 1171 b 497 996 690 1071 631 996 b 303 1171 361 996 306 1069 "},"Ő":{"ha":996,"x_min":0,"x_max":0,"o":"m 504 951 b 949 478 792 951 949 736 b 489 -15 949 171 763 -15 b 49 461 211 -15 49 194 b 504 951 49 742 228 951 m 499 783 b 272 465 356 783 272 647 b 500 153 272 282 358 153 b 725 471 643 153 725 289 b 499 783 725 639 644 783 m 588 1160 l 447 999 l 301 999 l 392 1160 m 839 1160 l 699 999 l 553 999 l 644 1160 "},"Ō":{"ha":996,"x_min":0,"x_max":0,"o":"m 504 951 b 949 478 792 951 949 736 b 489 -15 949 171 763 -15 b 49 461 211 -15 49 194 b 504 951 49 742 228 951 m 499 783 b 272 465 356 783 272 647 b 500 153 272 282 358 153 b 725 471 643 153 725 289 b 499 783 725 639 644 783 m 679 1135 l 679 1022 l 319 1022 l 319 1135 "},"Ǿ":{"ha":996,"x_min":0,"x_max":0,"o":"m 100 -3 l 178 115 b 49 467 94 203 49 328 b 500 951 49 742 229 951 b 707 903 576 951 647 935 l 783 1015 l 904 935 l 825 818 b 949 474 907 731 949 606 b 499 -15 949 168 758 -15 b 299 32 425 -15 357 1 l 214 -92 m 608 753 b 500 786 578 774 542 786 b 261 468 350 786 261 653 b 297 297 261 404 272 353 l 299 297 m 396 182 b 499 150 424 161 457 150 b 736 471 646 150 736 281 b 706 629 736 522 726 575 l 701 631 m 733 1164 l 563 993 l 394 993 l 511 1164 "},"Ŕ":{"ha":824,"x_min":0,"x_max":0,"o":"m 92 924 b 374 943 160 935 261 943 b 676 869 513 943 610 922 b 763 674 732 825 763 760 b 597 443 763 554 678 472 l 597 439 b 722 264 663 413 699 350 b 799 0 751 158 781 36 l 582 0 b 517 218 567 26 544 103 b 365 368 492 335 451 367 l 301 368 l 301 0 l 92 0 m 301 521 l 385 521 b 553 656 490 521 553 574 b 397 786 553 742 494 785 b 301 779 346 786 317 782 m 633 1158 l 463 988 l 293 988 l 411 1158 "},"Ř":{"ha":824,"x_min":0,"x_max":0,"o":"m 92 924 b 374 943 160 935 261 943 b 676 869 513 943 610 922 b 763 674 732 825 763 760 b 597 443 763 554 678 472 l 597 439 b 722 264 663 413 699 350 b 799 0 751 158 781 36 l 582 0 b 517 218 567 26 544 103 b 365 368 492 335 451 367 l 301 368 l 301 0 l 92 0 m 301 521 l 385 521 b 553 656 490 521 553 574 b 397 786 553 742 494 785 b 301 779 346 786 317 782 m 326 988 l 186 1157 l 335 1157 l 404 1071 l 407 1071 l 476 1157 l 624 1157 l 485 988 "},"Ŗ":{"ha":824,"x_min":0,"x_max":0,"o":"m 92 924 b 374 943 160 935 261 943 b 676 869 513 943 610 922 b 763 674 732 825 763 760 b 597 443 763 554 678 472 l 597 439 b 722 264 663 413 699 350 b 799 0 751 158 781 36 l 582 0 b 517 218 567 26 544 103 b 365 368 492 335 451 367 l 301 368 l 301 0 l 92 0 m 301 521 l 385 521 b 553 656 490 521 553 574 b 397 786 553 742 494 785 b 301 779 346 786 317 782 m 285 -243 b 375 -158 331 -233 375 -204 b 335 -75 375 -126 353 -96 l 482 -51 b 536 -161 510 -71 536 -111 b 315 -332 536 -276 438 -329 "},"Ś":{"ha":750,"x_min":0,"x_max":0,"o":"m 99 218 b 333 160 156 189 243 160 b 482 261 431 160 482 200 b 325 393 482 319 438 353 b 68 669 169 447 68 533 b 422 951 68 829 201 951 b 661 904 528 951 606 929 l 614 733 b 418 778 576 751 510 778 b 282 688 326 778 282 736 b 456 556 282 628 335 601 b 699 276 621 494 699 408 b 321 -14 699 119 578 -14 b 56 43 214 -14 108 14 m 629 1158 l 458 988 l 289 988 l 407 1158 "},"Ş":{"ha":750,"x_min":0,"x_max":0,"o":"m 614 733 b 418 778 576 751 510 778 b 282 688 326 778 282 736 b 456 556 282 628 335 601 b 699 276 621 494 699 408 b 429 -4 699 143 613 28 l 403 -61 b 504 -175 456 -74 504 -110 b 339 -303 504 -271 418 -303 b 219 -276 296 -303 251 -294 l 247 -190 b 325 -210 267 -201 299 -210 b 375 -176 353 -210 375 -200 b 265 -124 375 -147 342 -132 l 315 -14 b 56 43 210 -12 107 14 l 99 218 b 333 160 156 189 243 160 b 482 261 431 160 482 200 b 325 393 482 319 438 353 b 68 669 169 447 68 533 b 422 951 68 829 201 951 b 661 904 528 951 606 929 "},"Ŝ":{"ha":750,"x_min":0,"x_max":0,"o":"m 99 218 b 333 160 156 189 243 160 b 482 261 431 160 482 200 b 325 393 482 319 438 353 b 68 669 169 447 68 533 b 422 951 68 829 201 951 b 661 904 528 951 606 929 l 614 733 b 418 778 576 751 510 778 b 282 688 326 778 282 736 b 456 556 282 628 335 601 b 699 276 621 494 699 408 b 321 -14 699 119 578 -14 b 56 43 214 -14 108 14 m 457 1158 l 597 988 l 449 988 l 379 1074 l 376 1074 l 307 988 l 160 988 l 299 1158 "},"Ș":{"ha":750,"x_min":0,"x_max":0,"o":"m 99 218 b 333 160 156 189 243 160 b 482 261 431 160 482 200 b 325 393 482 319 438 353 b 68 669 169 447 68 533 b 422 951 68 829 201 951 b 661 904 528 951 606 929 l 614 733 b 418 778 576 751 510 778 b 282 688 326 778 282 736 b 456 556 282 628 335 601 b 699 276 621 494 699 408 b 321 -14 699 119 578 -14 b 56 43 214 -14 108 14 m 244 -246 b 336 -161 290 -236 336 -208 b 294 -78 336 -129 313 -99 l 442 -54 b 496 -164 469 -75 496 -114 b 276 -335 496 -279 397 -332 "},"Ť":{"ha":761,"x_min":0,"x_max":0,"o":"m 272 758 l 21 758 l 21 936 l 740 936 l 740 758 l 485 758 l 485 0 l 272 0 m 300 986 l 160 1157 l 308 1157 l 379 1069 l 382 1069 l 451 1157 l 599 1157 l 460 986 "},"Ț":{"ha":761,"x_min":0,"x_max":0,"o":"m 272 758 l 21 758 l 21 936 l 740 936 l 740 758 l 485 758 l 485 0 l 272 0 m 235 -246 b 326 -161 281 -236 326 -208 b 286 -78 326 -129 304 -99 l 433 -54 b 486 -164 461 -75 486 -114 b 267 -335 486 -279 388 -332 "},"Ŭ":{"ha":947,"x_min":0,"x_max":0,"o":"m 303 936 l 303 397 b 472 154 303 236 364 154 b 644 397 583 154 644 232 l 644 936 l 856 936 l 856 411 b 465 -15 856 122 710 -15 b 90 414 229 -15 90 115 l 90 936 m 390 1161 b 472 1097 394 1131 415 1097 b 560 1161 531 1097 553 1128 l 668 1161 b 472 986 665 1060 606 986 b 278 1161 336 986 281 1060 "},"Ű":{"ha":947,"x_min":0,"x_max":0,"o":"m 303 936 l 303 397 b 472 154 303 236 364 154 b 644 397 583 154 644 232 l 644 936 l 856 936 l 856 411 b 465 -15 856 122 710 -15 b 90 414 229 -15 90 115 l 90 936 m 554 1160 l 413 997 l 268 997 l 358 1160 m 806 1160 l 665 997 l 519 997 l 610 1160 "},"Ū":{"ha":947,"x_min":0,"x_max":0,"o":"m 303 936 l 303 397 b 472 154 303 236 364 154 b 644 397 583 154 644 232 l 644 936 l 856 936 l 856 411 b 465 -15 856 122 710 -15 b 90 414 229 -15 90 115 l 90 936 m 654 1132 l 654 1019 l 294 1019 l 294 1132 "},"Ų":{"ha":947,"x_min":0,"x_max":0,"o":"m 658 -258 b 508 -303 618 -286 563 -303 b 364 -179 415 -303 364 -256 b 444 -14 364 -110 411 -50 b 436 -14 442 -14 439 -14 b 90 414 221 -6 90 125 l 90 936 l 303 936 l 303 397 b 472 154 303 236 364 154 b 644 397 583 154 644 232 l 644 936 l 856 936 l 856 411 b 588 0 856 174 757 39 b 513 -121 553 -32 513 -79 b 569 -172 513 -154 539 -172 b 629 -160 589 -172 610 -168 "},"Ů":{"ha":947,"x_min":0,"x_max":0,"o":"m 303 936 l 303 397 b 472 154 303 236 364 154 b 644 397 583 154 644 232 l 644 936 l 856 936 l 856 411 b 465 -15 856 122 710 -15 b 90 414 229 -15 90 115 l 90 936 m 475 1231 b 633 1093 579 1231 633 1169 b 475 958 633 1018 574 958 b 314 1092 374 958 314 1018 b 475 1231 314 1168 371 1231 m 472 1160 b 411 1093 432 1160 411 1126 b 472 1029 411 1061 435 1029 b 535 1093 511 1029 535 1058 b 472 1160 535 1128 511 1160 "},"Ũ":{"ha":947,"x_min":0,"x_max":0,"o":"m 303 936 l 303 397 b 472 154 303 236 364 154 b 644 397 583 154 644 232 l 644 936 l 856 936 l 856 411 b 465 -15 856 122 710 -15 b 90 414 229 -15 90 115 l 90 936 m 279 993 b 386 1169 275 1110 319 1169 b 475 1142 424 1169 449 1157 b 536 1115 497 1128 518 1115 b 574 1175 558 1115 568 1129 l 668 1175 b 558 1001 672 1050 632 1001 b 468 1028 521 1001 493 1014 b 410 1053 444 1040 428 1053 b 376 993 392 1053 379 1032 "},"Ẃ":{"ha":1233,"x_min":0,"x_max":0,"o":"m 243 0 l 21 936 l 247 936 l 318 550 b 374 224 339 439 358 318 l 376 224 b 438 553 392 325 414 438 l 517 936 l 742 936 l 817 542 b 867 228 838 432 853 332 l 869 228 b 924 553 883 332 904 442 l 1000 936 l 1215 936 l 974 0 l 744 0 l 665 403 b 621 692 647 497 632 585 l 618 692 b 564 403 601 586 586 497 l 475 0 m 872 1157 l 703 986 l 533 986 l 650 1157 "},"Ŵ":{"ha":1233,"x_min":0,"x_max":0,"o":"m 243 0 l 21 936 l 247 936 l 318 550 b 374 224 339 439 358 318 l 376 224 b 438 553 392 325 414 438 l 517 936 l 742 936 l 817 542 b 867 228 838 432 853 332 l 869 228 b 924 553 883 332 904 442 l 1000 936 l 1215 936 l 974 0 l 744 0 l 665 403 b 621 692 647 497 632 585 l 618 692 b 564 403 601 586 586 497 l 475 0 m 703 1157 l 843 986 l 694 986 l 625 1072 l 622 1072 l 553 986 l 406 986 l 544 1157 "},"Ẅ":{"ha":1233,"x_min":0,"x_max":0,"o":"m 243 0 l 21 936 l 247 936 l 318 550 b 374 224 339 439 358 318 l 376 224 b 438 553 392 325 414 438 l 517 936 l 742 936 l 817 542 b 867 228 838 432 853 332 l 869 228 b 924 553 883 332 904 442 l 1000 936 l 1215 936 l 974 0 l 744 0 l 665 403 b 621 692 647 497 632 585 l 618 692 b 564 403 601 586 586 497 l 475 0 m 488 990 b 390 1085 432 990 390 1033 b 488 1181 390 1139 433 1181 b 579 1085 539 1181 579 1139 b 488 990 579 1033 539 990 m 775 990 b 681 1085 719 990 681 1033 b 775 1181 681 1139 721 1181 b 868 1085 828 1181 868 1139 b 775 990 868 1033 828 990 "},"Ẁ":{"ha":1233,"x_min":0,"x_max":0,"o":"m 243 0 l 21 936 l 247 936 l 318 550 b 374 224 339 439 358 318 l 376 224 b 438 553 392 325 414 438 l 517 936 l 742 936 l 817 542 b 867 228 838 432 853 332 l 869 228 b 924 553 883 332 904 442 l 1000 936 l 1215 936 l 974 0 l 744 0 l 665 403 b 621 692 647 497 632 585 l 618 692 b 564 403 601 586 586 497 l 475 0 m 603 1157 l 719 989 l 550 989 l 381 1157 "},"Ŷ":{"ha":838,"x_min":0,"x_max":0,"o":"m 308 0 l 308 383 l 13 936 l 254 936 l 350 711 b 422 532 379 643 399 593 l 425 532 b 496 711 446 590 468 644 l 590 936 l 828 936 l 519 390 l 519 0 m 497 1157 l 638 986 l 489 986 l 419 1072 l 417 1072 l 347 986 l 200 986 l 339 1157 "},"Ỳ":{"ha":838,"x_min":0,"x_max":0,"o":"m 308 0 l 308 383 l 13 936 l 254 936 l 350 711 b 422 532 379 643 399 593 l 425 532 b 496 711 446 590 468 644 l 590 936 l 828 936 l 519 390 l 519 0 m 415 1154 l 533 986 l 364 986 l 193 1154 "},"Ȳ":{"ha":838,"x_min":0,"x_max":0,"o":"m 308 0 l 308 383 l 13 936 l 254 936 l 350 711 b 422 532 379 643 399 593 l 425 532 b 496 711 446 590 468 644 l 590 936 l 828 936 l 519 390 l 519 0 m 599 1132 l 599 1019 l 239 1019 l 239 1132 "},"Ź":{"ha":801,"x_min":0,"x_max":0,"o":"m 32 114 l 478 756 l 478 761 l 74 761 l 74 936 l 753 936 l 753 814 l 317 181 l 317 175 l 760 175 l 760 0 l 32 0 m 636 1157 l 467 986 l 297 986 l 414 1157 "},"Ż":{"ha":801,"x_min":0,"x_max":0,"o":"m 32 114 l 478 756 l 478 761 l 74 761 l 74 936 l 753 936 l 753 814 l 317 181 l 317 175 l 760 175 l 760 0 l 32 0 m 407 989 b 310 1085 351 989 310 1033 b 407 1181 310 1139 353 1181 b 500 1085 460 1181 500 1139 b 407 989 500 1033 460 989 "},"Ǽ":{"ha":1206,"x_min":0,"x_max":0,"o":"m 3 0 l 403 936 l 1115 936 l 1115 763 l 731 763 l 756 564 l 1110 564 l 1110 392 l 783 392 l 811 174 l 1167 174 l 1167 0 l 629 0 l 596 256 l 324 256 l 221 0 m 572 425 l 544 651 b 528 788 539 693 533 742 l 524 788 b 476 650 508 742 490 690 l 386 425 m 890 1157 l 719 986 l 550 986 l 668 1157 "},"ă":{"ha":733,"x_min":0,"x_max":0,"o":"m 471 0 l 458 68 l 454 68 b 260 -15 410 14 340 -15 b 40 193 122 -15 40 85 b 439 453 40 369 199 454 l 439 463 b 315 550 439 499 419 550 b 128 499 246 550 172 526 l 89 635 b 353 694 136 661 229 694 b 651 401 579 694 651 561 l 651 165 b 661 0 651 100 654 38 m 446 321 b 249 214 335 322 249 296 b 332 133 249 160 285 133 b 442 211 385 133 428 168 b 446 247 444 222 446 235 m 283 961 b 365 876 290 913 317 876 b 450 961 422 876 447 918 l 560 961 b 365 764 558 844 492 764 b 174 961 236 764 175 850 "},"ā":{"ha":733,"x_min":0,"x_max":0,"o":"m 471 0 l 458 68 l 454 68 b 260 -15 410 14 340 -15 b 40 193 122 -15 40 85 b 439 453 40 369 199 454 l 439 463 b 315 550 439 499 419 550 b 128 499 246 550 172 526 l 89 635 b 353 694 136 661 229 694 b 651 401 579 694 651 561 l 651 165 b 661 0 651 100 654 38 m 446 321 b 249 214 335 322 249 296 b 332 133 249 160 285 133 b 442 211 385 133 428 168 b 446 247 444 222 446 235 m 542 924 l 542 808 l 194 808 l 194 924 "},"ą":{"ha":733,"x_min":0,"x_max":0,"o":"m 89 635 b 353 694 136 661 229 694 b 651 401 579 694 651 561 l 651 165 b 663 0 651 99 654 38 l 586 0 b 557 -99 574 -25 557 -64 b 624 -171 557 -144 585 -171 b 685 -157 649 -171 667 -165 l 715 -257 b 568 -304 668 -292 617 -304 b 425 -162 486 -304 425 -256 b 471 1 425 -92 457 -29 l 458 68 l 454 68 b 260 -15 410 14 340 -15 b 40 193 122 -15 40 85 b 439 453 40 369 199 454 l 439 463 b 315 550 439 499 419 550 b 128 499 246 550 172 526 m 446 321 b 249 214 335 322 249 296 b 332 133 249 160 285 133 b 442 211 385 133 428 168 b 446 247 444 222 446 235 "},"ć":{"ha":626,"x_min":0,"x_max":0,"o":"m 594 17 b 406 -14 557 0 486 -14 b 46 333 186 -14 46 119 b 435 694 46 532 182 694 b 596 668 490 694 551 685 l 563 511 b 444 532 538 522 500 532 b 263 342 333 532 261 453 b 449 151 263 217 346 151 b 569 172 499 151 538 160 m 600 975 l 431 764 l 285 764 l 404 975 "},"č":{"ha":626,"x_min":0,"x_max":0,"o":"m 594 17 b 406 -14 557 0 486 -14 b 46 333 186 -14 46 119 b 435 694 46 532 182 694 b 596 668 490 694 551 685 l 563 511 b 444 532 538 522 500 532 b 263 342 333 532 261 453 b 449 151 263 217 346 151 b 569 172 499 151 538 160 m 301 764 l 164 975 l 301 975 l 372 854 l 375 854 l 444 975 l 583 975 l 444 764 "},"ĉ":{"ha":626,"x_min":0,"x_max":0,"o":"m 594 17 b 406 -14 557 0 486 -14 b 46 333 186 -14 46 119 b 435 694 46 532 182 694 b 596 668 490 694 551 685 l 563 511 b 444 532 538 522 500 532 b 263 342 333 532 261 453 b 449 151 263 217 346 151 b 569 172 499 151 538 160 m 440 975 l 578 764 l 440 764 l 369 885 l 367 885 l 297 764 l 160 764 l 297 975 "},"ċ":{"ha":626,"x_min":0,"x_max":0,"o":"m 594 17 b 406 -14 557 0 486 -14 b 46 333 186 -14 46 119 b 435 694 46 532 182 694 b 596 668 490 694 551 685 l 563 511 b 444 532 538 522 500 532 b 263 342 333 532 261 453 b 449 151 263 217 346 151 b 569 172 499 151 538 160 m 386 774 b 288 871 329 774 288 818 b 386 969 288 928 331 969 b 481 871 440 969 481 928 b 386 774 481 818 440 774 "},"ď":{"ha":842,"x_min":0,"x_max":0,"o":"m 743 986 l 743 203 b 749 0 743 126 746 46 l 561 0 l 551 100 l 549 100 b 336 -15 506 24 424 -15 b 46 333 175 -15 46 122 b 350 694 44 563 188 694 b 529 618 433 694 499 665 l 532 618 l 532 986 m 532 392 b 529 429 532 403 531 418 b 406 533 517 486 471 533 b 260 340 310 533 260 447 b 404 153 260 225 317 153 b 526 254 465 153 514 194 b 532 303 531 269 532 285 m 799 744 b 838 885 818 779 838 832 b 810 981 838 921 824 956 l 942 1003 b 986 899 965 986 986 943 b 889 688 986 775 911 708 "},"ĕ":{"ha":733,"x_min":0,"x_max":0,"o":"m 247 272 b 439 143 254 185 340 143 b 626 171 511 143 569 153 l 654 28 b 408 -14 585 0 500 -14 b 46 332 178 -14 46 119 b 389 694 46 504 153 694 b 692 356 608 694 692 524 b 685 272 692 319 688 288 m 496 417 b 376 554 496 468 474 554 b 246 417 288 554 251 474 m 289 961 b 371 876 296 913 322 876 b 456 961 428 876 453 918 l 565 961 b 371 764 564 844 497 764 b 179 961 242 764 181 850 "},"ě":{"ha":733,"x_min":0,"x_max":0,"o":"m 247 272 b 439 143 254 185 340 143 b 626 171 511 143 569 153 l 654 28 b 408 -14 585 0 500 -14 b 46 332 178 -14 46 119 b 389 694 46 504 153 694 b 692 356 608 694 692 524 b 685 272 692 319 688 288 m 496 417 b 376 554 496 468 474 554 b 246 417 288 554 251 474 m 300 764 l 163 975 l 300 975 l 369 854 l 372 854 l 443 975 l 581 975 l 443 764 "},"ė":{"ha":733,"x_min":0,"x_max":0,"o":"m 247 272 b 439 143 254 185 340 143 b 626 171 511 143 569 153 l 654 28 b 408 -14 585 0 500 -14 b 46 332 178 -14 46 119 b 389 694 46 504 153 694 b 692 356 608 694 692 524 b 685 272 692 319 688 288 m 496 417 b 376 554 496 468 474 554 b 246 417 288 554 251 474 m 376 774 b 278 871 319 774 278 818 b 376 969 278 928 321 969 b 471 871 431 969 471 928 b 376 774 471 818 432 774 "},"ē":{"ha":733,"x_min":0,"x_max":0,"o":"m 247 272 b 439 143 254 185 340 143 b 626 171 511 143 569 153 l 654 28 b 408 -14 585 0 500 -14 b 46 332 178 -14 46 119 b 389 694 46 504 153 694 b 692 356 608 694 692 524 b 685 272 692 319 688 288 m 496 417 b 376 554 496 468 474 554 b 246 417 288 554 251 474 m 544 924 l 544 808 l 197 808 l 197 924 "},"ę":{"ha":733,"x_min":0,"x_max":0,"o":"m 617 -257 b 468 -304 576 -287 524 -304 b 326 -185 379 -304 326 -258 b 419 -15 326 -111 381 -49 l 419 -14 b 401 -14 414 -14 408 -14 b 46 332 176 -14 46 121 b 389 694 46 504 153 694 b 692 356 608 694 692 524 b 685 272 692 319 688 288 l 247 272 b 439 143 254 185 340 143 b 626 171 511 143 569 153 l 654 28 b 594 7 635 19 611 13 b 475 -126 544 -17 475 -79 b 522 -172 475 -158 499 -172 b 585 -158 542 -172 564 -168 m 496 417 b 376 554 496 468 474 554 b 246 417 288 554 251 474 "},"ğ":{"ha":813,"x_min":0,"x_max":0,"o":"m 733 679 b 728 478 731 636 728 579 l 728 99 b 625 -207 728 -32 701 -139 b 349 -290 550 -271 449 -290 b 104 -237 260 -290 165 -272 l 146 -78 b 343 -129 189 -103 264 -129 b 519 50 443 -129 519 -75 l 519 94 l 517 94 b 333 6 476 38 411 6 b 46 338 165 6 46 142 b 354 694 46 556 188 694 b 540 599 447 694 506 654 l 543 599 l 550 679 m 517 403 b 513 442 517 417 515 431 b 399 535 497 497 457 535 b 260 342 322 535 260 465 b 399 161 260 240 310 161 b 510 247 453 161 496 197 b 517 303 515 263 517 285 m 322 961 b 404 876 329 913 356 876 b 489 961 461 876 486 918 l 599 961 b 404 764 597 844 531 764 b 213 961 275 764 214 850 "},"ĝ":{"ha":813,"x_min":0,"x_max":0,"o":"m 733 679 b 728 478 731 636 728 579 l 728 99 b 625 -207 728 -32 701 -139 b 349 -290 550 -271 449 -290 b 104 -237 260 -290 165 -272 l 146 -78 b 343 -129 189 -103 264 -129 b 519 50 443 -129 519 -75 l 519 94 l 517 94 b 333 6 476 38 411 6 b 46 338 165 6 46 142 b 354 694 46 556 188 694 b 540 599 447 694 506 654 l 543 599 l 550 679 m 517 403 b 513 442 517 417 515 431 b 399 535 497 497 457 535 b 260 342 322 535 260 465 b 399 161 260 240 310 161 b 510 247 453 161 496 197 b 517 303 515 263 517 285 m 479 976 l 617 765 l 479 765 l 410 886 l 407 886 l 338 765 l 199 765 l 338 976 "},"ģ":{"ha":813,"x_min":0,"x_max":0,"o":"m 539 931 b 439 847 483 922 439 896 b 481 771 439 817 461 790 l 342 749 b 288 849 314 768 288 806 b 508 1006 288 956 386 1001 m 733 679 b 728 478 731 636 728 579 l 728 99 b 625 -207 728 -32 701 -139 b 349 -290 550 -271 449 -290 b 104 -237 260 -290 165 -272 l 146 -78 b 343 -129 189 -103 264 -129 b 519 50 443 -129 519 -75 l 519 94 l 517 94 b 333 6 476 38 411 6 b 46 338 165 6 46 142 b 354 694 46 556 188 694 b 540 599 447 694 506 654 l 543 599 l 550 679 m 517 403 b 513 442 517 417 515 431 b 399 535 497 497 457 535 b 260 342 322 535 260 465 b 399 161 260 240 310 161 b 510 247 453 161 496 197 b 517 303 515 263 517 285 "},"ġ":{"ha":813,"x_min":0,"x_max":0,"o":"m 733 679 b 728 478 731 636 728 579 l 728 99 b 625 -207 728 -32 701 -139 b 349 -290 550 -271 449 -290 b 104 -237 260 -290 165 -272 l 146 -78 b 343 -129 189 -103 264 -129 b 519 50 443 -129 519 -75 l 519 94 l 517 94 b 333 6 476 38 411 6 b 46 338 165 6 46 142 b 354 694 46 556 188 694 b 540 599 447 694 506 654 l 543 599 l 550 679 m 517 403 b 513 442 517 417 515 431 b 399 535 497 497 457 535 b 260 342 322 535 260 465 b 399 161 260 240 310 161 b 510 247 453 161 496 197 b 517 303 515 263 517 285 m 404 775 b 306 872 347 775 306 819 b 404 971 306 929 349 971 b 499 872 458 971 499 929 b 404 775 499 819 460 775 "},"":{"ha":813,"x_min":0,"x_max":0,"o":"m 733 679 b 728 478 731 636 728 579 l 728 99 b 625 -207 728 -32 701 -139 b 349 -290 550 -271 449 -290 b 104 -237 260 -290 165 -272 l 146 -78 b 343 -129 189 -103 264 -129 b 519 50 443 -129 519 -75 l 519 94 l 517 94 b 333 6 476 38 411 6 b 46 338 165 6 46 142 b 354 694 46 556 188 694 b 540 599 447 694 506 654 l 543 599 l 550 679 m 517 403 b 513 442 517 417 515 431 b 399 535 497 497 457 535 b 260 342 322 535 260 465 b 399 161 260 240 310 161 b 510 247 453 161 496 197 b 517 303 515 263 517 285 m 208 775 b 322 957 204 892 251 957 b 413 929 357 957 385 943 b 471 901 435 915 454 901 b 507 964 494 901 504 914 l 604 964 b 490 785 608 836 564 785 b 394 815 453 785 424 800 b 342 838 371 829 360 838 b 308 775 322 838 310 817 "},"ĥ":{"ha":814,"x_min":0,"x_max":0,"o":"m 85 986 l 296 986 l 296 599 l 299 599 b 382 668 321 628 349 650 b 492 694 413 685 453 694 b 729 397 626 694 729 601 l 729 0 l 518 0 l 518 374 b 408 524 518 463 488 524 b 303 450 353 524 318 488 b 296 403 297 436 296 418 l 296 0 l 85 0 m 276 1190 l 417 1019 l 268 1019 l 199 1106 l 196 1106 l 125 1019 l -22 1019 l 117 1190 "},"ĭ":{"ha":381,"x_min":0,"x_max":0,"o":"m 85 0 l 85 679 l 296 679 l 296 0 m 108 961 b 190 876 115 913 142 876 b 275 961 247 876 272 918 l 385 961 b 190 764 383 844 317 764 b -1 961 61 764 0 850 "},"ī":{"ha":381,"x_min":0,"x_max":0,"o":"m 85 0 l 85 679 l 296 679 l 296 0 m 364 924 l 364 808 l 17 808 l 17 924 "},"į":{"ha":381,"x_min":0,"x_max":0,"o":"m 190 765 b 75 875 119 765 74 814 b 190 983 74 936 119 983 b 306 875 261 983 306 938 b 190 765 307 814 261 765 m 296 0 l 201 0 b 171 -96 188 -25 171 -61 b 246 -174 171 -142 203 -174 b 307 -164 272 -174 293 -169 l 336 -261 b 194 -306 299 -292 240 -306 b 39 -158 99 -306 39 -257 b 85 0 39 -93 72 -26 l 85 679 l 296 679 "},"ĩ":{"ha":381,"x_min":0,"x_max":0,"o":"m 85 0 l 85 679 l 296 679 l 296 0 m -7 775 b 107 957 -11 892 35 957 b 197 929 142 957 169 943 b 256 901 219 915 239 901 b 292 964 278 901 288 914 l 389 964 b 275 785 393 836 349 785 b 179 815 236 785 208 800 b 126 838 154 829 143 838 b 93 775 107 838 94 817 "},"ĵ":{"ha":404,"x_min":0,"x_max":0,"o":"m -56 -125 b 69 -81 0 -121 43 -108 b 111 140 100 -49 111 6 l 111 679 l 324 679 l 324 90 b 228 -207 324 -58 290 -149 b -35 -290 165 -265 67 -290 m 278 972 l 415 761 l 278 761 l 208 882 l 206 882 l 136 761 l -3 761 l 136 972 "},"ķ":{"ha":753,"x_min":0,"x_max":0,"o":"m 296 393 l 299 393 b 347 475 314 421 331 449 l 485 679 l 739 679 l 496 404 l 774 0 l 514 0 l 350 279 l 296 213 l 296 0 l 85 0 l 85 986 l 296 986 m 250 -246 b 342 -161 296 -237 342 -208 b 300 -78 342 -129 318 -99 l 447 -54 b 501 -164 475 -75 501 -115 b 281 -336 501 -279 403 -332 "},"ĺ":{"ha":382,"x_min":0,"x_max":0,"o":"m 85 986 l 296 986 l 296 0 l 85 0 m 424 1199 l 253 1028 l 83 1028 l 201 1199 "},"ľ":{"ha":396,"x_min":0,"x_max":0,"o":"m 347 744 b 386 885 367 783 386 832 b 357 981 386 921 372 956 l 490 1003 b 535 892 513 986 535 943 b 446 688 535 775 468 711 m 85 986 l 296 986 l 296 0 l 85 0 "},"ļ":{"ha":382,"x_min":0,"x_max":0,"o":"m 85 986 l 296 986 l 296 0 l 85 0 m 49 -246 b 140 -161 94 -237 140 -208 b 100 -78 140 -129 118 -99 l 246 -54 b 300 -164 274 -75 300 -115 b 81 -336 300 -279 201 -332 "},"ŀ":{"ha":492,"x_min":0,"x_max":0,"o":"m 439 436 b 349 531 388 436 349 479 b 439 625 349 585 388 625 b 525 531 488 625 525 585 b 439 436 525 479 489 436 m 85 986 l 296 986 l 296 0 l 85 0 "},"":{"ha":1194,"x_min":0,"x_max":0,"o":"m 85 463 b 79 679 85 547 82 619 l 257 679 l 267 588 l 271 588 b 476 694 300 631 360 694 b 663 579 564 694 633 650 l 665 579 b 753 661 690 614 721 642 b 882 694 790 683 832 694 b 1111 400 1013 694 1111 603 l 1111 0 l 906 0 l 906 369 b 806 525 906 468 874 525 b 708 451 757 525 722 492 b 700 397 703 436 700 414 l 700 0 l 494 0 l 494 381 b 397 525 494 467 464 525 b 299 449 343 525 311 483 b 290 396 292 432 290 413 l 290 0 l 85 0 m 669 975 l 807 764 l 669 764 l 599 885 l 596 885 l 526 764 l 389 764 l 526 975 "},"ń":{"ha":814,"x_min":0,"x_max":0,"o":"m 85 463 b 79 679 85 547 82 619 l 263 679 l 272 586 l 276 586 b 486 694 304 629 374 694 b 729 403 625 694 729 603 l 729 0 l 518 0 l 518 376 b 411 524 518 464 488 524 b 304 444 353 524 318 483 b 296 392 299 432 296 411 l 296 0 l 85 0 m 618 975 l 449 764 l 303 764 l 422 975 "},"ň":{"ha":814,"x_min":0,"x_max":0,"o":"m 85 463 b 79 679 85 547 82 619 l 263 679 l 272 586 l 276 586 b 486 694 304 629 374 694 b 729 403 625 694 729 603 l 729 0 l 518 0 l 518 376 b 411 524 518 464 488 524 b 304 444 353 524 318 483 b 296 392 299 432 296 411 l 296 0 l 85 0 m 335 764 l 197 975 l 335 975 l 404 854 l 407 854 l 478 975 l 615 975 l 478 764 "},"":{"ha":814,"x_min":0,"x_max":0,"o":"m 85 463 b 79 679 85 547 82 619 l 263 679 l 272 586 l 276 586 b 486 694 304 629 374 694 b 729 403 625 694 729 603 l 729 0 l 518 0 l 518 376 b 411 524 518 464 488 524 b 304 444 353 524 318 483 b 296 392 299 432 296 411 l 296 0 l 85 0 m 479 975 l 617 764 l 479 764 l 408 885 l 406 885 l 336 764 l 199 764 l 336 975 "},"ņ":{"ha":814,"x_min":0,"x_max":0,"o":"m 85 463 b 79 679 85 547 82 619 l 263 679 l 272 586 l 276 586 b 486 694 304 629 374 694 b 729 403 625 694 729 603 l 729 0 l 518 0 l 518 376 b 411 524 518 464 488 524 b 304 444 353 524 318 483 b 296 392 299 432 296 411 l 296 0 l 85 0 m 279 -246 b 371 -161 325 -236 371 -208 b 331 -78 371 -128 349 -99 l 478 -53 b 532 -164 506 -74 532 -114 b 311 -336 532 -279 432 -331 "},"ŏ":{"ha":801,"x_min":0,"x_max":0,"o":"m 408 694 b 756 347 617 694 756 551 b 397 -15 756 99 579 -15 b 46 335 199 -15 46 115 b 408 694 46 554 190 694 m 403 544 b 264 340 301 544 264 440 b 403 136 264 224 313 136 b 538 340 485 136 538 218 b 403 544 538 442 499 544 m 317 961 b 399 876 324 913 350 876 b 483 961 456 876 481 918 l 593 961 b 399 764 592 844 525 764 b 207 961 269 764 208 850 "},"ő":{"ha":801,"x_min":0,"x_max":0,"o":"m 408 694 b 756 347 617 694 756 551 b 397 -15 756 99 579 -15 b 46 335 199 -15 46 115 b 408 694 46 554 190 694 m 403 544 b 264 340 301 544 264 440 b 403 136 264 224 313 136 b 538 340 485 136 538 218 b 403 544 538 442 499 544 m 444 974 l 308 767 l 189 767 l 278 974 m 685 974 l 549 767 l 431 767 l 518 974 "},"ō":{"ha":801,"x_min":0,"x_max":0,"o":"m 408 694 b 756 347 617 694 756 551 b 397 -15 756 99 579 -15 b 46 335 199 -15 46 115 b 408 694 46 554 190 694 m 403 544 b 264 340 301 544 264 440 b 403 136 264 224 313 136 b 538 340 485 136 538 218 b 403 544 538 442 499 544 m 575 924 l 575 808 l 226 808 l 226 924 "},"ǿ":{"ha":801,"x_min":0,"x_max":0,"o":"m 400 694 b 565 658 461 694 518 683 l 631 754 l 704 703 l 642 610 b 756 342 714 547 756 456 b 401 -15 756 100 578 -15 b 240 21 343 -15 288 -4 l 172 -78 l 103 -22 l 164 68 b 46 339 90 128 46 219 b 400 694 46 553 190 694 m 475 519 b 400 544 454 535 431 544 b 249 340 290 544 249 435 b 274 232 249 303 256 263 l 276 231 m 329 161 b 400 136 349 143 374 136 b 551 336 494 136 551 217 b 531 442 551 369 546 410 l 526 443 m 617 975 l 447 764 l 301 764 l 421 975 "},"ŕ":{"ha":528,"x_min":0,"x_max":0,"o":"m 85 456 b 79 679 85 556 82 621 l 261 679 l 268 554 l 274 554 b 457 694 308 653 392 694 b 501 692 476 694 486 694 l 501 493 b 444 499 486 496 468 499 b 300 392 367 499 314 457 b 296 344 297 378 296 361 l 296 0 l 85 0 m 489 975 l 319 764 l 175 764 l 294 975 "},"ř":{"ha":528,"x_min":0,"x_max":0,"o":"m 85 456 b 79 679 85 556 82 621 l 261 679 l 268 554 l 274 554 b 457 694 308 653 392 694 b 501 692 476 694 486 694 l 501 493 b 444 499 486 496 468 499 b 300 392 367 499 314 457 b 296 344 297 378 296 361 l 296 0 l 85 0 m 207 764 l 69 975 l 207 975 l 276 854 l 279 854 l 350 975 l 488 975 l 350 764 "},"ŗ":{"ha":528,"x_min":0,"x_max":0,"o":"m 85 456 b 79 679 85 556 82 621 l 261 679 l 268 554 l 274 554 b 457 694 308 653 392 694 b 501 692 476 694 486 694 l 501 493 b 444 499 486 496 468 499 b 300 392 367 499 314 457 b 296 344 297 378 296 361 l 296 0 l 85 0 m 60 -246 b 151 -161 106 -237 151 -208 b 111 -78 151 -129 129 -99 l 257 -54 b 311 -164 285 -75 311 -115 b 92 -336 311 -279 213 -332 "},"ś":{"ha":603,"x_min":0,"x_max":0,"o":"m 83 185 b 265 133 122 161 203 133 b 356 190 329 133 356 156 b 256 268 356 225 335 242 b 63 472 115 315 61 392 b 339 694 63 599 171 694 b 531 656 418 694 489 676 l 493 510 b 346 549 463 526 404 549 b 265 493 294 549 265 528 b 375 415 265 461 292 444 b 560 206 504 371 558 306 b 265 -14 560 79 460 -14 b 46 33 176 -14 97 6 m 533 975 l 364 764 l 218 764 l 338 975 "},"ş":{"ha":603,"x_min":0,"x_max":0,"o":"m 493 510 b 346 549 463 526 404 549 b 265 493 294 549 265 528 b 375 415 265 461 292 444 b 560 206 504 371 558 306 b 354 -7 560 100 490 18 l 324 -61 b 424 -161 376 -67 424 -106 b 256 -283 424 -251 344 -283 b 143 -256 211 -283 171 -272 l 171 -176 b 247 -200 196 -190 226 -200 b 296 -164 272 -200 297 -190 b 189 -114 296 -137 265 -119 l 239 -14 b 46 33 161 -10 92 8 l 83 185 b 265 133 122 161 203 133 b 356 190 329 133 356 156 b 256 268 356 225 335 242 b 63 472 115 315 61 392 b 339 694 63 599 171 694 b 531 656 418 694 489 676 "},"ŝ":{"ha":603,"x_min":0,"x_max":0,"o":"m 83 185 b 265 133 122 161 203 133 b 356 190 329 133 356 156 b 256 268 356 225 335 242 b 63 472 115 315 61 392 b 339 694 63 599 171 694 b 531 656 418 694 489 676 l 493 510 b 346 549 463 526 404 549 b 265 493 294 549 265 528 b 375 415 265 461 292 444 b 560 206 504 371 558 306 b 265 -14 560 79 460 -14 b 46 33 176 -14 97 6 m 378 975 l 515 764 l 378 764 l 307 885 l 304 885 l 235 764 l 97 764 l 235 975 "},"ș":{"ha":603,"x_min":0,"x_max":0,"o":"m 83 185 b 265 133 122 161 203 133 b 356 190 329 133 356 156 b 256 268 356 225 335 242 b 63 472 115 315 61 392 b 339 694 63 599 171 694 b 531 656 418 694 489 676 l 493 510 b 346 549 463 526 404 549 b 265 493 294 549 265 528 b 375 415 265 461 292 444 b 560 206 504 371 558 306 b 265 -14 560 79 460 -14 b 46 33 176 -14 97 6 m 169 -246 b 261 -161 215 -237 261 -208 b 221 -78 261 -129 239 -99 l 368 -54 b 422 -164 396 -75 422 -115 b 201 -336 422 -279 322 -332 "},"ť":{"ha":515,"x_min":0,"x_max":0,"o":"m 404 824 b 451 918 431 840 451 879 b 425 993 451 946 439 974 l 561 1015 b 604 919 582 999 604 960 b 456 747 604 815 513 760 m 321 874 l 321 679 l 472 679 l 472 524 l 321 524 l 321 278 b 404 158 321 196 340 158 b 467 164 431 158 451 161 l 468 4 b 331 -14 440 -7 390 -14 b 172 44 263 -14 206 10 b 114 246 133 85 114 150 l 114 524 l 24 524 l 24 679 l 114 679 l 114 826 "},"ț":{"ha":510,"x_min":0,"x_max":0,"o":"m 321 874 l 321 679 l 472 679 l 472 524 l 321 524 l 321 278 b 404 158 321 196 340 158 b 467 164 431 158 451 161 l 468 4 b 331 -14 440 -7 390 -14 b 172 44 263 -14 206 10 b 114 246 133 85 114 150 l 114 524 l 24 524 l 24 679 l 114 679 l 114 826 m 143 -249 b 235 -164 189 -239 235 -211 b 193 -81 235 -131 213 -101 l 340 -56 b 394 -167 368 -76 394 -118 b 175 -339 394 -282 296 -333 "},"ŭ":{"ha":810,"x_min":0,"x_max":0,"o":"m 725 218 b 731 0 725 129 728 57 l 547 0 l 538 96 l 533 96 b 321 -15 507 54 443 -15 b 82 281 183 -15 82 71 l 82 679 l 294 679 l 294 314 b 400 156 294 215 326 156 b 506 229 458 156 492 196 b 513 275 511 242 513 258 l 513 679 l 725 679 m 322 961 b 404 876 329 913 356 876 b 489 961 461 876 486 918 l 599 961 b 404 764 597 844 531 764 b 213 961 275 764 214 850 "},"ű":{"ha":810,"x_min":0,"x_max":0,"o":"m 725 218 b 731 0 725 129 728 57 l 547 0 l 538 96 l 533 96 b 321 -15 507 54 443 -15 b 82 281 183 -15 82 71 l 82 679 l 294 679 l 294 314 b 400 156 294 215 326 156 b 506 229 458 156 492 196 b 513 275 511 242 513 258 l 513 679 l 725 679 m 472 974 l 336 767 l 218 767 l 306 974 m 713 974 l 576 767 l 458 767 l 546 974 "},"ū":{"ha":810,"x_min":0,"x_max":0,"o":"m 725 218 b 731 0 725 129 728 57 l 547 0 l 538 96 l 533 96 b 321 -15 507 54 443 -15 b 82 281 183 -15 82 71 l 82 679 l 294 679 l 294 314 b 400 156 294 215 326 156 b 506 229 458 156 492 196 b 513 275 511 242 513 258 l 513 679 l 725 679 m 581 924 l 581 808 l 232 808 l 232 924 "},"ų":{"ha":810,"x_min":0,"x_max":0,"o":"m 725 218 b 731 0 725 129 728 56 l 663 0 b 633 -94 649 -25 633 -60 b 708 -172 633 -140 665 -172 b 769 -162 735 -172 756 -168 l 799 -261 b 657 -304 761 -290 703 -304 b 501 -157 561 -304 501 -256 b 547 1 501 -92 535 -25 l 538 96 l 533 96 b 321 -15 507 54 443 -15 b 82 281 183 -15 82 71 l 82 679 l 294 679 l 294 314 b 400 156 294 215 326 156 b 506 229 458 156 492 196 b 513 275 511 242 513 258 l 513 679 l 725 679 "},"ů":{"ha":810,"x_min":0,"x_max":0,"o":"m 725 218 b 731 0 725 129 728 57 l 547 0 l 538 96 l 533 96 b 321 -15 507 54 443 -15 b 82 281 183 -15 82 71 l 82 679 l 294 679 l 294 314 b 400 156 294 215 326 156 b 506 229 458 156 492 196 b 513 275 511 242 513 258 l 513 679 l 725 679 m 406 749 b 246 882 307 749 246 807 b 407 1022 246 960 303 1022 b 564 883 508 1022 564 963 b 406 749 564 807 503 749 m 404 818 b 468 885 446 818 468 849 b 404 953 468 919 446 953 b 342 883 364 953 342 918 b 404 818 342 851 365 818 "},"ũ":{"ha":810,"x_min":0,"x_max":0,"o":"m 725 218 b 731 0 725 129 728 57 l 547 0 l 538 96 l 533 96 b 321 -15 507 54 443 -15 b 82 281 183 -15 82 71 l 82 679 l 294 679 l 294 314 b 400 156 294 215 326 156 b 506 229 458 156 492 196 b 513 275 511 242 513 258 l 513 679 l 725 679 m 208 775 b 322 957 204 892 250 957 b 413 929 357 957 385 943 b 471 901 435 915 454 901 b 507 964 493 901 503 914 l 604 964 b 490 785 608 836 564 785 b 394 815 451 785 424 800 b 342 838 369 829 358 838 b 308 775 322 838 310 817 "},"ẃ":{"ha":1054,"x_min":0,"x_max":0,"o":"m 231 679 l 285 401 b 324 178 299 331 313 256 l 326 178 b 376 400 340 256 360 333 l 449 679 l 615 679 l 683 408 b 733 178 701 332 719 256 l 736 178 b 775 410 746 256 760 332 l 833 679 l 1040 679 l 832 0 l 633 0 l 569 239 b 526 450 553 306 540 367 l 524 450 b 479 239 511 365 497 303 l 411 0 l 213 0 l 15 679 m 747 975 l 578 764 l 432 764 l 551 975 "},"ŵ":{"ha":1054,"x_min":0,"x_max":0,"o":"m 231 679 l 285 401 b 324 178 299 331 313 256 l 326 178 b 376 400 340 256 360 333 l 449 679 l 615 679 l 683 408 b 733 178 701 332 719 256 l 736 178 b 775 410 746 256 760 332 l 833 679 l 1040 679 l 832 0 l 633 0 l 569 239 b 526 450 553 306 540 367 l 524 450 b 479 239 511 365 497 303 l 411 0 l 213 0 l 15 679 m 599 975 l 736 764 l 599 764 l 529 885 l 526 885 l 457 764 l 318 764 l 457 975 "},"ẅ":{"ha":1054,"x_min":0,"x_max":0,"o":"m 231 679 l 285 401 b 324 178 299 331 313 256 l 326 178 b 376 400 340 256 360 333 l 449 679 l 615 679 l 683 408 b 733 178 701 332 719 256 l 736 178 b 775 410 746 256 760 332 l 833 679 l 1040 679 l 832 0 l 633 0 l 569 239 b 526 450 553 306 540 367 l 524 450 b 479 239 511 365 497 303 l 411 0 l 213 0 l 15 679 m 382 774 b 282 871 325 774 282 818 b 382 969 282 928 326 969 b 476 871 435 969 476 928 b 382 774 476 818 436 774 m 674 774 b 575 871 617 774 575 818 b 674 969 575 928 618 969 b 769 871 728 969 769 928 b 674 774 769 818 729 774 "},"ẁ":{"ha":1054,"x_min":0,"x_max":0,"o":"m 231 679 l 285 401 b 324 178 299 331 313 256 l 326 178 b 376 400 340 256 360 333 l 449 679 l 615 679 l 683 408 b 733 178 701 332 719 256 l 736 178 b 775 410 746 256 760 332 l 833 679 l 1040 679 l 832 0 l 633 0 l 569 239 b 526 450 553 306 540 367 l 524 450 b 479 239 511 365 497 303 l 411 0 l 213 0 l 15 679 m 513 975 l 632 764 l 488 764 l 317 975 "},"ŷ":{"ha":726,"x_min":0,"x_max":0,"o":"m 243 679 l 344 346 b 378 219 356 306 369 256 l 382 219 b 413 346 392 256 403 307 l 496 679 l 722 679 l 564 232 b 325 -214 467 -37 401 -146 b 121 -307 251 -278 174 -300 l 76 -128 b 168 -92 103 -124 136 -111 b 256 -7 200 -75 235 -42 b 267 24 263 3 267 14 b 257 58 267 31 265 42 l 8 679 m 443 975 l 581 764 l 443 764 l 372 885 l 369 885 l 300 764 l 163 764 l 300 975 "},"ỳ":{"ha":726,"x_min":0,"x_max":0,"o":"m 243 679 l 344 346 b 378 219 356 306 369 256 l 382 219 b 413 346 392 256 403 307 l 496 679 l 722 679 l 564 232 b 325 -214 467 -37 401 -146 b 121 -307 251 -278 174 -300 l 76 -128 b 168 -92 103 -124 136 -111 b 256 -7 200 -75 235 -42 b 267 24 263 3 267 14 b 257 58 267 31 265 42 l 8 679 m 356 975 l 475 764 l 331 764 l 160 975 "},"ȳ":{"ha":726,"x_min":0,"x_max":0,"o":"m 243 679 l 344 346 b 378 219 356 306 369 256 l 382 219 b 413 346 392 256 403 307 l 496 679 l 722 679 l 564 232 b 325 -214 467 -37 401 -146 b 121 -307 251 -278 174 -300 l 76 -128 b 168 -92 103 -124 136 -111 b 256 -7 200 -75 235 -42 b 267 24 263 3 267 14 b 257 58 267 31 265 42 l 8 679 m 538 924 l 538 808 l 189 808 l 189 924 "},"ź":{"ha":651,"x_min":0,"x_max":0,"o":"m 31 121 l 244 389 b 353 510 283 435 314 468 l 353 513 l 54 513 l 54 679 l 610 679 l 610 553 l 406 296 b 294 171 368 251 333 208 l 294 168 l 621 168 l 621 0 l 31 0 m 554 975 l 385 764 l 239 764 l 358 975 "},"ż":{"ha":651,"x_min":0,"x_max":0,"o":"m 31 121 l 244 389 b 353 510 283 435 314 468 l 353 513 l 54 513 l 54 679 l 610 679 l 610 553 l 406 296 b 294 171 368 251 333 208 l 294 168 l 621 168 l 621 0 l 31 0 m 332 774 b 232 871 275 774 232 818 b 332 969 232 928 275 969 b 426 871 385 969 426 928 b 332 774 426 818 386 774 "},"ǽ":{"ha":1115,"x_min":0,"x_max":0,"o":"m 639 282 b 822 142 643 196 715 142 b 1013 178 907 142 960 156 l 1042 36 b 792 -15 967 -3 876 -15 b 533 106 679 -15 579 28 l 528 106 b 275 -15 475 33 393 -15 b 40 197 126 -15 40 82 b 442 447 40 364 201 449 l 442 467 b 313 549 442 486 419 549 b 131 497 242 549 172 522 l 89 631 b 329 694 139 658 228 694 b 553 585 439 694 513 656 l 557 585 b 789 694 610 654 689 694 b 1074 357 990 694 1074 522 b 1069 282 1074 331 1071 299 m 447 318 b 247 213 335 319 247 289 b 335 133 247 160 288 133 b 442 204 388 133 425 167 b 447 247 447 215 447 231 m 879 424 b 764 557 881 468 861 557 b 638 424 675 557 639 474 m 769 975 l 600 764 l 456 764 l 575 975 "},"":{"ha":417,"x_min":0,"x_max":0,"o":"m 82 -246 b 172 -161 128 -237 172 -208 b 132 -78 172 -129 150 -99 l 279 -54 b 333 -164 307 -75 333 -115 b 113 -336 333 -279 235 -332 "},"":{"ha":417,"x_min":0,"x_max":0,"o":"m 443 1157 l 274 986 l 104 986 l 221 1157 "},"":{"ha":417,"x_min":0,"x_max":0,"o":"m 125 1178 b 207 1114 129 1146 150 1114 b 294 1178 265 1114 288 1144 l 403 1178 b 208 1003 400 1076 340 1003 b 14 1178 72 1003 15 1076 "},"":{"ha":417,"x_min":0,"x_max":0,"o":"m 129 986 l -11 1157 l 138 1157 l 207 1069 l 210 1069 l 279 1157 l 426 1157 l 288 986 "},"":{"ha":417,"x_min":0,"x_max":0,"o":"m 285 8 l 251 -61 b 353 -175 304 -74 353 -110 b 186 -303 353 -271 265 -303 b 68 -276 144 -303 100 -294 l 94 -190 b 174 -210 115 -201 147 -210 b 222 -176 200 -210 222 -200 b 114 -124 222 -147 190 -132 l 172 8 "},"":{"ha":417,"x_min":0,"x_max":0,"o":"m 288 1157 l 428 986 l 279 986 l 210 1072 l 207 1072 l 138 986 l -10 986 l 129 1157 "},"":{"ha":417,"x_min":0,"x_max":0,"o":"m 82 -246 b 172 -161 128 -236 172 -208 b 132 -78 172 -129 150 -99 l 279 -54 b 333 -164 307 -75 333 -114 b 113 -335 333 -279 235 -332 "},"":{"ha":417,"x_min":0,"x_max":0,"o":"m 65 990 b -31 1085 11 990 -31 1033 b 67 1181 -31 1139 13 1181 b 157 1085 118 1181 157 1139 b 65 990 157 1033 118 990 m 354 990 b 258 1085 299 990 258 1033 b 354 1181 258 1139 299 1181 b 447 1085 407 1181 447 1139 b 354 990 447 1033 407 990 "},"":{"ha":417,"x_min":0,"x_max":0,"o":"m 211 990 b 114 1085 156 990 114 1035 b 211 1181 114 1139 156 1181 b 304 1085 264 1181 304 1139 b 211 990 304 1035 264 990 "},"":{"ha":417,"x_min":0,"x_max":0,"o":"m 203 1157 l 321 989 l 151 989 l -19 1157 "},"":{"ha":417,"x_min":0,"x_max":0,"o":"m 296 1160 l 156 997 l 10 997 l 100 1160 m 549 1160 l 407 997 l 261 997 l 353 1160 "},"":{"ha":417,"x_min":0,"x_max":0,"o":"m 389 1132 l 389 1019 l 29 1019 l 29 1132 "},"":{"ha":417,"x_min":0,"x_max":0,"o":"m 226 3 b 192 -99 214 -21 192 -60 b 265 -172 192 -140 219 -172 b 328 -161 292 -172 314 -167 l 357 -260 b 217 -304 319 -289 261 -304 b 60 -157 119 -304 60 -256 b 114 3 60 -92 94 -24 "},"":{"ha":556,"x_min":0,"x_max":0,"o":"m 279 1240 b 438 1104 385 1240 438 1181 b 279 969 438 1028 379 969 b 119 1103 178 969 119 1029 b 279 1240 119 1178 176 1240 m 278 1169 b 217 1103 238 1169 217 1138 b 278 1040 217 1071 239 1040 b 339 1104 317 1040 339 1068 b 278 1169 339 1139 317 1169 "},"":{"ha":417,"x_min":0,"x_max":0,"o":"m 14 993 b 121 1169 11 1110 54 1169 b 210 1142 158 1169 185 1157 b 271 1115 233 1128 254 1115 b 308 1175 294 1115 304 1129 l 404 1175 b 294 1001 407 1050 367 1001 b 204 1028 257 1001 229 1014 b 144 1053 179 1040 164 1053 b 111 993 126 1053 114 1032 "},"Α":{"ha":911,"x_min":0,"x_max":0,"o":"m 310 240 l 243 0 l 24 0 l 310 936 l 588 936 l 878 0 l 650 0 l 578 240 m 547 399 l 489 597 b 442 778 472 653 456 722 l 439 778 b 396 597 425 722 411 651 l 340 399 "},"Β":{"ha":839,"x_min":0,"x_max":0,"o":"m 92 924 b 365 943 147 935 260 943 b 642 890 494 943 574 931 b 754 707 707 856 754 792 b 600 507 754 624 706 546 l 600 504 b 786 274 707 475 786 394 b 689 75 786 189 747 122 b 321 -10 621 21 507 -10 b 92 4 217 -10 139 -3 m 301 565 l 371 565 b 542 681 482 565 542 611 b 392 789 542 751 488 789 b 301 783 346 789 319 786 m 301 150 b 383 147 322 147 347 147 b 564 282 479 147 564 183 b 374 414 564 376 479 414 l 301 414 "},"Γ":{"ha":669,"x_min":0,"x_max":0,"o":"m 660 936 l 660 758 l 304 758 l 304 0 l 92 0 l 92 936 "},"Δ":{"ha":900,"x_min":0,"x_max":0,"o":"m 22 106 l 322 936 l 579 936 l 874 107 l 874 0 l 22 0 m 631 174 l 499 565 b 442 765 479 626 456 708 l 436 765 b 385 578 425 721 404 639 l 251 174 "},"Ε":{"ha":742,"x_min":0,"x_max":0,"o":"m 649 396 l 304 396 l 304 174 l 689 174 l 689 0 l 92 0 l 92 936 l 669 936 l 669 763 l 304 763 l 304 568 l 649 568 "},"Ζ":{"ha":801,"x_min":0,"x_max":0,"o":"m 32 114 l 478 756 l 478 761 l 74 761 l 74 936 l 753 936 l 753 814 l 317 181 l 317 175 l 760 175 l 760 0 l 32 0 "},"Η":{"ha":957,"x_min":0,"x_max":0,"o":"m 304 936 l 304 576 l 653 576 l 653 936 l 864 936 l 864 0 l 653 0 l 653 392 l 304 392 l 304 0 l 92 0 l 92 936 "},"Θ":{"ha":999,"x_min":0,"x_max":0,"o":"m 492 -15 b 49 461 213 -15 49 194 b 506 951 49 742 229 951 b 951 478 793 951 951 736 b 492 -15 951 171 765 -15 m 500 153 b 728 471 646 153 728 288 b 500 783 728 640 647 783 b 271 467 354 783 271 642 b 500 153 271 289 357 153 m 644 563 l 644 392 l 353 392 l 353 563 "},"Ι":{"ha":396,"x_min":0,"x_max":0,"o":"m 304 936 l 304 0 l 92 0 l 92 936 "},"Κ":{"ha":853,"x_min":0,"x_max":0,"o":"m 92 936 l 301 936 l 301 522 l 306 522 b 369 625 326 558 349 592 l 582 936 l 842 936 l 532 538 l 858 0 l 611 0 l 382 404 l 301 306 l 301 0 l 92 0 "},"Λ":{"ha":900,"x_min":0,"x_max":0,"o":"m 649 0 l 489 561 b 440 761 472 626 456 697 l 438 761 b 394 560 424 696 410 625 l 246 0 l 24 0 l 310 936 l 583 936 l 879 0 "},"Μ":{"ha":1175,"x_min":0,"x_max":0,"o":"m 883 358 b 875 743 879 471 875 607 l 871 743 b 767 381 842 624 803 490 l 653 15 l 488 15 l 388 378 b 303 743 357 488 325 621 l 300 743 b 283 356 294 617 290 472 l 267 0 l 71 0 l 131 936 l 413 936 l 504 624 b 583 289 533 515 563 399 l 588 289 b 676 625 614 397 646 521 l 776 936 l 1053 936 l 1104 0 l 897 0 "},"Ν":{"ha":958,"x_min":0,"x_max":0,"o":"m 92 0 l 92 936 l 339 936 l 533 593 b 686 272 589 494 644 378 l 690 272 b 672 663 676 396 672 522 l 672 936 l 867 936 l 867 0 l 644 0 l 444 361 b 282 692 389 461 328 582 l 278 690 b 286 282 283 567 286 435 l 286 0 "},"Ξ":{"ha":797,"x_min":0,"x_max":0,"o":"m 728 936 l 728 764 l 78 764 l 78 936 m 683 565 l 683 394 l 122 394 l 122 565 m 747 174 l 747 0 l 58 0 l 58 174 "},"Ο":{"ha":996,"x_min":0,"x_max":0,"o":"m 504 951 b 949 478 792 951 949 736 b 489 -15 949 171 763 -15 b 49 461 211 -15 49 194 b 504 951 49 742 228 951 m 499 783 b 272 465 356 783 272 647 b 500 153 272 282 358 153 b 725 471 643 153 725 289 b 499 783 725 639 644 783 "},"Π":{"ha":926,"x_min":0,"x_max":0,"o":"m 833 0 l 622 0 l 622 758 l 304 758 l 304 0 l 92 0 l 92 936 l 833 936 "},"Ρ":{"ha":807,"x_min":0,"x_max":0,"o":"m 92 924 b 378 943 157 935 249 943 b 664 868 508 943 601 918 b 764 651 724 821 764 743 b 678 429 764 560 733 482 b 374 331 606 361 499 331 b 301 335 346 331 321 332 l 301 0 l 92 0 m 301 499 b 372 493 319 494 342 493 b 554 646 485 493 554 550 b 389 783 554 732 494 783 b 301 775 346 783 317 779 "},"Σ":{"ha":803,"x_min":0,"x_max":0,"o":"m 311 174 l 757 174 l 757 0 l 42 0 l 42 119 l 319 464 l 57 799 l 57 936 l 721 936 l 721 763 l 326 763 l 326 758 l 546 472 l 311 179 "},"Τ":{"ha":761,"x_min":0,"x_max":0,"o":"m 272 758 l 21 758 l 21 936 l 740 936 l 740 758 l 485 758 l 485 0 l 272 0 "},"Υ":{"ha":868,"x_min":0,"x_max":0,"o":"m 44 944 b 315 819 124 943 238 907 b 438 519 383 746 425 643 l 447 519 b 579 811 463 640 515 740 b 826 944 653 892 756 942 l 860 765 b 558 394 728 729 603 576 b 535 203 543 331 535 267 l 535 0 l 322 0 l 322 204 b 308 388 322 274 318 324 b 13 769 271 585 178 739 "},"Φ":{"ha":1090,"x_min":0,"x_max":0,"o":"m 643 -39 l 444 -39 l 444 38 b 47 464 243 61 47 194 b 447 903 47 743 267 881 l 447 975 l 644 975 l 644 903 b 1043 472 844 879 1043 742 b 643 38 1043 207 850 65 m 446 756 b 260 464 360 740 260 649 b 446 186 260 299 358 203 m 643 186 b 831 465 731 201 831 283 b 643 756 831 653 733 742 "},"Χ":{"ha":851,"x_min":0,"x_max":0,"o":"m 585 0 l 500 169 b 417 338 465 235 443 283 l 414 338 b 342 169 394 283 371 235 l 264 0 l 22 0 l 293 474 l 32 936 l 275 936 l 357 765 b 428 610 385 708 406 663 l 431 610 b 494 765 453 669 471 711 l 574 936 l 815 936 l 551 479 l 829 0 "},"Ψ":{"ha":1031,"x_min":0,"x_max":0,"o":"m 975 665 b 614 256 975 385 811 268 l 614 0 l 419 0 l 419 256 b 58 619 228 268 58 368 l 58 936 l 261 936 l 261 651 b 419 417 261 475 329 424 l 419 936 l 613 936 l 613 415 b 771 696 699 422 771 481 l 771 936 l 975 936 "},"Ω":{"ha":1033,"x_min":0,"x_max":0,"o":"m 44 0 l 44 160 l 229 160 l 229 165 b 61 513 150 228 61 347 b 525 951 61 756 250 951 b 971 528 813 951 971 746 b 801 165 971 347 875 229 l 801 160 l 989 160 l 989 0 l 576 0 l 576 124 b 753 486 671 196 753 315 b 521 783 753 644 665 783 b 281 486 375 783 281 650 b 460 124 281 333 363 185 l 460 0 "},"Ά":{"ha":922,"x_min":0,"x_max":0,"o":"m 319 240 l 254 0 l 35 0 l 321 936 l 597 936 l 889 0 l 661 0 l 589 240 m 557 399 l 499 597 b 453 778 483 653 467 722 l 449 778 b 407 597 436 722 421 651 l 350 399 m 199 936 l 147 694 l 26 694 l 29 936 "},"Έ":{"ha":892,"x_min":0,"x_max":0,"o":"m 799 396 l 454 396 l 454 174 l 839 174 l 839 0 l 243 0 l 243 936 l 819 936 l 819 763 l 454 763 l 454 568 l 799 568 m 172 936 l 121 694 l 0 694 l 3 936 "},"Ή":{"ha":1107,"x_min":0,"x_max":0,"o":"m 454 936 l 454 576 l 803 576 l 803 936 l 1014 936 l 1014 0 l 803 0 l 803 392 l 454 392 l 454 0 l 242 0 l 242 936 m 172 936 l 121 694 l 0 694 l 3 936 "},"Ί":{"ha":546,"x_min":0,"x_max":0,"o":"m 454 936 l 454 0 l 243 0 l 243 936 m 172 936 l 121 694 l 0 694 l 3 936 "},"Ϊ":{"ha":396,"x_min":0,"x_max":0,"o":"m 304 936 l 304 0 l 92 0 l 92 936 m 56 992 b -42 1086 0 992 -42 1035 b 56 1182 -42 1140 1 1182 b 146 1086 107 1182 146 1140 b 56 992 146 1035 107 992 m 343 992 b 247 1086 288 992 247 1035 b 343 1182 247 1140 289 1182 b 436 1086 396 1182 436 1140 b 343 992 436 1035 396 992 "},"Ό":{"ha":1100,"x_min":0,"x_max":0,"o":"m 607 951 b 1051 478 894 951 1051 736 b 593 -15 1051 171 867 -15 b 151 461 315 -15 151 194 b 607 951 151 742 332 951 m 603 783 b 375 465 460 783 375 647 b 603 153 375 282 461 153 b 828 471 746 153 828 289 b 603 783 828 639 749 783 m 172 936 l 121 694 l 0 694 l 3 936 "},"Ύ":{"ha":1078,"x_min":0,"x_max":0,"o":"m 254 944 b 525 819 333 943 447 907 b 647 519 593 746 635 643 l 657 519 b 789 811 672 640 725 740 b 1036 944 863 892 965 942 l 1069 765 b 768 394 938 729 813 576 b 744 203 753 331 744 267 l 744 0 l 532 0 l 532 204 b 517 388 532 274 528 324 b 221 769 481 585 388 739 m 172 936 l 121 694 l 0 694 l 3 936 "},"Ϋ":{"ha":868,"x_min":0,"x_max":0,"o":"m 44 944 b 315 819 124 943 238 907 b 438 519 383 746 425 643 l 447 519 b 579 811 463 640 515 740 b 826 944 653 892 756 942 l 860 765 b 558 394 728 729 603 576 b 535 203 543 331 535 267 l 535 0 l 322 0 l 322 204 b 308 388 322 274 318 324 b 13 769 271 585 178 739 m 297 969 b 201 1064 242 969 201 1013 b 297 1160 201 1118 243 1160 b 389 1064 349 1160 389 1118 b 297 969 389 1013 349 969 m 585 969 b 490 1064 529 969 490 1013 b 585 1160 490 1118 531 1160 b 678 1064 638 1160 678 1118 b 585 969 678 1013 639 969 "},"Ώ":{"ha":1132,"x_min":0,"x_max":0,"o":"m 142 0 l 142 160 l 326 160 l 326 165 b 160 513 249 228 160 347 b 622 951 160 756 347 951 b 1069 528 910 951 1069 746 b 899 165 1069 347 972 229 l 899 160 l 1086 160 l 1086 0 l 674 0 l 674 124 b 851 486 769 196 851 315 b 618 783 851 644 764 783 b 379 486 474 783 379 650 b 557 124 379 333 460 185 l 557 0 m 172 936 l 121 694 l 0 694 l 3 936 "},"α":{"ha":810,"x_min":0,"x_max":0,"o":"m 739 679 b 719 236 729 572 719 381 b 783 143 719 160 746 140 l 771 -4 b 697 -15 760 -10 726 -15 b 550 108 618 -15 569 26 l 547 108 b 329 -15 499 26 419 -15 b 46 325 172 -15 46 117 b 354 694 46 554 201 694 b 540 590 433 694 501 661 l 546 590 b 563 679 550 624 556 653 m 260 336 b 388 151 260 231 313 151 b 511 278 449 151 497 211 b 515 346 514 301 515 321 b 513 403 515 368 515 386 b 393 533 500 481 453 533 b 260 336 311 533 260 443 "},"β":{"ha":815,"x_min":0,"x_max":0,"o":"m 285 47 l 285 -33 b 303 -275 285 -117 289 -218 l 106 -275 b 81 -37 88 -235 81 -132 l 81 574 b 190 918 81 775 129 863 b 418 1001 242 967 313 1001 b 694 747 596 1001 694 888 b 582 540 694 669 654 578 l 582 532 b 769 278 679 510 769 413 b 474 -15 769 101 640 -15 b 288 47 400 -15 336 3 m 285 213 b 419 143 317 172 363 143 b 556 285 511 143 556 211 b 406 440 556 382 488 433 b 375 440 396 442 385 440 l 375 569 b 397 574 382 569 389 571 b 504 713 465 586 504 644 b 404 838 504 786 465 838 b 285 613 333 838 285 778 "},"γ":{"ha":715,"x_min":0,"x_max":0,"o":"m 239 -275 b 217 113 243 -143 243 -18 b -18 679 169 339 57 557 l 217 679 b 379 215 267 603 344 406 l 385 215 b 486 619 432 318 486 476 b 485 679 486 650 485 665 l 686 679 b 689 628 688 667 689 644 b 449 26 689 454 590 231 b 440 -7 442 15 440 4 b 444 -275 442 -65 443 -182 "},"δ":{"ha":800,"x_min":0,"x_max":0,"o":"m 642 801 b 468 851 617 819 539 851 b 393 815 417 851 393 838 b 471 732 393 794 419 774 l 583 642 b 753 335 689 558 753 458 b 394 -15 753 121 593 -15 b 46 321 200 -15 46 118 b 275 647 46 492 164 594 l 275 653 l 249 676 b 172 818 222 701 172 750 b 449 1001 172 907 269 1001 b 696 933 564 1001 656 964 m 389 549 b 263 325 319 507 263 435 b 407 136 263 221 325 136 b 542 317 483 136 542 208 b 453 496 542 382 510 447 "},"ε":{"ha":650,"x_min":0,"x_max":0,"o":"m 621 47 b 354 -15 549 1 439 -15 b 46 194 206 -15 46 39 b 194 357 46 278 114 340 l 194 364 b 78 506 121 388 78 439 b 374 694 78 599 171 694 b 601 643 472 694 543 678 l 565 510 b 406 549 529 529 467 549 b 290 483 332 549 290 522 b 446 424 290 442 347 424 l 513 424 l 513 286 l 447 286 b 274 218 349 285 274 271 b 410 142 274 165 339 142 b 592 183 471 142 546 161 "},"ζ":{"ha":613,"x_min":0,"x_max":0,"o":"m 369 -169 b 407 -33 385 -140 404 -67 b 251 7 364 -26 307 -14 b 49 314 147 47 49 136 b 329 832 49 494 154 690 l 329 839 l 264 839 b 108 857 199 839 144 844 l 128 990 b 322 986 172 986 243 986 l 579 986 l 610 849 b 265 354 426 767 265 547 b 383 154 265 247 311 188 b 589 103 442 125 518 113 b 603 83 596 101 603 93 b 500 -211 603 -11 554 -144 "},"η":{"ha":814,"x_min":0,"x_max":0,"o":"m 85 0 l 85 463 b 63 679 85 550 79 628 l 249 679 b 272 586 261 657 271 622 l 276 586 b 486 694 304 629 374 694 b 729 403 625 694 729 603 l 729 -36 b 744 -275 729 -117 731 -222 l 543 -275 b 518 -35 524 -242 518 -126 l 518 376 b 411 524 518 464 488 524 b 304 444 353 524 318 483 b 296 392 299 432 296 411 l 296 0 "},"θ":{"ha":792,"x_min":0,"x_max":0,"o":"m 396 -15 b 46 500 175 -15 46 163 b 406 1001 46 785 168 1001 b 746 500 640 1001 746 796 b 396 -15 746 190 635 -15 m 536 578 b 397 854 536 735 489 854 b 254 578 304 854 254 732 m 256 428 b 400 132 256 247 307 132 b 539 428 496 132 539 253 "},"ι":{"ha":389,"x_min":0,"x_max":0,"o":"m 296 211 b 360 146 296 160 315 142 l 349 -1 b 260 -15 331 -10 292 -15 b 85 192 150 -15 85 31 l 85 679 l 296 679 "},"κ":{"ha":761,"x_min":0,"x_max":0,"o":"m 85 0 l 85 507 b 65 679 85 572 78 657 l 274 679 b 296 558 286 665 296 622 l 296 396 l 300 396 b 504 679 375 489 449 600 l 744 679 l 744 672 b 478 371 660 576 571 475 l 478 365 b 644 186 542 349 592 275 l 753 0 l 511 0 l 435 136 b 306 276 388 218 351 274 l 296 276 l 296 0 "},"λ":{"ha":719,"x_min":0,"x_max":0,"o":"m 394 307 b 356 451 382 349 369 393 l 347 451 b 315 311 339 403 326 354 l 225 0 l 6 0 l 243 624 b 250 660 250 642 250 651 b 240 700 250 668 246 686 b 99 833 211 779 156 833 b 68 832 89 833 78 833 l 86 994 b 157 1001 100 999 132 1001 b 457 686 313 1001 390 865 l 713 0 l 488 0 "},"μ":{"ha":813,"x_min":0,"x_max":0,"o":"m 539 93 b 371 -10 517 44 458 -10 b 275 31 335 -10 299 4 l 275 -28 b 290 -275 275 -101 279 -222 l 103 -275 b 85 -29 90 -242 85 -129 l 85 679 l 296 679 l 296 300 b 399 154 296 208 331 154 b 508 229 453 154 494 194 b 515 275 513 242 515 258 l 515 679 l 726 679 l 726 221 b 785 143 726 163 744 144 l 772 -3 b 697 -15 756 -11 729 -15 b 543 93 617 -15 564 22 "},"ν":{"ha":708,"x_min":0,"x_max":0,"o":"m 226 679 l 317 364 b 360 196 333 307 344 253 l 365 196 b 481 625 419 313 481 482 b 479 679 481 644 481 661 l 678 679 b 682 626 681 664 682 647 b 439 0 682 435 565 208 l 235 0 l -1 679 "},"ξ":{"ha":656,"x_min":0,"x_max":0,"o":"m 550 463 l 511 463 b 271 301 354 463 271 399 b 454 136 271 222 324 169 b 631 101 510 121 563 111 b 646 83 640 100 646 94 b 544 -211 646 0 597 -144 l 414 -169 b 447 -33 428 -139 444 -67 b 46 278 282 -8 46 46 b 257 549 46 411 135 515 l 257 557 b 113 756 163 593 113 667 b 433 1001 113 883 221 1001 b 626 964 521 1001 578 986 l 592 826 b 468 853 558 842 511 853 b 325 732 372 853 325 797 b 503 607 325 651 397 615 b 550 606 518 606 533 606 "},"ο":{"ha":801,"x_min":0,"x_max":0,"o":"m 408 694 b 756 347 617 694 756 551 b 397 -15 756 99 579 -15 b 46 335 199 -15 46 115 b 408 694 46 554 190 694 m 403 544 b 264 340 301 544 264 440 b 403 136 264 224 313 136 b 538 340 485 136 538 218 b 403 544 538 442 499 544 "},"ρ":{"ha":821,"x_min":0,"x_max":0,"o":"m 94 -275 b 79 -35 85 -242 79 -132 l 79 274 b 208 614 79 472 142 558 b 439 694 272 667 344 694 b 775 343 642 694 775 553 b 460 -15 775 104 614 -15 b 293 51 385 -15 325 11 l 290 51 l 290 -36 b 300 -275 290 -117 290 -222 m 290 272 b 294 231 290 257 292 244 b 417 147 307 190 356 147 b 561 339 510 147 561 229 b 428 522 561 447 511 522 b 290 322 350 522 290 453 "},"σ":{"ha":825,"x_min":0,"x_max":0,"o":"m 803 542 b 656 551 769 542 724 544 l 654 544 b 743 336 714 490 743 406 b 397 -15 743 93 576 -15 b 46 332 199 -15 46 113 b 422 694 46 551 189 694 l 813 694 m 400 136 b 535 342 482 136 535 219 b 404 544 535 442 497 544 b 264 340 301 544 264 440 b 400 136 264 224 313 136 "},"τ":{"ha":628,"x_min":0,"x_max":0,"o":"m 497 0 b 400 -15 479 -8 443 -15 b 199 225 249 -15 199 67 l 199 519 l 142 519 b 14 510 78 519 43 515 l -12 635 b 226 679 17 656 71 679 l 615 679 l 594 519 l 410 519 l 410 239 b 479 147 410 169 438 147 b 506 147 490 147 500 147 "},"υ":{"ha":775,"x_min":0,"x_max":0,"o":"m 671 679 b 722 421 693 632 722 538 b 375 -15 722 208 639 -15 b 74 278 207 -15 74 79 l 74 454 b 57 679 74 554 71 635 l 264 679 b 285 547 279 663 285 625 l 285 292 b 392 156 285 201 333 156 b 515 407 481 156 515 271 b 474 679 515 526 489 642 "},"φ":{"ha":988,"x_min":0,"x_max":0,"o":"m 374 581 b 256 349 317 542 256 465 b 404 129 256 235 313 150 l 404 453 b 628 694 404 628 514 694 b 940 356 786 694 940 561 b 592 -15 940 125 760 1 l 592 -275 l 404 -275 l 404 -15 b 46 344 225 0 46 107 b 294 694 46 539 194 661 m 592 128 b 740 351 678 144 740 222 b 628 551 740 467 682 551 b 592 496 606 551 592 531 "},"χ":{"ha":700,"x_min":0,"x_max":0,"o":"m 233 679 l 365 372 l 371 372 b 419 492 385 410 400 447 l 497 679 l 699 679 l 464 218 l 699 -267 l 499 -314 l 339 42 l 332 40 b 279 -89 318 8 304 -33 l 179 -314 l 0 -265 l 240 218 l 7 679 "},"ψ":{"ha":1008,"x_min":0,"x_max":0,"o":"m 418 -15 b 78 357 242 -3 78 78 l 78 507 b 68 679 78 575 76 635 l 260 679 b 279 547 275 661 279 615 l 279 372 b 419 132 279 193 343 139 l 419 857 l 606 857 l 606 132 b 756 400 708 135 756 261 b 713 679 756 539 728 647 l 900 679 b 956 414 929 628 956 542 b 607 -15 956 208 865 1 l 607 -275 l 418 -275 "},"ω":{"ha":1018,"x_min":0,"x_max":0,"o":"m 603 272 b 671 161 603 210 626 161 b 767 371 724 161 767 232 b 671 676 767 483 733 604 l 671 679 l 863 679 b 972 363 914 631 972 511 b 689 -15 972 119 844 -15 b 508 92 610 -15 539 25 l 501 92 b 319 -15 465 31 403 -15 b 46 344 179 -15 46 103 b 158 679 46 501 104 618 l 349 679 l 349 676 b 250 358 290 601 250 483 b 346 161 250 221 300 161 b 411 271 388 161 413 208 l 408 517 l 607 517 "},"ς":{"ha":636,"x_min":0,"x_max":0,"o":"m 575 513 b 454 536 542 525 500 536 b 264 332 343 536 264 451 b 407 149 264 232 319 176 b 601 104 471 128 533 117 b 614 85 610 103 614 96 b 514 -212 614 -11 564 -156 l 382 -171 b 418 -35 397 -140 414 -67 b 311 -10 388 -28 350 -21 b 46 318 169 31 46 125 b 444 694 46 508 186 694 b 617 661 514 694 575 682 "},"ά":{"ha":810,"x_min":0,"x_max":0,"o":"m 739 679 b 719 236 729 572 719 381 b 783 143 719 160 746 140 l 771 -4 b 697 -15 760 -10 726 -15 b 550 108 618 -15 569 26 l 547 108 b 329 -15 499 26 419 -15 b 46 325 172 -15 46 117 b 354 694 46 554 201 694 b 540 590 433 694 501 661 l 546 590 b 563 679 550 624 556 653 m 260 336 b 388 151 260 231 313 151 b 511 278 449 151 497 211 b 515 346 514 301 515 321 b 513 403 515 368 515 386 b 393 533 500 481 453 533 b 260 336 311 533 260 443 m 585 972 l 474 761 l 333 761 l 397 972 "},"έ":{"ha":650,"x_min":0,"x_max":0,"o":"m 621 47 b 354 -15 549 1 439 -15 b 46 194 206 -15 46 39 b 194 357 46 278 114 340 l 194 364 b 78 506 121 388 78 439 b 374 694 78 599 171 694 b 601 643 472 694 543 678 l 565 510 b 406 549 529 529 467 549 b 290 483 332 549 290 522 b 446 424 290 442 347 424 l 513 424 l 513 286 l 447 286 b 274 218 349 285 274 271 b 410 142 274 165 339 142 b 592 183 471 142 546 161 m 528 972 l 415 761 l 276 761 l 340 972 "},"ή":{"ha":814,"x_min":0,"x_max":0,"o":"m 85 0 l 85 463 b 63 679 85 550 79 628 l 249 679 b 272 586 261 657 271 622 l 276 586 b 486 694 304 629 374 694 b 729 403 625 694 729 603 l 729 -36 b 744 -275 729 -117 731 -222 l 543 -275 b 518 -35 524 -242 518 -126 l 518 376 b 411 524 518 464 488 524 b 304 444 353 524 318 483 b 296 392 299 432 296 411 l 296 0 m 588 972 l 475 761 l 336 761 l 400 972 "},"ί":{"ha":389,"x_min":0,"x_max":0,"o":"m 296 211 b 360 146 296 160 315 142 l 349 -1 b 260 -15 331 -10 292 -15 b 85 192 150 -15 85 31 l 85 679 l 296 679 m 369 974 l 257 763 l 117 763 l 181 974 "},"ϊ":{"ha":389,"x_min":0,"x_max":0,"o":"m 296 211 b 360 146 296 160 315 142 l 349 -1 b 260 -15 331 -10 292 -15 b 85 192 150 -15 85 31 l 85 679 l 296 679 m 51 758 b -49 857 -6 758 -49 803 b 51 954 -49 913 -4 954 b 146 857 104 954 146 914 b 51 758 146 803 106 758 m 343 758 b 244 857 286 758 244 803 b 343 954 244 913 288 954 b 439 857 399 954 439 914 b 343 758 439 803 399 758 "},"ό":{"ha":801,"x_min":0,"x_max":0,"o":"m 408 694 b 756 347 617 694 756 551 b 397 -15 756 99 579 -15 b 46 335 199 -15 46 115 b 408 694 46 554 190 694 m 403 544 b 264 340 301 544 264 440 b 403 136 264 224 313 136 b 538 340 485 136 538 218 b 403 544 538 442 499 544 m 579 972 l 467 761 l 328 761 l 392 972 "},"ύ":{"ha":775,"x_min":0,"x_max":0,"o":"m 671 679 b 722 421 693 632 722 538 b 375 -15 722 208 639 -15 b 74 278 207 -15 74 79 l 74 454 b 57 679 74 554 71 635 l 264 679 b 285 547 279 663 285 625 l 285 292 b 392 156 285 201 333 156 b 515 407 481 156 515 271 b 474 679 515 526 489 642 m 558 974 l 446 763 l 306 763 l 369 974 "},"ϋ":{"ha":775,"x_min":0,"x_max":0,"o":"m 671 679 b 722 421 693 632 722 538 b 375 -15 722 208 639 -15 b 74 278 207 -15 74 79 l 74 454 b 57 679 74 554 71 635 l 264 679 b 285 547 279 663 285 625 l 285 292 b 392 156 285 201 333 156 b 515 407 481 156 515 271 b 474 679 515 526 489 642 m 233 758 b 133 856 175 758 133 803 b 233 953 133 913 176 953 b 326 856 286 953 326 913 b 233 758 326 803 286 758 m 525 758 b 426 856 467 758 426 803 b 525 953 426 913 468 953 b 621 856 579 953 621 913 b 525 758 621 803 579 758 "},"ώ":{"ha":1018,"x_min":0,"x_max":0,"o":"m 603 272 b 671 161 603 210 626 161 b 767 371 724 161 767 232 b 671 676 767 483 733 604 l 671 679 l 863 679 b 972 363 914 631 972 511 b 689 -15 972 119 844 -15 b 508 92 610 -15 539 25 l 501 92 b 319 -15 465 31 403 -15 b 46 344 179 -15 46 103 b 158 679 46 501 104 618 l 349 679 l 349 676 b 250 358 290 601 250 483 b 346 161 250 221 300 161 b 411 271 388 161 413 208 l 408 517 l 607 517 m 688 972 l 575 761 l 435 761 l 499 972 "},"ΐ":{"ha":389,"x_min":0,"x_max":0,"o":"m 296 211 b 360 146 296 160 315 142 l 349 -1 b 260 -15 331 -10 292 -15 b 85 192 150 -15 85 31 l 85 679 l 296 679 m 308 1000 l 232 757 l 124 757 l 153 1000 m -1 771 b -89 858 -51 771 -89 810 b -1 944 -89 907 -50 944 b 83 858 46 944 83 908 b -1 771 83 810 47 771 m 408 771 b 322 858 358 771 322 810 b 408 944 322 907 360 944 b 494 858 458 944 494 908 b 408 771 494 810 458 771 "},"ΰ":{"ha":775,"x_min":0,"x_max":0,"o":"m 671 679 b 722 421 693 632 722 538 b 375 -15 722 208 639 -15 b 74 278 207 -15 74 79 l 74 454 b 57 679 74 554 71 635 l 264 679 b 285 547 279 663 285 625 l 285 292 b 392 156 285 201 333 156 b 515 407 481 156 515 271 b 474 679 515 526 489 642 m 488 999 l 411 756 l 303 756 l 332 999 m 179 769 b 90 857 129 769 90 808 b 179 943 90 906 129 943 b 263 857 226 943 263 907 b 179 769 263 808 226 769 m 589 769 b 501 857 539 769 501 808 b 589 943 501 906 539 943 b 674 857 638 943 674 907 b 589 769 674 808 638 769 "},";":{"ha":361,"x_min":0,"x_max":0,"o":"m 3 -165 b 104 229 46 -42 83 103 l 317 243 b 142 -153 271 101 208 -44 m 201 433 b 78 560 128 433 76 488 b 201 688 78 635 128 688 b 325 560 275 688 324 636 b 201 433 325 488 276 433 "},"·":{"ha":385,"x_min":0,"x_max":0,"o":"m 192 297 b 56 438 113 297 56 356 b 193 578 56 519 114 578 b 329 438 274 578 328 521 b 192 297 329 356 275 297 "},"΄":{"ha":421,"x_min":0,"x_max":0,"o":"m 367 975 l 254 764 l 115 764 l 179 975 "},"΅":{"ha":604,"x_min":0,"x_max":0,"o":"m 406 1013 l 329 769 l 221 769 l 250 1013 m 96 783 b 8 871 46 783 8 824 b 97 957 8 919 47 957 b 181 871 143 957 181 921 b 96 783 181 824 144 783 m 506 783 b 419 871 457 783 419 824 b 507 957 419 919 457 957 b 592 871 556 957 592 921 b 506 783 592 824 556 783 "},"":{"ha":418,"x_min":0,"x_max":0,"o":"m -7 779 b -99 869 -58 779 -99 819 b -6 961 -99 922 -58 961 b 83 869 44 961 83 924 b -7 779 83 819 44 779 m 422 779 b 332 869 369 779 332 819 b 424 961 332 922 371 961 b 513 869 475 961 513 924 b 422 779 513 818 475 779 m 350 985 l 218 775 l 90 775 l 171 985 "},"":{"ha":418,"x_min":0,"x_max":0,"o":"m -4 779 b -96 869 -57 779 -96 819 b -3 961 -96 922 -56 961 b 85 869 47 961 85 924 b -4 779 85 819 47 779 m 421 779 b 332 869 369 779 332 819 b 424 961 332 922 369 961 b 513 869 475 961 513 924 b 421 779 513 818 474 779 m 247 985 l 328 775 l 200 775 l 68 985 "},"":{"ha":417,"x_min":0,"x_max":0,"o":"m 125 971 l 213 764 l 96 764 l -43 971 m 371 971 l 458 764 l 342 764 l 203 971 "},"":{"ha":418,"x_min":0,"x_max":0,"o":"m 301 936 l 250 694 l 129 694 l 132 936 "},"":{"ha":418,"x_min":0,"x_max":0,"o":"m -36 990 b -126 1081 -87 990 -126 1032 b -35 1169 -126 1131 -86 1169 b 51 1081 14 1169 51 1132 b -36 990 51 1031 13 990 m 456 990 b 368 1081 406 990 368 1032 b 457 1169 368 1131 407 1169 b 546 1081 508 1169 546 1132 b 456 990 546 1029 507 990 m 258 1161 l 365 989 l 213 989 l 51 1161 "},"":{"ha":417,"x_min":0,"x_max":0,"o":"m 81 1161 l 194 989 l 42 989 l -128 1161 m 385 1161 l 499 989 l 346 989 l 175 1161 "},"Ё":{"ha":742,"x_min":0,"x_max":0,"o":"m 649 396 l 304 396 l 304 174 l 689 174 l 689 0 l 92 0 l 92 936 l 669 936 l 669 763 l 304 763 l 304 568 l 649 568 m 235 990 b 138 1085 179 990 138 1033 b 235 1181 138 1139 181 1181 b 325 1085 286 1181 325 1139 b 235 990 325 1033 286 990 m 522 990 b 426 1085 467 990 426 1033 b 522 1181 426 1139 468 1181 b 615 1085 575 1181 615 1139 b 522 990 615 1033 575 990 "},"Ђ":{"ha":1003,"x_min":0,"x_max":0,"o":"m 799 936 l 799 763 l 475 763 l 475 588 l 479 588 b 643 626 517 608 579 626 b 872 515 750 626 821 581 b 954 239 928 446 954 350 b 756 -139 954 67 885 -72 b 583 -211 697 -183 635 -204 l 551 -37 b 674 29 596 -26 642 -8 b 732 225 707 65 732 131 b 690 399 732 304 717 363 b 576 456 661 438 625 456 b 475 422 535 456 499 440 l 475 0 l 263 0 l 263 763 l 21 763 l 21 936 "},"Ѓ":{"ha":679,"x_min":0,"x_max":0,"o":"m 658 936 l 658 763 l 304 763 l 304 0 l 92 0 l 92 936 m 603 1157 l 432 986 l 263 986 l 381 1157 "},"Є":{"ha":826,"x_min":0,"x_max":0,"o":"m 744 743 b 558 781 703 763 635 781 b 275 556 392 781 297 679 l 700 556 l 700 390 l 278 390 b 571 158 290 253 401 158 b 747 190 628 158 699 171 l 779 31 b 539 -15 738 10 649 -15 b 49 465 232 -15 49 171 b 550 951 49 715 213 951 b 788 904 668 951 749 924 "},"Ѕ":{"ha":750,"x_min":0,"x_max":0,"o":"m 99 218 b 333 160 156 189 243 160 b 482 261 431 160 482 200 b 325 393 482 319 438 353 b 68 669 169 447 68 533 b 422 951 68 829 201 951 b 661 904 528 951 606 929 l 614 733 b 418 778 576 751 510 778 b 282 688 326 778 282 736 b 456 556 282 628 335 601 b 699 276 621 494 699 408 b 321 -14 699 119 578 -14 b 56 43 214 -14 108 14 "},"І":{"ha":396,"x_min":0,"x_max":0,"o":"m 304 936 l 304 0 l 92 0 l 92 936 "},"Ї":{"ha":396,"x_min":0,"x_max":0,"o":"m 304 936 l 304 0 l 92 0 l 92 936 m 56 990 b -40 1085 0 990 -40 1033 b 56 1181 -40 1139 1 1181 b 147 1085 107 1181 147 1139 b 56 990 147 1033 107 990 m 343 990 b 249 1085 288 990 249 1033 b 343 1181 249 1139 289 1181 b 436 1085 396 1181 436 1139 b 343 990 436 1033 397 990 "},"Ј":{"ha":571,"x_min":0,"x_max":0,"o":"m 275 936 l 486 936 l 486 344 b 153 -15 486 78 358 -15 b -1 7 104 -15 40 -7 l 22 178 b 131 161 51 168 89 161 b 275 347 219 161 275 201 "},"Љ":{"ha":1313,"x_min":0,"x_max":0,"o":"m 786 936 l 786 603 b 897 610 817 607 861 610 b 1264 310 1088 610 1264 517 b 1174 96 1264 218 1229 146 b 801 -10 1085 17 944 -10 b 576 4 697 -10 624 -3 l 576 763 l 379 763 l 379 540 b 207 32 379 300 349 115 b 22 -14 160 6 94 -14 l -6 156 b 103 208 42 163 79 185 b 172 528 160 268 172 385 l 172 936 m 786 153 b 858 149 811 150 833 149 b 1044 306 957 149 1044 203 b 861 453 1044 410 960 453 b 786 447 833 453 810 451 "},"Њ":{"ha":1325,"x_min":0,"x_max":0,"o":"m 304 936 l 304 588 l 589 588 l 589 936 l 799 936 l 799 600 b 914 606 831 603 872 606 b 1276 310 1108 606 1276 513 b 1186 96 1276 217 1240 144 b 815 -10 1096 17 958 -10 b 589 4 710 -10 636 -3 l 589 410 l 304 410 l 304 0 l 92 0 l 92 936 m 799 154 b 872 149 824 150 847 149 b 1057 304 974 149 1057 201 b 876 450 1057 407 974 450 b 799 444 843 450 821 447 "},"Ћ":{"ha":1014,"x_min":0,"x_max":0,"o":"m 786 936 l 786 763 l 474 763 l 474 574 l 479 574 b 676 629 525 604 601 629 b 860 557 757 629 818 603 b 929 335 907 506 929 429 l 929 0 l 718 0 l 718 307 b 685 425 718 357 710 397 b 597 458 665 446 638 458 b 474 417 550 458 506 442 l 474 0 l 263 0 l 263 763 l 21 763 l 21 936 "},"Ќ":{"ha":840,"x_min":0,"x_max":0,"o":"m 301 936 l 301 547 l 319 547 l 578 936 l 835 936 l 508 521 b 722 294 629 490 683 407 b 831 0 756 194 786 93 l 603 0 b 531 206 571 64 553 136 b 342 392 499 311 456 392 l 301 392 l 301 0 l 92 0 l 92 936 m 654 1150 l 485 979 l 315 979 l 432 1150 "},"Ў":{"ha":817,"x_min":0,"x_max":0,"o":"m 243 936 l 379 607 b 444 428 404 540 424 485 l 449 428 b 500 610 461 468 476 531 l 601 936 l 824 936 l 649 482 b 464 108 592 336 533 194 b 215 -15 403 32 325 -15 b 111 0 167 -15 138 -10 l 126 169 b 196 163 143 165 165 163 b 322 250 261 163 306 207 b 319 293 331 265 326 278 l 4 936 m 347 1153 b 410 1068 350 1099 365 1068 b 475 1153 453 1068 469 1099 l 617 1153 b 407 982 608 1033 531 982 b 204 1153 285 982 215 1036 "},"Џ":{"ha":936,"x_min":0,"x_max":0,"o":"m 304 936 l 304 174 l 633 174 l 633 936 l 844 936 l 844 0 l 567 0 l 556 -256 l 382 -256 l 371 0 l 92 0 l 92 936 "},"А":{"ha":911,"x_min":0,"x_max":0,"o":"m 310 240 l 243 0 l 24 0 l 310 936 l 588 936 l 878 0 l 650 0 l 578 240 m 547 399 l 489 597 b 442 778 472 653 456 722 l 439 778 b 396 597 425 722 411 651 l 340 399 "},"Б":{"ha":838,"x_min":0,"x_max":0,"o":"m 714 936 l 714 764 l 303 764 l 303 603 b 417 610 335 607 379 610 b 681 533 511 610 610 586 b 789 310 746 486 789 413 b 700 99 789 218 754 147 b 319 -10 610 18 463 -10 b 92 4 215 -10 139 -3 l 92 936 m 301 154 b 383 149 325 150 354 149 b 521 197 435 149 486 165 b 567 306 549 222 567 260 b 517 411 567 353 547 388 b 376 453 479 440 426 453 b 301 447 353 453 328 451 "},"В":{"ha":839,"x_min":0,"x_max":0,"o":"m 92 924 b 365 943 147 935 260 943 b 642 890 494 943 574 931 b 754 707 707 856 754 792 b 600 507 754 624 706 546 l 600 504 b 786 274 707 475 786 394 b 689 75 786 189 747 122 b 321 -10 621 21 507 -10 b 92 4 217 -10 139 -3 m 301 565 l 371 565 b 542 681 482 565 542 611 b 392 789 542 751 488 789 b 301 783 346 789 319 786 m 301 150 b 383 147 322 147 347 147 b 564 282 479 147 564 183 b 374 414 564 376 479 414 l 301 414 "},"Г":{"ha":679,"x_min":0,"x_max":0,"o":"m 658 936 l 658 763 l 304 763 l 304 0 l 92 0 l 92 936 "},"Д":{"ha":956,"x_min":0,"x_max":0,"o":"m 835 936 l 835 167 l 928 161 l 918 -237 l 757 -237 l 746 0 l 199 0 l 188 -237 l 26 -237 l 18 161 l 96 167 b 185 375 133 233 164 301 b 222 686 211 469 222 571 l 222 936 m 418 639 b 376 331 418 531 404 425 b 311 172 360 274 336 217 l 622 172 l 622 764 l 418 764 "},"Е":{"ha":742,"x_min":0,"x_max":0,"o":"m 649 396 l 304 396 l 304 174 l 689 174 l 689 0 l 92 0 l 92 936 l 669 936 l 669 763 l 304 763 l 304 568 l 649 568 "},"Ж":{"ha":1215,"x_min":0,"x_max":0,"o":"m 254 936 l 486 547 l 506 547 l 506 936 l 708 936 l 708 547 l 728 547 l 961 936 l 1207 936 l 888 518 b 1115 290 1014 504 1075 411 b 1211 0 1147 193 1171 92 l 997 0 b 931 207 968 63 950 140 b 742 392 900 307 857 392 l 708 392 l 708 0 l 506 0 l 506 392 l 471 392 b 283 207 357 392 314 307 b 217 0 264 140 246 63 l 3 0 b 101 285 44 92 71 193 b 326 518 140 406 200 496 l 7 936 "},"З":{"ha":756,"x_min":0,"x_max":0,"o":"m 57 876 b 349 951 122 915 219 951 b 675 711 554 951 675 849 b 488 490 675 594 596 517 l 488 488 b 707 265 604 472 707 392 b 321 -15 707 57 496 -15 b 40 50 224 -15 118 6 l 85 213 b 311 157 126 190 224 157 b 483 279 418 157 483 201 b 288 404 483 383 375 404 l 199 404 l 199 560 l 286 560 b 454 678 382 560 454 604 b 313 781 454 739 403 781 b 107 725 240 781 160 751 "},"И":{"ha":958,"x_min":0,"x_max":0,"o":"m 286 936 l 286 658 b 275 235 286 508 283 360 l 281 235 b 447 568 329 344 392 468 l 649 936 l 865 936 l 865 0 l 671 0 l 671 276 b 686 671 671 421 674 549 l 682 671 b 524 338 639 560 579 436 l 333 0 l 92 0 l 92 936 "},"Й":{"ha":958,"x_min":0,"x_max":0,"o":"m 286 936 l 286 658 b 275 235 286 508 283 360 l 281 235 b 447 568 329 344 392 468 l 649 936 l 865 936 l 865 0 l 671 0 l 671 276 b 686 671 671 421 674 549 l 682 671 b 524 338 639 560 579 436 l 333 0 l 92 0 l 92 936 m 417 1150 b 478 1065 418 1096 433 1065 b 543 1150 521 1065 538 1096 l 685 1150 b 475 979 676 1031 599 979 b 272 1150 353 979 283 1033 "},"К":{"ha":840,"x_min":0,"x_max":0,"o":"m 301 936 l 301 547 l 319 547 l 578 936 l 835 936 l 508 521 b 722 294 629 490 683 407 b 831 0 756 194 786 93 l 603 0 b 531 206 571 64 553 136 b 342 392 499 311 456 392 l 301 392 l 301 0 l 92 0 l 92 936 "},"Л":{"ha":896,"x_min":0,"x_max":0,"o":"m 803 936 l 803 0 l 592 0 l 592 763 l 379 763 l 379 540 b 207 32 379 300 349 115 b 21 -14 160 6 96 -14 l -6 157 b 101 207 40 163 78 182 b 172 526 158 265 172 385 l 172 936 "},"М":{"ha":1175,"x_min":0,"x_max":0,"o":"m 883 358 b 875 743 879 471 875 607 l 871 743 b 767 381 842 624 803 490 l 653 15 l 488 15 l 388 378 b 303 743 357 488 325 621 l 300 743 b 283 356 294 617 290 472 l 267 0 l 71 0 l 131 936 l 413 936 l 504 624 b 583 289 533 515 563 399 l 588 289 b 676 625 614 397 646 521 l 776 936 l 1053 936 l 1104 0 l 897 0 "},"Н":{"ha":957,"x_min":0,"x_max":0,"o":"m 304 936 l 304 576 l 653 576 l 653 936 l 864 936 l 864 0 l 653 0 l 653 392 l 304 392 l 304 0 l 92 0 l 92 936 "},"О":{"ha":996,"x_min":0,"x_max":0,"o":"m 504 951 b 949 478 792 951 949 736 b 489 -15 949 171 763 -15 b 49 461 211 -15 49 194 b 504 951 49 742 228 951 m 499 783 b 272 465 356 783 272 647 b 500 153 272 282 358 153 b 725 471 643 153 725 289 b 499 783 725 639 644 783 "},"П":{"ha":940,"x_min":0,"x_max":0,"o":"m 849 936 l 849 0 l 636 0 l 636 763 l 304 763 l 304 0 l 92 0 l 92 936 "},"Р":{"ha":807,"x_min":0,"x_max":0,"o":"m 92 924 b 378 943 157 935 249 943 b 664 868 508 943 601 918 b 764 651 724 821 764 743 b 678 429 764 560 733 482 b 374 331 606 361 499 331 b 301 335 346 331 321 332 l 301 0 l 92 0 m 301 499 b 372 493 319 494 342 493 b 554 646 485 493 554 550 b 389 783 554 732 494 783 b 301 775 346 783 317 779 "},"С":{"ha":826,"x_min":0,"x_max":0,"o":"m 779 26 b 539 -14 740 7 653 -14 b 49 454 215 -14 49 188 b 560 951 49 774 276 951 b 790 910 669 951 753 929 l 747 742 b 569 776 704 760 644 776 b 271 467 401 776 271 675 b 571 161 271 279 382 161 b 747 192 635 161 706 175 "},"Т":{"ha":761,"x_min":0,"x_max":0,"o":"m 272 758 l 21 758 l 21 936 l 740 936 l 740 758 l 485 758 l 485 0 l 272 0 "},"У":{"ha":817,"x_min":0,"x_max":0,"o":"m 243 936 l 379 607 b 444 428 404 540 424 485 l 449 428 b 500 610 461 468 476 531 l 601 936 l 824 936 l 649 482 b 464 108 592 336 533 194 b 215 -15 403 32 325 -15 b 111 0 167 -15 138 -10 l 126 169 b 196 163 143 165 165 163 b 322 250 261 163 306 207 b 319 293 331 265 326 278 l 4 936 "},"Ф":{"ha":1096,"x_min":0,"x_max":0,"o":"m 649 975 l 649 893 b 1047 471 847 879 1047 763 b 646 46 1047 182 853 65 l 646 -39 l 447 -39 l 447 46 b 49 464 244 61 49 176 b 450 893 49 760 269 878 l 450 975 m 449 749 b 261 468 367 738 261 665 b 449 193 261 285 365 204 m 647 193 b 835 471 729 203 835 272 b 647 749 835 668 735 738 "},"Х":{"ha":851,"x_min":0,"x_max":0,"o":"m 585 0 l 500 169 b 417 338 465 235 443 283 l 414 338 b 342 169 394 283 371 235 l 264 0 l 22 0 l 293 474 l 32 936 l 275 936 l 357 765 b 428 610 385 708 406 663 l 431 610 b 494 765 453 669 471 711 l 574 936 l 815 936 l 551 479 l 829 0 "},"Ц":{"ha":964,"x_min":0,"x_max":0,"o":"m 304 936 l 304 174 l 632 174 l 632 936 l 843 936 l 843 167 l 938 161 l 928 -237 l 767 -237 l 756 0 l 92 0 l 92 936 "},"Ч":{"ha":892,"x_min":0,"x_max":0,"o":"m 294 936 l 294 665 b 451 507 294 558 351 507 b 589 542 499 507 549 521 l 589 936 l 800 936 l 800 0 l 589 0 l 589 386 l 585 386 b 375 338 517 353 453 338 b 83 629 206 338 83 428 l 83 936 "},"Ш":{"ha":1268,"x_min":0,"x_max":0,"o":"m 300 936 l 300 174 l 531 174 l 531 936 l 738 936 l 738 174 l 969 174 l 969 936 l 1176 936 l 1176 0 l 92 0 l 92 936 "},"Щ":{"ha":1297,"x_min":0,"x_max":0,"o":"m 300 936 l 300 174 l 531 174 l 531 936 l 738 936 l 738 174 l 969 174 l 969 936 l 1176 936 l 1176 167 l 1269 161 l 1260 -237 l 1099 -237 l 1088 0 l 92 0 l 92 936 "},"Ъ":{"ha":981,"x_min":0,"x_max":0,"o":"m 464 936 l 464 611 b 576 618 490 614 535 618 b 932 314 760 618 932 515 b 856 110 932 224 903 157 b 482 -10 767 18 625 -10 b 253 4 378 -10 300 -3 l 253 764 l 17 764 l 17 936 m 463 154 b 539 149 483 150 507 149 b 710 306 636 149 710 204 b 539 456 710 410 629 456 b 463 450 513 456 485 453 "},"Ы":{"ha":1183,"x_min":0,"x_max":0,"o":"m 303 936 l 303 610 b 407 618 329 614 372 618 b 778 311 600 618 778 522 b 703 110 778 224 749 158 b 318 -10 613 18 456 -10 b 92 4 217 -10 139 -3 l 92 936 m 301 154 b 374 149 319 150 344 149 b 556 306 467 149 556 203 b 376 456 556 413 457 456 b 301 450 347 456 322 453 m 1075 936 l 1075 0 l 864 0 l 864 936 "}}}
